SplineFontDB: 3.0
FontName: HiBlkObl
FullName: Hi. Black Oblique
FamilyName: Hi.
Weight: Black
Copyright: Copyright (c) 2015, Mew Too/Cannot Into Space Fonts, All Rights Reserved.
Version: 1.996
ItalicAngle: 0
UnderlinePosition: -100
UnderlineWidth: 50
Ascent: 800
Descent: 200
InvalidEm: 0
sfntRevision: 0x0001fefa
LayerCount: 2
Layer: 0 0 "Back" 1
Layer: 1 0 "Fore" 0
XUID: [1021 604 120746000 9924]
StyleMap: 0x0000
FSType: 0
OS2Version: 4
OS2_WeightWidthSlopeOnly: 0
OS2_UseTypoMetrics: 1
CreationTime: 1421008990
ModificationTime: 1424211131
PfmFamily: 17
TTFWeight: 400
TTFWidth: 5
LineGap: 90
VLineGap: 0
Panose: 2 0 5 3 0 0 0 0 0 0
OS2TypoAscent: 800
OS2TypoAOffset: 0
OS2TypoDescent: -200
OS2TypoDOffset: 0
OS2TypoLinegap: 90
OS2WinAscent: 813
OS2WinAOffset: 0
OS2WinDescent: 184
OS2WinDOffset: 0
HheadAscent: 813
HheadAOffset: 0
HheadDescent: -184
HheadDOffset: 0
OS2SubXSize: 650
OS2SubYSize: 699
OS2SubXOff: 0
OS2SubYOff: 140
OS2SupXSize: 650
OS2SupYSize: 699
OS2SupXOff: 0
OS2SupYOff: 479
OS2StrikeYSize: 49
OS2StrikeYPos: 258
OS2CapHeight: 617
OS2XHeight: 585
OS2FamilyClass: 2063
OS2Vendor: 'CiSf'
OS2CodePages: 00000001.00000000
OS2UnicodeRanges: 0000002f.10000000.00000000.00000000
Lookup: 3 0 0 "'salt' Stylistic Alternatives in Latin lookup 0" { "'salt' Stylistic Alternatives in Latin lookup 0 subtable"  } ['salt' ('DFLT' <'dflt' > 'latn' <'dflt' > ) ]
Lookup: 4 0 1 "'liga' Standard Ligatures lookup 1" { "'liga' Standard Ligatures lookup 1 subtable"  } ['liga' ('DFLT' <'dflt' > ) ]
Lookup: 258 0 0 "'kern' Horizontal Kerning lookup 0" { "'kern' Horizontal Kerning lookup 0 subtable"  } ['kern' ('DFLT' <'dflt' > 'arab' <'dflt' > 'latn' <'dflt' > ) ]
MarkAttachClasses: 1
DEI: 91125

StartChar: .notdef
Encoding: 65536 -1 0
Width: 577
Flags: MW
HStem: -10 70<119.479 399.479 119.479 459.641> 473 70<177.521 457.521 177.521 177.521>
LayerCount: 2
Back
Fore
SplineSet
39.640625 -10 m 1
 117.359375 543 l 1
 537.359375 543 l 1
 459.640625 -10 l 1
 39.640625 -10 l 1
119.478515625 60 m 1
 399.478515625 60 l 1
 457.521484375 473 l 1
 177.521484375 473 l 1
 119.478515625 60 l 1
EndSplineSet
EndChar

StartChar: space
Encoding: 32 32 1
Width: 128
GlyphClass: 2
Flags: MW
HStem: 392 20<55.4053 72.5947 52.5947 75.4053>
VStem: 52.5947 20<392 392>
LayerCount: 2
Back
Fore
SplineSet
55.4052734375 412 m 1
 75.4052734375 412 l 1
 72.5947265625 392 l 1
 52.5947265625 392 l 1
 55.4052734375 412 l 1
EndSplineSet
EndChar

StartChar: exclam
Encoding: 33 33 2
Width: 253
GlyphClass: 2
Flags: MW
HStem: -10.25 112.5<86.4692 101.657>
VStem: 40.3809 172.604
LayerCount: 2
Back
Fore
SplineSet
40.380859375 46 m 0
 44.576171875 75.853515625 70.90234375 102.25 102.036132812 102.25 c 0
 132.899414062 102.25 153.379882812 76.2333984375 149.130859375 46 c 0
 144.881835938 15.7666015625 117.088867188 -10.25 86.2255859375 -10.25 c 0
 55.091796875 -10.25 36.185546875 16.146484375 40.380859375 46 c 0
118.921875 552.432617188 m 0
 123.119140625 576.069335938 147.483398438 590 171.255859375 590 c 0
 195.649414062 590 215.490234375 574.473632812 212.985351562 552.142578125 c 2
 157.311523438 156 l 2
 154.115234375 133.260742188 129.071289062 118 104.920898438 118 c 0
 80.697265625 118 60.0439453125 133.46875 63.2109375 155.997070312 c 0
 63.26171875 156.358398438 118.571289062 550.955078125 118.921875 552.432617188 c 0
EndSplineSet
EndChar

StartChar: quotedbl
Encoding: 34 34 3
Width: 382
GlyphClass: 2
Flags: MW
HStem: 597.5 112.5<147.266 148.66 268.266 269.66>
VStem: 101.178 108.914 222.178 108.914
LayerCount: 2
Back
Fore
SplineSet
328.780273438 580.373046875 m 0
 318.565429688 558.817382812 264.120117188 551.836914062 231.0546875 547.583984375 c 2
 167.887695312 539.4609375 l 1
 228.091796875 566.515625 l 2
 254.821289062 578.528320312 270.104492188 583.793945312 277.377929688 598.280273438 c 1
 273.516601562 597.64453125 271.296875 597.5 268.022460938 597.5 c 0
 236.888671875 597.5 217.981445312 623.896484375 222.177734375 653.75 c 0
 226.373046875 683.603515625 252.69921875 710 283.833007812 710 c 0
 315.530273438 710 333.984375 682.928710938 331.091796875 655.028320312 c 1
 333.364257812 634.301757812 339.989257812 601.717773438 328.780273438 580.373046875 c 0
207.780273438 580.373046875 m 0
 197.565429688 558.817382812 143.120117188 551.836914062 110.0546875 547.583984375 c 2
 46.8876953125 539.4609375 l 1
 107.091796875 566.515625 l 2
 133.821289062 578.528320312 149.104492188 583.793945312 156.377929688 598.280273438 c 1
 152.516601562 597.64453125 150.296875 597.5 147.022460938 597.5 c 0
 115.888671875 597.5 96.9814453125 623.896484375 101.177734375 653.75 c 0
 105.373046875 683.603515625 131.69921875 710 162.833007812 710 c 0
 194.530273438 710 212.984375 682.928710938 210.091796875 655.028320312 c 1
 212.364257812 634.301757812 218.989257812 601.717773438 207.780273438 580.373046875 c 0
EndSplineSet
EndChar

StartChar: numbersign
Encoding: 35 35 4
Width: 823
GlyphClass: 2
Flags: MW
HStem: 161.989 89.5059<186.455 231.954> 333.656 89.4678<587.217 632.719>
LayerCount: 2
Back
Fore
SplineSet
715.893554688 586.6640625 m 2
 632.71875 423.124023438 l 1
 739.747070312 422.73828125 l 2
 761.329101562 422.661132812 780.68359375 404.057617188 785.78125 381.237304688 c 0
 787.076171875 375.4453125 787.337890625 369.739257812 786.5546875 364.290039062 c 0
 784.08984375 347.1171875 770.258789062 333.041992188 752.423828125 333.107421875 c 2
 587.216796875 333.65625 l 1
 544.858398438 250.370117188 l 1
 669.13671875 249.921875 l 2
 690.71875 249.844726562 710.07421875 231.241210938 715.171875 208.420898438 c 0
 716.465820312 202.62890625 716.727539062 196.922851562 715.9453125 191.473632812 c 0
 713.479492188 174.30078125 699.649414062 160.225585938 681.813476562 160.291015625 c 2
 499.352539062 160.897460938 l 1
 430.006835938 24.546875 l 2
 419.700195312 4.28125 392.698242188 -10 368.412109375 -10 c 0
 362.249023438 -10 356.658203125 -9.0478515625 351.805664062 -7.1689453125 c 0
 336.51953125 -1.24609375 329.58984375 14.7060546875 338.107421875 31.451171875 c 2
 404.064453125 161.220703125 l 1
 281.733398438 161.64453125 l 1
 212.006835938 24.546875 l 2
 201.700195312 4.28125 174.698242188 -10 150.412109375 -10 c 0
 144.249023438 -10 138.658203125 -9.0478515625 133.805664062 -7.1689453125 c 0
 118.51953125 -1.24609375 111.58984375 14.7060546875 120.107421875 31.451171875 c 2
 186.455078125 161.989257812 l 1
 122.124023438 162.228515625 84.6416015625 162.333984375 83.1494140625 162.43359375 c 0
 60.3466796875 163.20703125 42.2705078125 181.375976562 37.2265625 203.946289062 c 0
 36.02734375 209.310546875 35.70703125 214.586914062 36.2841796875 219.658203125 c 0
 38.298828125 237.372070312 52.14453125 251.681640625 70.4609375 252.076171875 c 2
 231.954101562 251.495117188 l 1
 274.275390625 334.743164062 l 1
 200.966796875 335.010742188 155.107421875 335.153320312 153.706054688 335.250976562 c 0
 130.997070312 336.022460938 112.87890625 354.197265625 107.8359375 376.762695312 c 0
 106.63671875 382.126953125 106.317382812 387.403320312 106.89453125 392.474609375 c 0
 108.909179688 410.188476562 122.754882812 424.498046875 141.071289062 424.892578125 c 2
 323.288085938 424.237304688 l 2
 323.258789062 424.037109375 381.528320312 552.545898438 406.05859375 593.711914062 c 0
 417.465820312 614.709960938 443.524414062 628 467.530273438 628 c 0
 473.239257812 628 478.4453125 627.194335938 483.033203125 625.586914062 c 0
 499.049804688 619.973632812 506.200195312 603.958984375 497.893554688 586.6640625 c 2
 415.118164062 423.907226562 l 1
 537.389648438 423.466796875 l 1
 588.52734375 524.024414062 622.5 591.096679688 624.120117188 593.814453125 c 2
 624.120117188 593.814453125 668.107421875 628 685.530273438 628 c 0
 691.239257812 628 696.4453125 627.194335938 701.033203125 625.586914062 c 0
 717.065429688 619.967773438 724.108398438 603.771484375 715.893554688 586.6640625 c 2
369.595703125 334.401367188 m 1
 327.256835938 251.153320312 l 1
 449.556640625 250.711914062 l 1
 491.887695312 333.978515625 l 1
 369.595703125 334.401367188 l 1
EndSplineSet
AlternateSubs2: "'salt' Stylistic Alternatives in Latin lookup 0 subtable" uniE008
EndChar

StartChar: dollar
Encoding: 36 36 5
Width: 608
GlyphClass: 2
Flags: MW
HStem: 67.4688 75.5742<53.6719 73.791> 255.802 76.29<345.864 356.587> 439.559 73.0068<371.69 381.95>
LayerCount: 2
Back
Fore
SplineSet
407.654296875 256.174804688 m 2
 403.23828125 256.609375 377.879882812 255.999023438 345.864257812 255.801757812 c 1
 330.236328125 144.602539062 l 1
 403.111328125 150.338867188 447.767578125 170.662109375 454.038085938 215.28125 c 0
 454.72265625 220.154296875 456.275390625 221.208007812 457.063476562 226.655273438 c 0
 458.491210938 236.520507812 459.455078125 256.108398438 409.65625 256.037109375 c 2
 408.16015625 256.03515625 l 1
 407.654296875 256.174804688 l 2
199.248046875 331.59375 m 2
 199.248046875 331.59375 222.229492188 331.725585938 254.2734375 331.842773438 c 1
 259.96484375 372.392578125 265.06640625 408.686523438 269.780273438 442.231445312 c 1
 200.592773438 435.217773438 160.911132812 414.987304688 154.918945312 372.349609375 c 0
 154.245117188 367.55078125 152.7734375 366.581054688 151.955078125 361.383789062 c 0
 150.396484375 351.469726562 148.9921875 331.4609375 199.248046875 331.59375 c 2
341.739257812 590 m 0
 368.079101562 590 389.979492188 574.657226562 387.512695312 552.145507812 c 2
 381.950195312 512.565429688 l 1
 487.583007812 512.453125 543.098632812 512.081054688 544.685546875 512.071289062 c 0
 563.522460938 512.071289062 573.120117188 494.05078125 570.555664062 475.806640625 c 0
 567.991210938 457.559570312 553.357421875 439.540039062 534.45703125 439.540039062 c 2
 371.690429688 439.55859375 l 1
 356.586914062 332.091796875 l 1
 379.146484375 332.122070312 397.171875 332.134765625 420.336914062 332.134765625 c 0
 430.302734375 332.134765625 440.296875 332.5078125 450.33203125 332.509765625 c 0
 499.926757812 332.515625 550.545898438 319.549804688 535.891601562 215.28125 c 0
 520.021484375 102.357421875 427.391601562 72.890625 319.447265625 67.8310546875 c 1
 313.849609375 28 l 2
 310.626953125 5.0751953125 283.473632812 -10 257.415039062 -10 c 0
 231.266601562 -10 208.469726562 5.2802734375 211.663085938 27.99609375 c 2
 217.125 66.962890625 l 1
 119.168945312 67.087890625 63.79296875 67.46484375 63.134765625 67.46875 c 0
 44.208984375 67.46875 34.8173828125 86.3203125 37.478515625 105.255859375 c 0
 40.1396484375 124.194335938 54.8017578125 143.04296875 73.791015625 143.04296875 c 2
 227.786132812 143.025390625 l 1
 243.564453125 255.533203125 l 1
 225.21484375 255.508789062 208.231445312 255.49609375 188.620117188 255.49609375 c 0
 178.654296875 255.49609375 168.66015625 255.123046875 158.625 255.12109375 c 0
 109.090820312 255.115234375 58.3486328125 267.630859375 72.53515625 368.577148438 c 0
 87.48828125 474.96875 175.721679688 504.83984375 279.438476562 510.814453125 c 1
 283.529296875 539.8046875 285.010742188 550.283203125 285.150390625 551.268554688 c 0
 289.783203125 576.862304688 316.09765625 590 341.739257812 590 c 0
EndSplineSet
EndChar

StartChar: percent
Encoding: 37 37 6
Width: 629
GlyphClass: 2
Flags: MW
HStem: -20 21G<63.0898 79.2871> -10.4404 78.2041<418.88 450.297 418.88 460.582> 165.436 78.2041<432.608 464.025> 373.92 78.2041<168.377 200.003 168.377 211.308> 539.796 78.2041<180.7 212.326>
LayerCount: 2
Back
Fore
SplineSet
135.762695312 495.959960938 m 0x38
 132.6328125 473.688476562 152.952148438 452.124023438 183.802734375 452.124023438 c 0
 216.203125 452.124023438 244.092773438 473.8125 247.205078125 495.959960938 c 0
 250.318359375 518.108398438 228.528320312 539.795898438 196.124023438 539.795898438 c 0
 165.276367188 539.795898438 138.893554688 518.23046875 135.762695312 495.959960938 c 0x38
57.0263671875 495.959960938 m 0
 66.55859375 563.783203125 134.008789062 618 207.115234375 618 c 0
 284.107421875 618 340.298828125 563.916015625 330.748046875 495.959960938 c 0
 321.198242188 428.004882812 249.803710938 373.919921875 172.811523438 373.919921875 c 0
 99.705078125 373.919921875 47.4951171875 428.13671875 57.0263671875 495.959960938 c 0
496.0390625 116.599609375 m 0
 499.560546875 141.65234375 479.34765625 165.435546875 448.702148438 165.435546875 c 0
 416.513671875 165.435546875 388.099609375 141.521484375 384.596679688 116.599609375 c 0
 381.094726562 91.677734375 402.78515625 67.763671875 434.975585938 67.763671875 c 0x78
 465.618164062 67.763671875 492.518554688 91.546875 496.0390625 116.599609375 c 0
574.775390625 116.599609375 m 0
 564.866210938 46.0908203125 497.1796875 -10.4404296875 423.984375 -10.4404296875 c 0
 346.901367188 -10.4404296875 291.125976562 45.955078125 301.053710938 116.599609375 c 0
 310.982421875 187.243164062 382.611328125 243.639648438 459.693359375 243.639648438 c 0
 532.887695312 243.639648438 584.685546875 187.109375 574.775390625 116.599609375 c 0
562.03515625 618 m 0
 569.633789062 618 576.288085938 616.595703125 581.559570312 613.432617188 c 0
 594.98828125 605.381835938 594.223632812 588.5625 584.080078125 574.771484375 c 2
 136.002929688 12.646484375 l 2
 121.03515625 -5.953125 91.4658203125 -20 67.1083984375 -20 c 0xb8
 59.0712890625 -20 52.0615234375 -18.404296875 46.6552734375 -14.8427734375 c 0
 34.005859375 -6.5087890625 34.9501953125 9.9921875 45.1181640625 23.2998046875 c 0
 45.4013671875 23.6689453125 492.3359375 584.571289062 493.430664062 585.751953125 c 2
 493.430664062 585.751953125 548.393554688 618 562.03515625 618 c 0
EndSplineSet
EndChar

StartChar: ampersand
Encoding: 38 38 7
Width: 856
GlyphClass: 2
Flags: MW
HStem: -10 94.0996<69.832 560.928> 242.633 94.167 354.005 94.0947<420.431 644.175> 495.426 94.7959<413.162 513.825>
LayerCount: 2
Back
Fore
SplineSet
273.536132812 336.799804688 m 2
 279.971679688 337.266601562 287.188476562 337.521484375 294.272460938 337.521484375 c 0
 447.028320312 337.521484375 456.251953125 336.959960938 457.883789062 336.782226562 c 2
 457.883789062 336.782226562 491.809570312 312.880859375 488.55859375 289.75 c 0
 485.004882812 264.462890625 466.723632812 244.137695312 444.130859375 242.668945312 c 0
 442.708984375 242.529296875 353.446289062 242.59765625 275.305664062 242.6328125 c 0
 195.772460938 240.03515625 199.697265625 179.439453125 160.258789062 84.099609375 c 1
 560.927734375 84.099609375 l 1
 569.95703125 148.612304688 586.231445312 264.755859375 598.796875 353.912109375 c 1
 498.565429688 353.896484375 423.411132812 353.732421875 420.430664062 354.004882812 c 2
 420.430664062 354.004882812 386.301757812 377.935546875 389.55078125 401.049804688 c 0
 392.978515625 425.444335938 411.494140625 447.461914062 434.020507812 448.099609375 c 2
 644.174804688 448.099609375 l 2
 650.541992188 449.6875 654.064453125 450.049804688 659.436523438 450.049804688 c 0
 664.69921875 450.049804688 672.038085938 448.631835938 674.084960938 448.099609375 c 2
 786.163085938 448.099609375 l 2
 808.90234375 448.099609375 820.944335938 425.200195312 817.55078125 401.049804688 c 0
 814.145507812 376.826171875 795.46484375 353.999023438 772.9453125 354 c 2
 692.98046875 353.939453125 l 1
 648.444335938 37.0498046875 l 2
 644.890625 11.7626953125 626.669921875 -8.55859375 603.9296875 -10.037109375 c 0
 601.53515625 -10.2626953125 69.8662109375 -10 69.83203125 -10 c 0
 47.3076171875 -10.0009765625 35.0419921875 12.84375 38.4443359375 37.0498046875 c 0
 51.38671875 129.141601562 77.8330078125 213.479492188 127.6953125 268.422851562 c 1
 125.697265625 275.778320312 125.469726562 282.000976562 126.55859375 289.75 c 0
 149.848632812 455.467773438 304.419921875 590.221679688 471.38671875 590.221679688 c 0
 592.522460938 590.221679688 607.954101562 590.528320312 612.876953125 589.29296875 c 0
 635.784179688 586.044921875 643.84375 565.014648438 640.672851562 542.450195312 c 0
 637.276367188 518.282226562 618.81640625 495.400390625 596.05078125 495.400390625 c 2
 596.05078125 495.400390625 569.5859375 495.42578125 458.064453125 495.42578125 c 0
 368.258789062 495.42578125 293.25 426.5546875 248.87109375 336.799804688 c 1
 273.536132812 336.799804688 l 2
EndSplineSet
EndChar

StartChar: quotesingle
Encoding: 39 39 8
Width: 261
GlyphClass: 2
Flags: MW
HStem: 539.461 170.539<46.8877 178.682>
VStem: 101.178 108.914
LayerCount: 2
Back
Fore
SplineSet
207.780273438 580.373046875 m 0
 197.565429688 558.817382812 143.120117188 551.836914062 110.0546875 547.583984375 c 2
 46.8876953125 539.4609375 l 1
 107.091796875 566.515625 l 2
 133.821289062 578.528320312 149.104492188 583.793945312 156.377929688 598.280273438 c 1
 152.516601562 597.64453125 150.296875 597.5 147.022460938 597.5 c 0
 115.888671875 597.5 96.9814453125 623.896484375 101.177734375 653.75 c 0
 105.373046875 683.603515625 131.69921875 710 162.833007812 710 c 0
 194.530273438 710 212.984375 682.928710938 210.091796875 655.028320312 c 1
 212.364257812 634.301757812 218.989257812 601.717773438 207.780273438 580.373046875 c 0
EndSplineSet
EndChar

StartChar: parenleft
Encoding: 40 40 9
Width: 454
GlyphClass: 2
Flags: MW
HStem: 570.229 20.543
LayerCount: 2
Back
Fore
SplineSet
284.697265625 10.37109375 m 1
 297.120117188 10.302734375 306.841796875 10.240234375 314.595703125 10.173828125 c 0
 314.912109375 10.2216796875 336.209960938 15.3212890625 334.057617188 0.0087890625 c 0
 331.583007812 -17.5986328125 293.919921875 -10.171875 250.849609375 -10.171875 c 0
 82.0126953125 -10.171875 21.5849609375 127.399414062 44.478515625 290.299804688 c 0
 67.373046875 453.200195312 166.469726562 590.771484375 335.306640625 590.771484375 c 0
 389.131835938 590.771484375 405.09375 591.87890625 410.193359375 590.064453125 c 0
 424.5859375 584.9375 395.342773438 570.740234375 395.342773438 570.740234375 c 1
 394.479492188 570.435546875 l 1
 393.602539062 570.427734375 l 2
 385.654296875 570.358398438 373.796875 570.286132812 363.379882812 570.228515625 c 1
 367.189453125 560.780273438 368.01171875 553.096679688 366.596679688 543.025390625 c 0
 363.200195312 518.857421875 344.733398438 495.975585938 321.984375 495.975585938 c 0
 218.786132812 495.975585938 163.456054688 407.752929688 146.94921875 290.299804688 c 0
 130.442382812 172.848632812 160.977539062 84.6240234375 264.172851562 84.6240234375 c 0
 286.912109375 84.6240234375 298.954101562 61.7255859375 295.559570312 37.57421875 c 0
 294.140625 27.4765625 290.0625 18.2119140625 284.697265625 10.37109375 c 1
EndSplineSet
EndChar

StartChar: parenright
Encoding: 41 41 10
Width: 454
GlyphClass: 2
Flags: MW
HStem: -10.1719 20.3438
LayerCount: 2
Back
Fore
SplineSet
90.416015625 10.3701171875 m 1
 86.4951171875 19.2568359375 85.96875 27.361328125 87.4033203125 37.57421875 c 0
 90.80078125 61.7421875 109.267578125 84.6240234375 132.016601562 84.6240234375 c 0
 235.21484375 84.6240234375 290.543945312 172.846679688 307.05078125 290.299804688 c 0
 323.557617188 407.750976562 293.024414062 495.975585938 189.828125 495.975585938 c 0
 167.088867188 495.975585938 155.045898438 518.874023438 158.440429688 543.025390625 c 0
 159.841796875 552.998046875 164.127929688 562.6640625 169.135742188 569.982421875 c 1
 161.76171875 569.751953125 156.786132812 569.5625 150.046875 569.55078125 c 0
 139.18359375 569.532226562 118.18359375 568.077148438 119.942382812 580.590820312 c 0
 122.416992188 598.198242188 160.080078125 590.771484375 203.150390625 590.771484375 c 0
 371.987304688 590.771484375 432.416015625 453.200195312 409.521484375 290.299804688 c 0
 386.627929688 127.399414062 287.53125 -10.171875 118.693359375 -10.171875 c 0
 64.869140625 -10.171875 48.908203125 -11.279296875 43.806640625 -9.46484375 c 0
 29.4150390625 -4.337890625 58.658203125 9.859375 58.658203125 9.859375 c 1
 59.5224609375 10.1640625 l 1
 60.3984375 10.171875 l 2
 68.2109375 10.240234375 80.4765625 10.3154296875 90.416015625 10.3701171875 c 1
EndSplineSet
EndChar

StartChar: asterisk
Encoding: 42 42 11
Width: 360
GlyphClass: 2
Flags: MW
HStem: 597.58 49.6787<243.445 243.445 243.445 289.049 236.48 243.445>
VStem: 46.3945 267.199<622 622>
LayerCount: 2
Back
Fore
SplineSet
220.631835938 734.943359375 m 2
 213.243164062 682.375 l 1
 240.859375 706.594726562 253.362304688 717.625 256.588867188 720.286132812 c 0
 268.840820312 729.735351562 280.715820312 723.583007812 286.268554688 717.837890625 c 0
 292.418945312 711.473632812 299.028320312 696.578125 285.841796875 684.4296875 c 2
 243.4453125 647.258789062 l 1
 277.624023438 647.26171875 293.413085938 647.311523438 296.967773438 647.190429688 c 2
 297.114257812 647.185546875 l 1
 297.259765625 647.171875 l 2
 310.327148438 645.934570312 315.16796875 633.602539062 313.59375 622.400390625 c 0
 311.932617188 610.581054688 302.639648438 597.96484375 289.048828125 597.580078125 c 2
 236.48046875 597.580078125 l 1
 257.297851562 573.368164062 266.788085938 562.415039062 269.048828125 559.5625 c 0
 276.962890625 548.638671875 269.01953125 535.899414062 262.380859375 529.5390625 c 0
 255.026367188 522.494140625 238.908203125 513.791015625 228.373046875 525.270507812 c 2
 196.393554688 562.479492188 l 1
 189.017578125 510 l 2
 187.087890625 496.270507812 172.818359375 488.80078125 161.217773438 488.80078125 c 0
 149.5625 488.80078125 137.4609375 496.3671875 139.375976562 509.99609375 c 2
 146.733398438 562.462890625 l 1
 104.4296875 525.372070312 l 2
 91.8115234375 514.307617188 78.5078125 521.555664062 72.912109375 527.852539062 c 0
 67.220703125 534.2578125 61.2265625 549.044921875 74.2578125 560.46875 c 2
 74.2578125 560.46875 93.1845703125 577.07421875 116.561523438 597.580078125 c 1
 64.10546875 597.580078125 l 2
 50.3759765625 597.580078125 44.7646484375 610.799804688 46.39453125 622.400390625 c 0
 48.0322265625 634.055664062 57.44921875 647.220703125 71.078125 647.220703125 c 2
 123.546875 647.237304688 l 1
 91.6689453125 684.328125 l 2
 82.1591796875 695.391601562 91.4208984375 709.713867188 98.6279296875 716.194335938 c 0
 105.959960938 722.786132812 121.881835938 730.858398438 131.69921875 719.432617188 c 2
 131.69921875 719.432617188 145.96875 702.84375 163.565429688 682.3828125 c 1
 168.364257812 716.544921875 170.53125 732.319335938 171.154296875 735.890625 c 2
 171.1796875 736.038085938 l 1
 171.213867188 736.185546875 l 2
 174.3125 749.426757812 187.568359375 756 198.770507812 756 c 0
 210.6171875 756 222.123046875 748.25390625 220.631835938 734.943359375 c 2
EndSplineSet
AlternateSubs2: "'salt' Stylistic Alternatives in Latin lookup 0 subtable" uniE006
EndChar

StartChar: plus
Encoding: 43 43 12
Width: 584
GlyphClass: 2
Flags: MW
HStem: 261.904 94.1875 537.954 20G<315.093 339.28>
LayerCount: 2
Back
Fore
SplineSet
496.704101562 261.904296875 m 2
 332.69921875 261.904296875 l 1
 319.620117188 168.734375 310.192382812 100.482421875 309.495117188 97.451171875 c 2
 309.495117188 97.451171875 280.29296875 59.9541015625 257.178710938 59.9541015625 c 0
 232.796875 59.9541015625 212.921875 75.265625 215.44921875 97.8115234375 c 2
 238.51171875 261.904296875 l 1
 74.5615234375 261.904296875 l 2
 51.822265625 261.904296875 39.779296875 284.803710938 43.173828125 308.954101562 c 0
 46.578125 333.177734375 65.2568359375 356.004882812 87.7822265625 356.00390625 c 2
 87.7822265625 356.00390625 164.6640625 356.041015625 251.745117188 356.068359375 c 1
 274.778320312 519.954101562 l 2
 277.973632812 542.693359375 303.017578125 557.954101562 327.16796875 557.954101562 c 0
 351.391601562 557.954101562 372.044921875 542.483398438 368.877929688 519.958007812 c 2
 368.877929688 519.958007812 358.116210938 443.122070312 345.912109375 356.091796875 c 1
 439.131835938 356.107421875 507.267578125 356.2734375 510.288085938 356 c 2
 510.288085938 356 544.421875 332.068359375 541.173828125 308.954101562 c 0
 537.745117188 284.560546875 519.124023438 262.538085938 496.704101562 261.904296875 c 2
EndSplineSet
AlternateSubs2: "'salt' Stylistic Alternatives in Latin lookup 0 subtable" uniE005
EndChar

StartChar: comma
Encoding: 44 44 13
Width: 269
GlyphClass: 2
Flags: MW
HStem: -68.2891 170.539<50.8877 182.682>
VStem: 105.178 108.914
LayerCount: 2
Back
Fore
SplineSet
211.780273438 -27.376953125 m 0
 201.565429688 -48.9326171875 147.120117188 -55.9130859375 114.0546875 -60.166015625 c 2
 50.8876953125 -68.2890625 l 1
 111.092773438 -41.234375 l 2
 137.822265625 -29.2216796875 153.104492188 -23.9560546875 160.377929688 -9.4697265625 c 1
 156.517578125 -10.10546875 154.296875 -10.25 151.022460938 -10.25 c 0
 119.888671875 -10.25 100.982421875 16.146484375 105.177734375 46 c 0
 109.373046875 75.853515625 135.69921875 102.25 166.833007812 102.25 c 0
 198.530273438 102.25 216.984375 75.1787109375 214.091796875 47.2783203125 c 1
 216.364257812 26.5517578125 222.989257812 -6.0322265625 211.780273438 -27.376953125 c 0
EndSplineSet
EndChar

StartChar: hyphen
Encoding: 45 45 14
Width: 607
GlyphClass: 2
Flags: MW
HStem: 261.904 94.0996<74.5034 99.2876 99.0947 99.2876 99.0947 508.016>
LayerCount: 2
Back
Fore
SplineSet
521.529296875 356.008789062 m 0
 545.043945312 355.1328125 555.826171875 332.7265625 552.485351562 308.954101562 c 0
 549.056640625 284.560546875 530.435546875 262.538085938 508.015625 261.904296875 c 2
 85.873046875 261.904296875 l 2
 63.1337890625 261.904296875 51.0908203125 284.803710938 54.4853515625 308.954101562 c 0
 57.8896484375 333.177734375 76.56640625 356.004882812 99.0947265625 356.00390625 c 0
 99.48046875 356.00390625 520.044921875 356.153320312 521.529296875 356.008789062 c 0
EndSplineSet
EndChar

StartChar: period
Encoding: 46 46 15
Width: 216
GlyphClass: 2
Flags: MW
HStem: -10.25 112.5<99.7251 114.913>
VStem: 53.6367 108.75<46 46>
LayerCount: 2
Back
Fore
SplineSet
53.63671875 46 m 0
 57.83203125 75.853515625 84.158203125 102.25 115.291992188 102.25 c 0
 146.155273438 102.25 166.635742188 76.2333984375 162.38671875 46 c 0
 158.137695312 15.7666015625 130.344726562 -10.25 99.4814453125 -10.25 c 0
 68.34765625 -10.25 49.44140625 16.146484375 53.63671875 46 c 0
EndSplineSet
EndChar

StartChar: slash
Encoding: 47 47 16
Width: 460
GlyphClass: 2
Flags: W
LayerCount: 2
Back
Fore
SplineSet
327.235351562 593.817382812 m 0
 338.670898438 614.869140625 364.634765625 628 388.6484375 628 c 0
 394.357421875 628 399.563476562 627.194335938 404.151367188 625.586914062 c 0
 420.18359375 619.967773438 427.2265625 603.771484375 419.01171875 586.6640625 c 2
 133.125 24.546875 l 2
 122.818359375 4.28125 95.81640625 -10 71.5302734375 -10 c 0
 65.3671875 -10 59.7763671875 -9.0478515625 54.923828125 -7.1689453125 c 0
 39.6376953125 -1.24609375 32.716796875 14.724609375 41.2138671875 31.427734375 c 0
 41.3994140625 31.8017578125 326.422851562 592.486328125 327.235351562 593.817382812 c 0
EndSplineSet
EndChar

StartChar: zero
Encoding: 48 48 17
Width: 744
GlyphClass: 2
Flags: MW
HStem: -20 102.471<280.626 407.121 280.626 420.755> 482.729 102.471<336.879 463.374>
LayerCount: 2
Back
Fore
SplineSet
599.02734375 282.599609375 m 0
 613.822265625 387.873046875 526.62109375 482.728515625 400.125976562 482.728515625 c 0
 273.6328125 482.728515625 159.767578125 387.873046875 144.97265625 282.599609375 c 0
 130.177734375 177.325195312 217.37890625 82.470703125 343.874023438 82.470703125 c 0
 470.3671875 82.470703125 584.232421875 177.325195312 599.02734375 282.599609375 c 0
697.759765625 282.599609375 m 0
 674.2265625 115.150390625 512.037109375 -20 329.47265625 -20 c 0
 146.908203125 -20 22.70703125 115.150390625 46.240234375 282.599609375 c 0
 69.7734375 450.048828125 231.962890625 585.19921875 414.52734375 585.19921875 c 0
 597.091796875 585.19921875 721.29296875 450.048828125 697.759765625 282.599609375 c 0
EndSplineSet
AlternateSubs2: "'salt' Stylistic Alternatives in Latin lookup 0 subtable" uniE019
EndChar

StartChar: one
Encoding: 49 49 18
Width: 318
GlyphClass: 2
Flags: MW
HStem: 0 27.998
LayerCount: 2
Back
Fore
SplineSet
235.086914062 590 m 0
 258.5078125 590 279.563476562 579.234375 277.797851562 561.845703125 c 2
 202.771484375 28 l 2
 200.322265625 10.57421875 175.256835938 0 151.786132812 0 c 0
 128.252929688 0 106.243164062 10.7294921875 108.670898438 27.998046875 c 2
 108.670898438 27.998046875 143.405273438 275.856445312 165.68359375 434.315429688 c 1
 110.954101562 392.16796875 l 2
 92.732421875 376.192382812 66.41796875 381.590820312 51.83203125 398.561523438 c 0
 36.5380859375 413.8125 35.6123046875 437.47265625 52.5107421875 451.407226562 c 0
 54.9970703125 453.583984375 177.951171875 561.267578125 178.837890625 562.010742188 c 0
 188.482421875 570.001953125 204.176757812 592.219726562 235.086914062 590 c 0
EndSplineSet
EndChar

StartChar: two
Encoding: 50 50 19
Width: 750
GlyphClass: 2
Flags: MW
HStem: -10.292 95.4902 200.55 94.7959<198.695 224.302> 483.976 94.7959<399.499 463.433>
LayerCount: 2
Back
Fore
SplineSet
626.458007812 85.2236328125 m 2
 649.197265625 85.2236328125 661.239257812 62.3251953125 657.845703125 38.173828125 c 0
 654.44921875 14.009765625 635.990234375 -8.8759765625 613.266601562 -8.8759765625 c 2
 613.266601562 -8.8759765625 503.297851562 -9.59765625 332.94140625 -9.59765625 c 0
 300.384765625 -9.59765625 268.780273438 -10.2861328125 239.024414062 -10.2919921875 c 0
 116.633789062 -10.318359375 22.302734375 3.0009765625 41.2578125 137.874023438 c 0
 64.7333984375 304.91015625 162.40234375 295.345703125 234.98828125 295.345703125 c 0
 399.174804688 295.345703125 519.577148438 294.624023438 519.577148438 294.624023438 c 2
 571.395507812 294.624023438 597.89453125 329.334960938 606.188476562 388.348632812 c 0
 620.6171875 491.018554688 527.3671875 483.975585938 399.499023438 483.975585938 c 2
 129.495117188 483.950195312 l 2
 106.755859375 483.950195312 94.7138671875 506.848632812 98.107421875 531 c 0
 101.50390625 555.16796875 119.993164062 578.049804688 142.686523438 578.049804688 c 2
 142.686523438 578.049804688 251.268554688 578.771484375 412.821289062 578.771484375 c 0
 591.353515625 578.771484375 731.877929688 553.557617188 708.65625 388.326171875 c 0
 688.000976562 241.361328125 611.25390625 199.828125 508.94921875 199.828125 c 0
 338.592773438 199.828125 224.301757812 200.549804688 224.301757812 200.549804688 c 2
 119.364257812 200.549804688 144.936523438 146.469726562 143.728515625 137.874023438 c 0
 136.956054688 89.6875 222.827148438 85.1982421875 346.263671875 85.1982421875 c 2
 626.458007812 85.2236328125 l 2
EndSplineSet
EndChar

StartChar: three
Encoding: 51 51 20
Width: 804
GlyphClass: 2
Flags: MW
HStem: -20.1719 94.7959<360.03 473.592 360.03 492.079> 242.945 94.1045 485.976 94.7959<476.079 531.405>
LayerCount: 2
Back
Fore
SplineSet
483.020507812 242.950195312 m 0
 482.659179688 242.950195312 76.2802734375 242.803710938 74.8359375 242.9453125 c 0
 51.322265625 243.821289062 40.5400390625 266.227539062 43.880859375 290 c 0
 47.3095703125 314.39453125 65.82421875 336.412109375 88.3505859375 337.049804688 c 2
 496.2421875 337.049804688 l 2
 520.170898438 337.049804688 532.428710938 312.950195312 529.0625 289 c 0
 525.604492188 264.397460938 505.98828125 242.94921875 483.020507812 242.950195312 c 0
194.130859375 485.950195312 m 2
 171.334960938 485.950195312 159.291992188 508.848632812 162.686523438 533 c 0
 166.083007812 557.1640625 184.541992188 580.049804688 207.322265625 580.049804688 c 2
 207.322265625 580.049804688 320.670898438 580.771484375 489.401367188 580.771484375 c 0
 663.670898438 580.771484375 781.06640625 446.051757812 757.771484375 280.299804688 c 0
 734.4765625 114.547851562 579.213867188 -20.171875 404.944335938 -20.171875 c 0
 236.213867188 -20.171875 123.068359375 -19.4501953125 123.068359375 -19.4501953125 c 2
 100.331054688 -19.4501953125 88.2626953125 3.44921875 91.6572265625 27.599609375 c 0
 95.0537109375 51.767578125 113.518554688 74.6494140625 136.328125 74.6494140625 c 2
 136.328125 74.6494140625 301.79296875 74.6240234375 418.266601562 74.6240234375 c 0
 528.91796875 74.6240234375 639.373046875 166.96484375 655.30078125 280.299804688 c 0
 671.228515625 393.634765625 586.73046875 485.975585938 476.079101562 485.975585938 c 2
 194.130859375 485.950195312 l 2
EndSplineSet
EndChar

StartChar: four
Encoding: 52 52 21
Width: 685
GlyphClass: 2
Flags: MW
HStem: 229.242 94.7822<370.257 370.257> 505.376 84.7861
LayerCount: 2
Back
Fore
SplineSet
421.1171875 590.162109375 m 0
 460.745117188 591.825195312 489.622070312 590.546875 510.872070312 587.587890625 c 0
 570.198242188 579.434570312 571.84765625 555.5078125 569.659179688 547.412109375 c 2
 538.166015625 323.328125 l 1
 612.166015625 323.328125 l 2
 634.905273438 323.328125 646.948242188 300.428710938 643.553710938 276.278320312 c 0
 640.149414062 252.0546875 621.465820312 229.227539062 598.953125 229.228515625 c 2
 598.953125 229.228515625 567.22265625 229.19140625 524.907226562 229.166015625 c 1
 496.635742188 28 l 2
 493.427734375 5.17578125 467.501953125 -10 442.06640625 -10 c 0
 416.577148438 -10 394.515625 5.3466796875 397.701171875 27.99609375 c 2
 397.701171875 27.99609375 410.62109375 120.236328125 425.897460938 229.13671875 c 1
 393.084960938 229.142578125 371.700195312 229.137695312 370.256835938 229.2421875 c 2
 370.256835938 229.2421875 153.092773438 228.686523438 71.7958984375 229.014648438 c 2
 70.71484375 229.01953125 l 1
 69.6962890625 229.252929688 l 2
 61.9248046875 231.040039062 55.6484375 233.4921875 50.7998046875 237.111328125 c 0
 23.5517578125 257.448242188 58.7216796875 293.518554688 80.919921875 320.377929688 c 0
 204.169921875 464.126953125 317.573242188 585.971679688 421.1171875 590.162109375 c 0
384.16015625 324.024414062 m 2
 384.16015625 324.024414062 394.181640625 324.03515625 439.215820312 324.041015625 c 1
 449.666015625 398.46484375 458.7265625 462.872070312 464.80078125 505.877929688 c 1
 447.818359375 505.794921875 432.493164062 505.66015625 409.798828125 505.375976562 c 0
 372.83203125 504.915039062 319.579101562 465.225585938 200.09375 327.688476562 c 1
 218.009765625 324.095703125 276.001953125 324.024414062 384.16015625 324.024414062 c 2
EndSplineSet
AlternateSubs2: "'salt' Stylistic Alternatives in Latin lookup 0 subtable" uniE012
EndChar

StartChar: five
Encoding: 53 53 22
Width: 778
GlyphClass: 2
Flags: MW
HStem: -10.292 94.7959<305.864 371.755 305.864 436.091> 283.855 94.7959<531.907 556.417> 483.281 94.7959<351.568 472.124>
LayerCount: 2
Back
Fore
SplineSet
94.193359375 435.438476562 m 0
 116.93359375 597.247070312 260.91796875 578.077148438 426.6484375 578.077148438 c 0
 597.337890625 578.077148438 706.04296875 577.360351562 707.380859375 577.3515625 c 0
 730.145507812 576.643554688 741.47265625 554.120117188 738.125 530.305664062 c 0
 734.728515625 506.137695312 716.263671875 483.255859375 693.510742188 483.255859375 c 2
 693.510742188 483.255859375 530.921875 483.28125 413.326171875 483.28125 c 0
 289.810546875 483.28125 202.787109375 479.008789062 196.62890625 435.188476562 c 0
 195.658203125 428.28515625 190.948242188 424.5859375 189.37890625 414.6875 c 0
 187.223632812 401.072265625 189.177734375 377.9296875 260.345703125 377.9296875 c 2
 260.345703125 377.9296875 374.83984375 378.651367188 545.196289062 378.651367188 c 0
 647.549804688 378.651367188 712.416015625 335.994140625 691.220703125 185.1796875 c 0
 667.397460938 15.669921875 520.841796875 -10.2919921875 351.33984375 -10.2919921875 c 0
 180.983398438 -10.2919921875 71.2177734375 -9.5703125 71.2177734375 -9.5703125 c 2
 48.537109375 -9.5703125 36.46875 13.3291015625 39.86328125 37.4794921875 c 0
 43.259765625 61.6474609375 61.724609375 84.529296875 84.4775390625 84.529296875 c 2
 84.4775390625 84.529296875 247.06640625 84.50390625 364.662109375 84.50390625 c 0
 378.84765625 84.50390625 392.764648438 84.3857421875 406.278320312 84.3828125 c 0
 507.100585938 84.3623046875 575.348632812 89.822265625 588.75 185.1796875 c 0
 597.493164062 247.39453125 580.92578125 283.85546875 531.907226562 283.85546875 c 2
 531.907226562 283.85546875 417.4140625 283.133789062 247.057617188 283.133789062 c 0
 237.416992188 283.133789062 227.364257812 282.948242188 217.185546875 282.943359375 c 0
 147.998046875 282.91015625 74.462890625 295.048828125 94.193359375 435.438476562 c 0
EndSplineSet
EndChar

StartChar: six
Encoding: 54 54 23
Width: 760
GlyphClass: 2
Flags: MW
HStem: -10 94.7979<326.775 345.111 326.775 345.111> 241.743 95.0342 483.573 94.7959<341.838 460.486>
LayerCount: 2
Back
Fore
SplineSet
168.682617188 381.33984375 m 0
 165.428710938 369.158203125 160.133789062 342.794921875 215.870117188 337.245117188 c 0
 224.740234375 337.107421875 232.982421875 336.943359375 241.447265625 336.943359375 c 0
 297.265625 336.943359375 347.506835938 336.873046875 389.370117188 336.77734375 c 0
 427.7109375 336.873046875 472.852539062 336.943359375 523.119140625 336.943359375 c 0
 535.565429688 336.943359375 548.782226562 337.420898438 562.07421875 337.422851562 c 0
 627.260742188 337.431640625 692.56640625 321.627929688 673.290039062 184.471679688 c 0
 653.553710938 44.041015625 544.41015625 1.6337890625 408.963867188 -7.7109375 c 0
 408.025390625 -8.25390625 408.967773438 -7.736328125 408.017578125 -8.2568359375 c 0
 399.450195312 -12.95703125 386.803710938 -9.9931640625 334.682617188 -10 c 2
 326.775390625 -10 l 2
 276.758789062 -9.9931640625 260.436523438 -10.6298828125 253.310546875 -7.72265625 c 0
 117.986328125 1.609375 22.9736328125 44.1767578125 42.6904296875 184.471679688 c 0
 49.2412109375 231.084960938 61.6650390625 264.063476562 77.435546875 286.971679688 c 1
 65.3525390625 311.778320312 62.4462890625 343.537109375 69.19140625 391.534179688 c 0
 91.5576171875 550.677734375 239.43359375 578.369140625 418.048828125 578.369140625 c 0
 579.6015625 578.369140625 687.98046875 577.647460938 687.98046875 577.647460938 c 2
 710.661132812 577.647460938 722.729492188 554.748046875 719.334960938 530.59765625 c 0
 715.938476562 506.4296875 697.473632812 483.547851562 674.720703125 483.547851562 c 2
 674.720703125 483.547851562 516.245117188 483.573242188 404.7265625 483.573242188 c 0
 278.950195312 483.573242188 181.325195312 460.291015625 171.477539062 390.221679688 c 0
 170.900390625 386.116210938 169.700195312 385.1484375 168.682617188 381.33984375 c 0
222.358398438 241.42578125 m 0
 216.547851562 241.42578125 211.014648438 241.337890625 204.953125 241.229492188 c 0
 133.138671875 234.135742188 146.064453125 190.90234375 145.161132812 184.471679688 c 0
 134.725585938 110.215820312 220.122070312 85.298828125 337.571289062 84.8037109375 c 0
 339.751953125 84.8037109375 341.913085938 84.7978515625 344.053710938 84.7978515625 c 0
 346.168945312 84.7978515625 348.407226562 84.8037109375 350.48828125 84.8037109375 c 0
 468.16015625 85.298828125 560.3828125 110.213867188 570.819335938 184.471679688 c 0
 571.51953125 189.456054688 573.465820312 191.416015625 574.654296875 198.373046875 c 0
 577.26953125 213.69921875 577.814453125 239.955078125 511.650390625 241.74609375 c 0
 507.37109375 241.759765625 461.318359375 241.573242188 402.270507812 241.743164062 c 0
 355.001953125 241.577148438 293.556640625 241.42578125 222.358398438 241.42578125 c 0
EndSplineSet
EndChar

StartChar: seven
Encoding: 55 55 24
Width: 689
GlyphClass: 2
Flags: MW
HStem: -20 21G<531.705 555.892> 485.976 94.7959<358.262 414.149>
LayerCount: 2
Back
Fore
SplineSet
543.801757812 -20 m 0
 519.608398438 -20 498.973632812 -4.7265625 502.08984375 17.97265625 c 2
 502.794921875 23.033203125 l 2
 506.603515625 49.484375 524.475585938 174.561523438 539.3359375 280.299804688 c 0
 555.26171875 393.6171875 470.037109375 485.975585938 358.26171875 485.975585938 c 2
 78.109375 485.950195312 l 2
 55.369140625 485.950195312 43.3271484375 508.848632812 46.7216796875 533 c 0
 50.1181640625 557.16796875 68.607421875 580.049804688 91.30078125 580.049804688 c 2
 91.30078125 580.049804688 201.189453125 580.771484375 371.583984375 580.771484375 c 0
 547.990234375 580.771484375 654.1953125 445.299804688 641.876953125 280.954101562 c 2
 641.838867188 280.456054688 l 1
 596.166992188 17.81640625 l 2
 592.939453125 -4.603515625 567.981445312 -20 543.801757812 -20 c 0
EndSplineSet
EndChar

StartChar: eight
Encoding: 56 56 25
Width: 747
GlyphClass: 2
Flags: MW
HStem: -20 104.806<326.951 339.23 327.234 339.23> 241.625 95.1484 483.57 94.7979<400.856 409.943>
LayerCount: 2
Back
Fore
SplineSet
577.283203125 194.266601562 m 0
 580.638671875 207.569335938 585.6015625 235.458984375 531.205078125 241.168945312 c 0
 524.55859375 241.2890625 517.2578125 241.42578125 510.53125 241.42578125 c 0
 456.921875 241.42578125 408.767578125 241.51171875 368.251953125 241.625 c 0
 327.56640625 241.51171875 279.50390625 241.42578125 225.857421875 241.42578125 c 0
 218.9765625 241.42578125 212.326171875 241.298828125 205.111328125 241.168945312 c 0
 134.109375 233.884765625 146.96875 190.939453125 146.060546875 184.471679688 c 0
 135.638671875 110.323242188 220.62109375 85.369140625 337.830078125 84.8056640625 c 0
 340.630859375 84.8056640625 343.416015625 84.798828125 346.181640625 84.798828125 c 0
 348.916015625 84.798828125 351.796875 84.8056640625 354.482421875 84.8056640625 c 0
 471.943359375 85.3701171875 563.896484375 110.323242188 574.318359375 184.471679688 c 0
 574.931640625 188.83203125 576.18359375 189.913085938 577.283203125 194.266601562 c 0
668.486328125 279.185546875 m 1
 679.279296875 255.173828125 682.08984375 222.186523438 675.3828125 174.471679688 c 0
 655.525390625 33.1826171875 544.951171875 -8.8720703125 408.197265625 -17.8994140625 c 1
 398.4609375 -22.58984375 384.234375 -19.9912109375 337.326171875 -19.9990234375 c 0
 336.787109375 -19.9990234375 336.234375 -20 335.669921875 -20 c 2
 327.234375 -20 l 2
 326.66796875 -20 326.12109375 -19.9990234375 325.578125 -19.9990234375 c 0
 278.1640625 -19.990234375 262.875 -21.9404296875 255.328125 -17.9013671875 c 0
 118.041015625 -8.6650390625 22.3935546875 33.654296875 42.18359375 174.471679688 c 0
 48.94921875 222.604492188 61.94921875 256.174804688 78.513671875 279.18359375 c 1
 67.720703125 303.1953125 64.91015625 336.182617188 71.6171875 383.897460938 c 0
 91.474609375 525.186523438 202.048828125 567.241210938 338.802734375 576.268554688 c 1
 348.5390625 580.958984375 362.765625 578.360351562 409.673828125 578.368164062 c 0
 410.212890625 578.368164062 410.765625 578.369140625 411.330078125 578.369140625 c 2
 419.765625 578.369140625 l 2
 420.33203125 578.369140625 420.87890625 578.368164062 421.421875 578.368164062 c 0
 468.8359375 578.359375 484.125 580.309570312 491.671875 576.270507812 c 0
 628.958984375 567.034179688 724.607421875 524.71484375 704.81640625 383.897460938 c 0
 698.05078125 335.764648438 685.05078125 302.194335938 668.486328125 279.185546875 c 1
523.955078125 336.943359375 m 0
 530.92578125 336.943359375 537.673828125 337.06640625 544.98828125 337.190429688 c 0
 615.65234375 344.041015625 602.37109375 384.076171875 603.234375 390.221679688 c 0
 612.974609375 459.5234375 527.892578125 483.034179688 410.576171875 483.563476562 c 0
 407.7734375 483.563476562 404.990234375 483.5703125 402.224609375 483.5703125 c 0
 399.48828125 483.5703125 396.609375 483.563476562 393.921875 483.563476562 c 0
 276.365234375 483.034179688 184.716796875 459.5234375 174.9765625 390.221679688 c 0
 174.390625 386.047851562 173.142578125 385.046875 172.09375 381.00390625 c 0
 168.888671875 368.663085938 164.05078125 342.564453125 218.314453125 337.190429688 c 0
 225.595703125 337.06640625 232.30859375 336.943359375 239.28125 336.943359375 c 0
 292.86328125 336.943359375 340.94921875 336.872070312 381.580078125 336.7734375 c 0
 422.298828125 336.872070312 470.35546875 336.943359375 523.955078125 336.943359375 c 0
EndSplineSet
EndChar

StartChar: nine
Encoding: 57 57 26
Width: 781
GlyphClass: 2
Flags: MW
HStem: -10 94.7959<314.057 438.57 314.057 451.696> 241.592 95.0342 483.571 94.7979<425.194 443.271>
LayerCount: 2
Back
Fore
SplineSet
612.461914062 193.904296875 m 0
 615.873046875 207.059570312 621.288085938 235.198242188 565.749023438 241.104492188 c 0
 556.896484375 241.25 548.6875 241.42578125 540.2421875 241.42578125 c 0
 484.55078125 241.42578125 434.419921875 241.49609375 392.063476562 241.591796875 c 0
 349.55859375 241.49609375 299.513671875 241.42578125 243.78515625 241.42578125 c 0
 229.974609375 241.42578125 215.326171875 240.927734375 200.6015625 240.926757812 c 0
 134.384765625 240.91796875 68.9482421875 256.234375 87.6748046875 389.482421875 c 0
 106.848632812 525.911132812 215.864257812 567.016601562 357.55078125 576.0859375 c 0
 358.515625 576.618164062 357.614257812 576.147460938 358.58984375 576.658203125 c 0
 367.451171875 581.286132812 380.770507812 578.362304688 435.771484375 578.369140625 c 2
 443.271484375 578.369140625 l 2
 495.975585938 578.362304688 513.193359375 578.979492188 520.567382812 576.096679688 c 0
 662.16796875 567.041015625 757.4296875 525.780273438 738.274414062 389.482421875 c 0
 731.610351562 342.063476562 727.119140625 290.208007812 727.119140625 290.208007812 c 1
 727.095703125 289.94140625 l 1
 727.057617188 289.67578125 l 2
 712.0546875 184.420898438 719.295898438 235.9453125 712.061523438 184.471679688 c 0
 688.791992188 18.90234375 540.83984375 -10 362.552734375 -10 c 0
 183.447265625 -10 72.19921875 -9.2783203125 72.19921875 -9.2783203125 c 2
 49.517578125 -9.2783203125 37.4501953125 13.62109375 40.8447265625 37.771484375 c 0
 44.2412109375 61.939453125 62.705078125 84.8212890625 85.458984375 84.8212890625 c 2
 85.458984375 84.8212890625 252.23828125 84.7958984375 375.875 84.7958984375 c 0
 501.265625 84.7958984375 599.0546875 109.5 609.590820312 184.471679688 c 0
 610.193359375 188.756835938 611.395507812 189.795898438 612.461914062 193.904296875 c 0
556.48046875 336.943359375 m 0
 562.603515625 336.943359375 568.443359375 337.026367188 574.82421875 337.127929688 c 0
 648.5 343.796875 635.060546875 384.198242188 635.907226562 390.221679688 c 0
 645.65234375 459.55859375 556.435546875 483.099609375 432.608398438 483.565429688 c 0
 430.311523438 483.565429688 428.2265625 483.571289062 426.197265625 483.571289062 c 0
 424.19140625 483.571289062 422.026367188 483.565429688 419.827148438 483.565429688 c 0
 295.591796875 483.099609375 199.994140625 459.559570312 190.249023438 390.221679688 c 0
 189.577148438 385.4375 187.655273438 383.661132812 186.534179688 377.172851562 c 0
 184.090820312 363.022460938 183.5703125 338.30859375 252.48828125 336.623046875 c 0
 257.015625 336.609375 305.561523438 336.795898438 367.83203125 336.625976562 c 0
 416.828125 336.791992188 481.51953125 336.943359375 556.48046875 336.943359375 c 0
EndSplineSet
EndChar

StartChar: colon
Encoding: 58 58 27
Width: 233
GlyphClass: 2
Flags: MW
HStem: -10.5 112.5<95.4009 110.589> 172 112.5<121.049 136.237>
VStem: 49.3125 134.398
LayerCount: 2
Back
Fore
SplineSet
74.9609375 228.25 m 0
 79.1572265625 258.103515625 105.482421875 284.5 136.616210938 284.5 c 0
 167.479492188 284.5 187.959960938 258.483398438 183.7109375 228.25 c 0
 179.461914062 198.016601562 151.668945312 172 120.805664062 172 c 0
 89.671875 172 70.765625 198.396484375 74.9609375 228.25 c 0
49.3125 45.75 m 0
 53.5078125 75.603515625 79.833984375 102 110.967773438 102 c 0
 141.831054688 102 162.311523438 75.9833984375 158.0625 45.75 c 0
 153.813476562 15.5166015625 126.020507812 -10.5 95.1572265625 -10.5 c 0
 64.0234375 -10.5 45.1171875 15.896484375 49.3125 45.75 c 0
EndSplineSet
EndChar

StartChar: semicolon
Encoding: 59 59 28
Width: 284
GlyphClass: 2
Flags: MW
HStem: 172 112.5<173.404 188.592>
VStem: 101.667 108.914 127.315 108.75<228 228>
LayerCount: 2
Back
Fore
SplineSet
208.26953125 -27.626953125 m 0xc0
 198.0546875 -49.1826171875 143.609375 -56.1630859375 110.543945312 -60.416015625 c 2
 47.376953125 -68.5390625 l 1
 107.58203125 -41.484375 l 2
 134.311523438 -29.4716796875 149.59375 -24.2060546875 156.8671875 -9.7197265625 c 1
 153.006835938 -10.35546875 150.786132812 -10.5 147.51171875 -10.5 c 0
 116.377929688 -10.5 97.4716796875 15.896484375 101.666992188 45.75 c 0
 105.862304688 75.603515625 132.188476562 102 163.322265625 102 c 0
 195.01953125 102 213.473632812 74.9287109375 210.581054688 47.0283203125 c 1
 212.853515625 26.3017578125 219.478515625 -6.2822265625 208.26953125 -27.626953125 c 0xc0
127.315429688 228.25 m 0xa0
 131.51171875 258.103515625 157.836914062 284.5 188.970703125 284.5 c 0
 219.833984375 284.5 240.314453125 258.483398438 236.065429688 228.25 c 0
 231.81640625 198.016601562 204.0234375 172 173.16015625 172 c 0
 142.026367188 172 123.120117188 198.396484375 127.315429688 228.25 c 0xa0
EndSplineSet
EndChar

StartChar: less
Encoding: 60 60 29
Width: 400
GlyphClass: 2
Flags: MW
HStem: 142.713 74.2451<264.348 282.105> 469.044 74.2432<317.537 320.646>
VStem: 43.1582 313.976
LayerCount: 2
Back
Fore
SplineSet
43.158203125 343 m 0
 46.6845703125 368.0859375 65.4072265625 391.52734375 84.337890625 399.2421875 c 0
 101.47265625 409.8515625 317.479492188 541.911132812 317.568359375 541.96484375 c 2
 319.037109375 542.860351562 l 1
 320.645507812 543.287109375 l 2
 341.543945312 548.841796875 360.338867188 536.399414062 357.133789062 513.58984375 c 0
 354.1171875 492.129882812 333.801757812 474.236328125 317.537109375 469.043945312 c 1
 136.2109375 343 l 1
 282.10546875 216.958007812 l 1
 299.639648438 210.827148438 312.008789062 192.51171875 309.18359375 172.41015625 c 0
 305.98046875 149.619140625 283.692382812 137.15625 264.34765625 142.712890625 c 2
 262.852539062 143.142578125 l 1
 261.63671875 144.0390625 l 1
 261.63671875 144.0390625 79.5390625 278.51171875 68.533203125 286.754882812 c 0
 49.427734375 295.529296875 39.828125 319.3046875 43.158203125 343 c 0
EndSplineSet
EndChar

StartChar: equal
Encoding: 61 61 30
Width: 538
GlyphClass: 2
Flags: MW
HStem: 124 92<74.0693 428.491 95.6484 415.081> 268 92<94.3076 117.662 115.887 117.662 117.662 172.563 115.887 435.446>
LayerCount: 2
Back
Fore
SplineSet
415.081054688 124 m 1
 88.494140625 124 l 2
 59.64453125 124 47.4345703125 144.91796875 50.6787109375 168 c 0
 53.8623046875 190.657226562 69.98046875 207.049804688 93.89453125 215.388671875 c 2
 95.6484375 216 l 1
 428.491210938 216 l 1
 429.505859375 215.7734375 l 2
 456.131835938 209.836914062 470.91796875 193.181640625 465.596679688 167.5 c 0
 461.262695312 142.571289062 442.2578125 127.146484375 415.671875 124.068359375 c 2
 415.081054688 124 l 1
435.446289062 268 m 1
 108.732421875 268 l 2
 79.8828125 268 67.671875 288.91796875 70.916015625 312 c 0
 74.1005859375 334.657226562 90.21875 351.049804688 114.1328125 359.388671875 c 2
 115.88671875 360 l 1
 117.662109375 360 l 2
 227.46484375 360 338.28515625 363.267578125 447.958007812 359.99609375 c 0
 478.07421875 359.09765625 491.421875 338.232421875 487.00390625 312.666015625 c 0
 482.598632812 287.33203125 463.260742188 271.895507812 436.16015625 268.099609375 c 2
 435.446289062 268 l 1
EndSplineSet
EndChar

StartChar: greater
Encoding: 62 62 31
Width: 395
GlyphClass: 2
Flags: MW
HStem: 142.713 74.2432<76.8545 79.9629> 469.042 74.2451<115.395 133.152>
VStem: 40.3662 313.975
LayerCount: 2
Back
Fore
SplineSet
354.340820312 343 m 0
 350.815429688 317.9140625 332.092773438 294.47265625 313.161132812 286.7578125 c 0
 296.02734375 276.1484375 80.01953125 144.088867188 79.931640625 144.03515625 c 2
 78.462890625 143.139648438 l 1
 76.8544921875 142.712890625 l 2
 55.9560546875 137.158203125 37.1611328125 149.600585938 40.3662109375 172.41015625 c 0
 43.3828125 193.870117188 63.6982421875 211.763671875 79.962890625 216.956054688 c 1
 261.288085938 343 l 1
 115.39453125 469.041992188 l 1
 97.8603515625 475.172851562 85.4912109375 493.48828125 88.31640625 513.58984375 c 0
 91.51953125 536.380859375 113.807617188 548.84375 133.15234375 543.287109375 c 2
 134.647460938 542.857421875 l 1
 135.86328125 541.9609375 l 1
 135.86328125 541.9609375 317.9609375 407.48828125 328.966796875 399.245117188 c 0
 348.072265625 390.470703125 357.671875 366.6953125 354.340820312 343 c 0
EndSplineSet
EndChar

StartChar: question
Encoding: 63 63 32
Width: 586
GlyphClass: 2
Flags: MW
HStem: -10 99.5498<183.378 196.91> 288.846 83.8027<266.527 266.527> 506.267 84.3242<303.683 341.174>
LayerCount: 2
Back
Fore
SplineSet
188.732421875 331.111328125 m 0
 192.521484375 354.006835938 208.439453125 372.080078125 228.516601562 372.6484375 c 2
 443.637695312 372.6484375 l 1
 425.83984375 452.134765625 378.665039062 506.266601562 303.682617188 506.266601562 c 2
 71.4794921875 506.245117188 l 2
 50.841796875 506.245117188 40.298828125 526.87890625 43.2822265625 548.107421875 c 0
 46.267578125 569.346679688 62.6240234375 589.970703125 83.212890625 589.970703125 c 2
 83.212890625 589.970703125 176.590820312 590.590820312 315.533203125 590.590820312 c 0
 459.889648438 590.590820312 560.794921875 474.084960938 540.65625 330.78515625 c 0
 537.663085938 309.491210938 521.14453125 288.921875 500.698242188 288.922851562 c 2
 500.698242188 288.922851562 345.829101562 288.828125 266.52734375 288.845703125 c 1
 244.622070312 132.985351562 l 2
 241.72265625 112.348632812 219.198242188 98.9052734375 197.969726562 98.9052734375 c 0
 176.67578125 98.9052734375 158.021484375 112.53125 160.896484375 132.98046875 c 0
 160.931640625 133.233398438 188.475585938 329.9609375 188.732421875 331.111328125 c 0
142.59375 39.7744140625 m 0
 146.297851562 66.126953125 169.541992188 89.5498046875 197.213867188 89.5498046875 c 0
 224.578125 89.5498046875 242.673828125 66.4892578125 238.918945312 39.7744140625 c 0
 235.162109375 13.0419921875 210.596679688 -10 183.223632812 -10 c 0
 155.58984375 -10 138.892578125 13.44140625 142.59375 39.7744140625 c 0
EndSplineSet
EndChar

StartChar: at
Encoding: 64 64 33
Width: 734
GlyphClass: 2
Flags: MW
HStem: -5.16309 94.79 102.771 69.4824<335.97 406.018 335.97 415> 404.408 69.4824<368.598 438.646> 500.971 94.8096
LayerCount: 2
Back
Fore
SplineSet
261.090820312 288.331054688 m 0
 252.552734375 227.580078125 300.9453125 172.25390625 370.994140625 172.25390625 c 0
 441.041015625 172.25390625 504.986328125 227.580078125 513.524414062 288.331054688 c 0
 522.0625 349.08203125 473.669921875 404.408203125 403.62109375 404.408203125 c 0
 333.57421875 404.408203125 269.62890625 349.08203125 261.090820312 288.331054688 c 0
621.682617188 133.826171875 m 0
 618.015625 113.98828125 504.771484375 -6.3203125 305.451171875 -5.1630859375 c 0
 138.716796875 -4.1943359375 21.8427734375 129.551757812 45.138671875 295.30859375 c 0
 68.4287109375 461.026367188 223 595.780273438 389.966796875 595.780273438 c 0
 551.51953125 595.780273438 659.8984375 595.05859375 659.8984375 595.05859375 c 2
 682.579101562 595.05859375 694.647460938 572.159179688 691.252929688 548.008789062 c 0
 688.092773438 525.522460938 672.787109375 507.330078125 655.204101562 502.165039062 c 1
 580.272460938 286.307617188 l 2
 546.528320312 189.102539062 468.770507812 102.771484375 361.228515625 102.771484375 c 0
 254.947265625 102.771484375 179.403320312 185.524414062 193.8515625 288.331054688 c 0
 208.299804688 391.13671875 307.104492188 473.890625 413.385742188 473.890625 c 0
 466.145507812 473.890625 510.610351562 453.2421875 540.875 421.225585938 c 1
 547.157226562 449.140625 513.643554688 484.90625 467.0546875 500.98046875 c 1
 428.608398438 500.982421875 l 2
 399.243164062 500.325195312 380.833984375 499.750976562 374.435546875 500.970703125 c 0
 268.88671875 499.520507812 163.420898438 407.815429688 147.609375 295.30859375 c 0
 131.703125 182.126953125 213.401367188 93.3173828125 319.1796875 89.626953125 c 0
 458.08203125 84.7802734375 552.659179688 183.807617188 556.594726562 187.926757812 c 0
 574.772460938 206.94921875 600.498046875 197.009765625 615.907226562 184.392578125 c 0
 635.24609375 168.55859375 626.157226562 143.575195312 621.682617188 133.826171875 c 0
EndSplineSet
EndChar

StartChar: A
Encoding: 65 65 34
Width: 751
GlyphClass: 2
Flags: MW
HStem: 0 102.471<285.479 379.563> 482.729 102.471<338.922 465.524>
LayerCount: 2
Back
Fore
SplineSet
416.624023438 585.19921875 m 0
 599.114257812 585.19921875 724.02734375 454.583007812 701.256835938 292.565429688 c 2
 662.416015625 19.8251953125 l 2
 659.461914062 -1.1962890625 625.294921875 -1.2861328125 610.610351562 -1.2919921875 c 0
 597.001953125 -1.2978515625 565.32421875 -1.4677734375 568.266601562 19.470703125 c 2
 577.744140625 86.86328125 l 1
 510.364257812 32.283203125 424.74609375 0 334.379882812 0 c 0
 151.889648438 0 26.9765625 130.610351562 49.7421875 292.599609375 c 0
 72.5087890625 454.588867188 234.133789062 585.19921875 416.624023438 585.19921875 c 0
602.529296875 292.599609375 m 0
 616.569335938 392.497070312 528.826171875 482.728515625 402.22265625 482.728515625 c 0
 275.62109375 482.728515625 162.514648438 392.497070312 148.474609375 292.599609375 c 0
 134.434570312 192.701171875 222.177734375 102.470703125 348.78125 102.470703125 c 0
 475.3828125 102.470703125 588.489257812 192.701171875 602.529296875 292.599609375 c 0
EndSplineSet
EndChar

StartChar: B
Encoding: 66 66 35
Width: 750
GlyphClass: 2
Flags: MW
HStem: 0 102.471<284.871 411.474 284.871 425.017> 482.729 102.471<370.832 464.916>
LayerCount: 2
Back
Fore
SplineSet
333.771484375 0 m 0
 151.268554688 0 26.478515625 131.396484375 49.37890625 294.342773438 c 2
 108.126953125 708.731445312 l 2
 111.161132812 730.319335938 145.294921875 730.484375 160.0234375 730.491210938 c 0
 173.631835938 730.497070312 205.309570312 730.666992188 202.3671875 709.728515625 c 2
 172.650390625 498.334960938 l 1
 240.03125 552.916992188 325.6484375 585.19921875 416.015625 585.19921875 c 0
 598.505859375 585.19921875 723.419921875 454.588867188 700.653320312 292.599609375 c 0
 677.887695312 130.610351562 516.26171875 0 333.771484375 0 c 0
147.866210938 292.599609375 m 0
 133.827148438 192.702148438 221.569335938 102.470703125 348.172851562 102.470703125 c 0
 474.774414062 102.470703125 587.881835938 192.702148438 601.920898438 292.599609375 c 0
 615.9609375 392.498046875 528.217773438 482.728515625 401.614257812 482.728515625 c 0
 275.012695312 482.728515625 161.90625 392.498046875 147.866210938 292.599609375 c 0
EndSplineSet
EndChar

StartChar: C
Encoding: 67 67 36
Width: 746
GlyphClass: 2
Flags: MW
HStem: -0.171875 94.7959<276.841 335.812 276.841 403.266> 495.976 94.7959<333.248 447.978>
LayerCount: 2
Back
Fore
SplineSet
41.416015625 295.299804688 m 0
 64.330078125 458.344726562 220.314453125 590.771484375 405.541015625 590.771484375 c 0
 567.439453125 590.771484375 674.717773438 590.0546875 676.083984375 590.045898438 c 0
 698.846679688 589.337890625 710.173828125 566.814453125 706.827148438 543 c 0
 703.430664062 518.83203125 684.965820312 495.950195312 662.212890625 495.950195312 c 2
 662.212890625 495.950195312 503.737304688 495.975585938 392.21875 495.975585938 c 0
 274.276367188 495.975585938 159.412109375 405.770507812 143.88671875 295.299804688 c 0
 128.360351562 184.829101562 217.870117188 94.6240234375 335.8125 94.6240234375 c 2
 605.815429688 94.6494140625 l 2
 628.5546875 94.6494140625 640.59765625 71.7509765625 637.203125 47.599609375 c 0
 633.806640625 23.431640625 615.317382812 0.5498046875 592.624023438 0.5498046875 c 2
 592.624023438 0.5498046875 484.041992188 -0.171875 322.489257812 -0.171875 c 0
 137.262695312 -0.171875 18.5009765625 132.254882812 41.416015625 295.299804688 c 0
EndSplineSet
EndChar

StartChar: D
Encoding: 68 68 37
Width: 788
GlyphClass: 2
Flags: MW
HStem: 0 102.471<276.232 402.835 276.232 416.384> 482.729 102.471<329.675 452.801 316.132 456.277>
LayerCount: 2
Back
Fore
SplineSet
656.029296875 709.728515625 m 2
 658.926757812 730.348632812 689.642578125 730.375 702.927734375 730.486328125 c 0
 717.982421875 730.611328125 753.064453125 730.62109375 749.989257812 708.737304688 c 2
 692.258789062 294.333984375 l 2
 669.359375 131.3984375 507.635742188 0 325.1328125 0 c 0
 142.642578125 0 17.7294921875 130.610351562 40.4951171875 292.599609375 c 0
 63.26171875 454.588867188 224.88671875 585.19921875 407.376953125 585.19921875 c 0
 498.224609375 585.19921875 576.255859375 550.837890625 626.325195312 498.328125 c 1
 656.029296875 709.728515625 l 2
593.282226562 292.599609375 m 0
 607.322265625 392.498046875 519.579101562 482.728515625 392.975585938 482.728515625 c 0
 266.374023438 482.728515625 153.267578125 392.498046875 139.227539062 292.599609375 c 0
 125.188476562 192.702148438 212.930664062 102.470703125 339.534179688 102.470703125 c 0
 466.135742188 102.470703125 579.243164062 192.702148438 593.282226562 292.599609375 c 0
EndSplineSet
EndChar

StartChar: E
Encoding: 69 69 38
Width: 711
GlyphClass: 2
Flags: W
LayerCount: 2
Back
Fore
SplineSet
644.8671875 156.827148438 m 0
 575.193359375 97.1865234375 588.217773438 95.31640625 490.170898438 40.6201171875 c 0
 336.828125 -40.0771484375 124.408203125 -4.1865234375 60.01171875 136.123046875 c 0
 -4.02734375 276.403320312 77.0390625 458.389648438 241.498046875 542.38671875 c 0
 380.74609375 610.743164062 535.991210938 593.6640625 623.534179688 508.827148438 c 0
 632.137695312 499.997070312 648.778320312 486.36328125 660.4140625 471.65625 c 0
 670.782226562 458.067382812 682.118164062 435.647460938 660.9375 418.319335938 c 0
 590.192382812 360.596679688 514.428710938 306.129882812 435.361328125 254.096679688 c 0
 418.385742188 242.708007812 387 237.010742188 371.727539062 259.357421875 c 0
 358.447265625 278.787109375 361.481445312 305.043945312 380.729492188 319.547851562 c 0
 409.227539062 339.63671875 523.896484375 413.092773438 542.2109375 434.369140625 c 1
 461.985351562 472.903320312 375.434570312 501.45703125 282.786132812 453.57421875 c 0
 165.83203125 396.365234375 112.012695312 272.283203125 152.538085938 185.58984375 c 0
 156.140625 178.208984375 160.587890625 171.1328125 165.768554688 164.298828125 c 0
 220.627929688 89.828125 348.97265625 57.404296875 446.34765625 122.73828125 c 2
 585.768554688 214.00390625 l 2
 602.197265625 225.940429688 626.060546875 229.231445312 643.553710938 212.737304688 c 0
 660.58203125 198.861328125 663.818359375 171.430664062 644.8671875 156.827148438 c 0
EndSplineSet
AlternateSubs2: "'salt' Stylistic Alternatives in Latin lookup 0 subtable" uniE00A
EndChar

StartChar: F
Encoding: 70 70 39
Width: 765
GlyphClass: 2
Flags: MW
HStem: 269 94.0996<198.054 224.847 224.644 224.847 224.644 603.657> 495.976 94.7959<355.244 469.975>
LayerCount: 2
Back
Fore
SplineSet
224.643554688 363.099609375 m 0
 225.049804688 363.099609375 615.69140625 363.248046875 617.171875 363.104492188 c 0
 640.685546875 362.228515625 651.469726562 339.822265625 648.12890625 316.049804688 c 0
 644.700195312 291.655273438 626.182617188 269.637695312 603.657226562 269 c 2
 209.950195312 269 l 2
 186.157226562 269 173.725585938 291.8359375 177.12890625 316.049804688 c 0
 180.551757812 340.407226562 200.000976562 363.100585938 224.643554688 363.099609375 c 0
165.750976562 294.364257812 m 0
 151.1484375 190.463867188 134.03515625 66.654296875 130.68359375 42.1806640625 c 0
 130.439453125 40.4814453125 130.236328125 38.9248046875 129.990234375 37.216796875 c 0
 126.790039062 14.9765625 101.88671875 0 77.7109375 0 c 0
 52.849609375 0 33.75 15.8994140625 35.7568359375 36.0419921875 c 0
 36.71484375 44.3896484375 63.2919921875 294.225585938 63.3720703125 294.9765625 c 2
 63.4248046875 295.463867188 l 1
 63.5234375 295.944335938 l 2
 97.0244140625 457.599609375 241.845703125 590.771484375 427.537109375 590.771484375 c 0
 589.08984375 590.771484375 697.46875 590.049804688 697.46875 590.049804688 c 2
 720.150390625 590.049804688 732.217773438 567.150390625 728.823242188 543 c 0
 725.426757812 518.83203125 706.9609375 495.950195312 684.208984375 495.950195312 c 2
 684.208984375 495.950195312 525.734375 495.975585938 414.21484375 495.975585938 c 0
 296.2734375 495.975585938 181.348632812 405.349609375 165.750976562 294.364257812 c 0
EndSplineSet
EndChar

StartChar: G
Encoding: 71 71 40
Width: 746
GlyphClass: 2
Flags: MW
HStem: -0.171875 94.7959<276.841 370.533 276.841 403.266> 495.976 94.7959<333.248 447.978>
LayerCount: 2
Back
Fore
SplineSet
41.416015625 295.299804688 m 0
 64.330078125 458.344726562 220.314453125 590.771484375 405.541015625 590.771484375 c 0
 567.439453125 590.771484375 674.717773438 590.0546875 676.083984375 590.045898438 c 0
 698.846679688 589.337890625 710.173828125 566.814453125 706.827148438 543 c 0
 703.430664062 518.83203125 684.965820312 495.950195312 662.212890625 495.950195312 c 2
 662.212890625 495.950195312 503.737304688 495.975585938 392.21875 495.975585938 c 0
 274.276367188 495.975585938 159.412109375 405.770507812 143.88671875 295.299804688 c 0
 128.360351562 184.829101562 217.870117188 94.6240234375 335.8125 94.6240234375 c 0
 405.252929688 94.6240234375 495.3203125 94.6337890625 549.7109375 94.640625 c 1
 581.165039062 318.599609375 l 2
 584.359375 341.338867188 609.404296875 356.599609375 633.555664062 356.599609375 c 0
 657.72265625 356.599609375 678.461914062 341.348632812 675.264648438 318.599609375 c 2
 637.202148438 47.59375 l 2
 633.791015625 23.4189453125 615.310546875 0.5498046875 592.624023438 0.5498046875 c 2
 592.624023438 0.5498046875 484.041992188 -0.171875 322.489257812 -0.171875 c 0
 137.262695312 -0.171875 18.5009765625 132.254882812 41.416015625 295.299804688 c 0
EndSplineSet
AlternateSubs2: "'salt' Stylistic Alternatives in Latin lookup 0 subtable" uniE003
EndChar

StartChar: H
Encoding: 72 72 41
Width: 706
GlyphClass: 2
Flags: MW
HStem: 400.129 86.3213<359.186 449.049>
LayerCount: 2
Back
Fore
SplineSet
67.72265625 193.758789062 m 0
 68.8251953125 201.607421875 70.1533203125 209.012695312 71.859375 216.713867188 c 0
 94.0068359375 374.598632812 122.995117188 580.438476562 123.025390625 580.653320312 c 0
 127.374023438 604.969726562 151.669921875 618 175.36328125 618 c 0
 199.745117188 618 219.654296875 602.932617188 217.176757812 580.745117188 c 2
 192.842773438 407.600585938 l 1
 252.31640625 456.73828125 317.165039062 486.450195312 401.206054688 486.450195312 c 0
 577.360351562 486.450195312 679.276367188 354.643554688 656.641601562 193.58984375 c 0
 636.151367188 47.794921875 634.208984375 37.8935546875 633.776367188 36.1474609375 c 2
 633.776367188 36.1474609375 604.720703125 0 581.663085938 0 c 0
 557.495117188 0 536.755859375 15.2470703125 539.955078125 38.005859375 c 2
 539.955078125 38.005859375 547.073242188 88.4794921875 562.747070312 200 c 0
 577.732421875 306.629882812 509.024414062 400.12890625 389.07421875 400.12890625 c 0
 273.018554688 400.12890625 184.994140625 312.889648438 165.067382812 209.966796875 c 1
 140.899414062 38 l 2
 137.697265625 15.2158203125 112.361328125 0 88.130859375 0 c 0
 62.8876953125 0 44.7646484375 14.9873046875 46.328125 36.5830078125 c 0
 46.361328125 37.5693359375 47.384765625 49.05078125 67.72265625 193.758789062 c 0
EndSplineSet
AlternateSubs2: "'salt' Stylistic Alternatives in Latin lookup 0 subtable" uniE004
EndChar

StartChar: I
Encoding: 73 73 42
Width: 240
GlyphClass: 2
Flags: MW
VStem: 35.4785 169.126
LayerCount: 2
Back
Fore
SplineSet
110.452148438 561.486328125 m 0
 113.97265625 579.98828125 138.311523438 590 161.51171875 590 c 0
 185.263671875 590 206.354492188 579.067382812 204.604492188 561.845703125 c 2
 129.578125 28 l 2
 127.12890625 10.57421875 102.063476562 0 78.5927734375 0 c 0
 55.0595703125 0 33.0498046875 10.7294921875 35.478515625 28 c 0
 35.5322265625 28.38671875 110.094726562 559.981445312 110.452148438 561.486328125 c 0
EndSplineSet
EndChar

StartChar: J
Encoding: 74 74 43
Width: 765
GlyphClass: 2
Flags: MW
HStem: 0 94.7959<295.026 409.757 295.026 430.31>
LayerCount: 2
Back
Fore
SplineSet
599.25 296.407226562 m 0
 613.852539062 400.307617188 630.965820312 524.1171875 634.317382812 548.590820312 c 0
 634.561523438 550.287109375 634.765625 551.848632812 635.010742188 553.5546875 c 0
 638.2109375 575.794921875 663.112304688 590.771484375 687.290039062 590.771484375 c 0
 712.151367188 590.771484375 731.250976562 574.872070312 729.2421875 554.728515625 c 0
 728.284179688 546.385742188 701.708007812 296.538085938 701.629882812 295.801757812 c 2
 701.577148438 295.313476562 l 1
 701.477539062 294.827148438 l 2
 667.9765625 133.171875 523.155273438 0 337.463867188 0 c 0
 175.911132812 0 67.5322265625 0.7216796875 67.5322265625 0.7216796875 c 2
 44.8505859375 0.7216796875 32.783203125 23.62109375 36.177734375 47.771484375 c 0
 39.57421875 71.939453125 58.0380859375 94.8212890625 80.7919921875 94.8212890625 c 2
 80.7919921875 94.8212890625 239.266601562 94.7958984375 350.786132812 94.7958984375 c 0
 468.727539062 94.7958984375 583.65234375 185.421875 599.25 296.407226562 c 0
EndSplineSet
EndChar

StartChar: K
Encoding: 75 75 44
Width: 630
GlyphClass: 2
Flags: W
LayerCount: 2
Back
Fore
SplineSet
113.424804688 589.486328125 m 0
 116.946289062 607.98828125 141.28515625 618 164.485351562 618 c 0
 188.225585938 618 209.346679688 607.26171875 207.578125 589.845703125 c 2
 149.87109375 179.240234375 l 1
 189.84375 231.09765625 238.123046875 290.733398438 282.684570312 345.6953125 c 1
 283.90625 358.333984375 293.250976562 366.1484375 303.434570312 370.779296875 c 1
 303.639648438 370.250976562 456.458984375 563.47265625 479.625 589.650390625 c 0
 496.412109375 607.529296875 528.80078125 618 557.09375 618 c 0
 567.715820312 618 576.544921875 616.548828125 583.53515625 613.34765625 c 0
 596.521484375 606.704101562 599.883789062 592.717773438 589.71484375 579.647460938 c 2
 404.8828125 342.177734375 l 1
 425.891601562 300.396484375 546.03125 41.4453125 547.499023438 38.1875 c 2
 547.565429688 38.0380859375 l 1
 547.578125 37.5751953125 l 2
 549.276367188 31.8916015625 549.911132812 25.6083984375 549.124023438 19.3466796875 c 0
 547.583984375 5.1796875 524.796875 0 504.084960938 0 c 0
 475.578125 0 445.890625 11.208984375 436.310546875 28.1025390625 c 2
 328.0859375 245.182617188 l 1
 153.250976562 28.033203125 l 2
 138.913085938 11.1298828125 106.036132812 0 77.630859375 0 c 0
 59.169921875 0 45.3857421875 5.1806640625 40.3349609375 13.46875 c 0
 35.2451171875 18.6337890625 33.7490234375 22.541015625 34.5166015625 28 c 0
 34.5703125 28.3876953125 113.06640625 587.979492188 113.424804688 589.486328125 c 0
EndSplineSet
EndChar

StartChar: L
Encoding: 76 76 45
Width: 683
GlyphClass: 2
Flags: MW
HStem: 0 94.7959<279.233 338.204 279.233 405.659>
LayerCount: 2
Back
Fore
SplineSet
141.110351562 590.771484375 m 0
 165.303710938 590.771484375 185.979492188 575.799804688 182.927734375 553.549804688 c 2
 182.237304688 548.588867188 l 2
 178.500976562 522.66015625 160.9765625 400.0546875 146.41015625 296.407226562 c 0
 130.8125 185.421875 220.262695312 94.7958984375 338.204101562 94.7958984375 c 2
 608.208007812 94.8212890625 l 2
 630.948242188 94.8212890625 642.990234375 71.9228515625 639.595703125 47.771484375 c 0
 636.19921875 23.603515625 617.709960938 0.7216796875 595.016601562 0.7216796875 c 2
 595.016601562 0.7216796875 486.436523438 0 324.881835938 0 c 0
 139.190429688 0 31.80078125 133.172851562 43.7392578125 294.827148438 c 2
 43.7763671875 295.31640625 l 1
 88.8349609375 553.583984375 l 2
 92.005859375 575.631835938 116.932617188 590.771484375 141.110351562 590.771484375 c 0
EndSplineSet
EndChar

StartChar: M
Encoding: 77 77 46
Width: 1114
GlyphClass: 2
Flags: MW
HStem: 488.129 102.471<318.878 433.955 784.334 882.163>
LayerCount: 2
Back
Fore
SplineSet
839.041992188 590.599609375 m 0
 1009.80664062 590.599609375 1089.80078125 457.78515625 1067.33203125 297.911132812 c 0
 1045.32714844 141.340820312 1030.02441406 37.548828125 1029.82617188 36.201171875 c 0
 1025.98925781 13.96484375 1001.43847656 0 977.69140625 0 c 0
 953.607421875 0 932.693359375 14.591796875 935.787109375 36.6025390625 c 2
 935.787109375 36.6025390625 957.208007812 188.84375 972.264648438 295.973632812 c 0
 986.861328125 399.834960938 939.684570312 488.12890625 824.640625 488.12890625 c 0
 709.580078125 488.12890625 636.76171875 399.815429688 622.16796875 295.973632812 c 2
 585.740234375 36.6005859375 l 2
 582.64453125 14.5732421875 557.499023438 0 531.548828125 0 c 0
 506.87890625 0 485.309570312 14.5361328125 488.411132812 36.6025390625 c 2
 488.411132812 36.6025390625 509.833007812 188.84375 524.889648438 295.973632812 c 0
 539.483398438 399.815429688 491.484375 488.12890625 376.42578125 488.12890625 c 0
 261.331054688 488.12890625 188.350585938 399.758789062 173.764648438 295.973632812 c 2
 137.336914062 36.6005859375 l 2
 134.24609375 14.6025390625 109.2109375 0 85.14453125 0 c 0
 61.046875 0 40.1630859375 14.720703125 43.2646484375 36.794921875 c 2
 43.2646484375 36.794921875 57.2861328125 141.692382812 79.2421875 297.911132812 c 0
 101.717773438 457.837890625 220.069335938 590.599609375 390.827148438 590.599609375 c 0
 500.890625 590.599609375 556.962890625 532.209960938 595.375 451.426757812 c 1
 658.342773438 534.657226562 729.626953125 590.599609375 839.041992188 590.599609375 c 0
EndSplineSet
EndChar

StartChar: N
Encoding: 78 78 47
Width: 746
GlyphClass: 2
Flags: MW
HStem: 488.129 102.471<356.44 476.497>
LayerCount: 2
Back
Fore
SplineSet
430.870117188 590.599609375 m 0
 605.680664062 590.599609375 722.920898438 459.522460938 700.208007812 297.911132812 c 0
 678.203125 141.340820312 662.899414062 37.5498046875 662.701171875 36.2001953125 c 0
 658.864257812 13.96484375 634.313476562 0 610.567382812 0 c 0
 586.483398438 0 565.568359375 14.591796875 568.662109375 36.6025390625 c 2
 568.662109375 36.6025390625 590.083007812 188.84375 605.139648438 295.973632812 c 0
 619.391601562 397.383789062 536.525390625 488.12890625 416.46875 488.12890625 c 0
 296.412109375 488.12890625 188.040039062 397.383789062 173.788085938 295.973632812 c 2
 137.360351562 36.6005859375 l 2
 134.26953125 14.6025390625 109.232421875 0 85.1669921875 0 c 0
 61.0703125 0 40.1865234375 14.720703125 43.2880859375 36.794921875 c 2
 43.2880859375 36.794921875 57.30859375 141.692382812 79.2646484375 297.911132812 c 0
 101.977539062 459.522460938 256.059570312 590.599609375 430.870117188 590.599609375 c 0
EndSplineSet
EndChar

StartChar: O
Encoding: 79 79 48
Width: 748
GlyphClass: 2
Flags: MW
HStem: 0 102.471<283.978 410.58 283.978 424.123> 482.729 102.471<337.42 464.022>
LayerCount: 2
Back
Fore
SplineSet
601.02734375 292.599609375 m 0
 615.067382812 392.497070312 527.32421875 482.728515625 400.720703125 482.728515625 c 0
 274.119140625 482.728515625 161.012695312 392.497070312 146.97265625 292.599609375 c 0
 132.932617188 192.701171875 220.67578125 102.470703125 347.279296875 102.470703125 c 0
 473.880859375 102.470703125 586.987304688 192.701171875 601.02734375 292.599609375 c 0
699.759765625 292.599609375 m 0
 676.994140625 130.610351562 515.368164062 0 332.877929688 0 c 0
 150.387695312 0 25.474609375 130.610351562 48.240234375 292.599609375 c 0
 71.0068359375 454.588867188 232.631835938 585.19921875 415.122070312 585.19921875 c 0
 597.612304688 585.19921875 722.526367188 454.588867188 699.759765625 292.599609375 c 0
EndSplineSet
EndChar

StartChar: P
Encoding: 80 80 49
Width: 790
GlyphClass: 2
Flags: MW
HStem: 0 102.471<333.528 456.654 330.052 470.197> 482.729 102.471<383.494 510.097>
LayerCount: 2
Back
Fore
SplineSet
135.640625 -86.529296875 m 2
 132.743164062 -107.149414062 102.02734375 -107.17578125 88.7421875 -107.287109375 c 0
 73.6875 -107.412109375 38.60546875 -107.421875 41.6806640625 -85.5390625 c 2
 94.134765625 291.321289062 l 2
 116.999023438 454.008789062 278.696289062 585.19921875 461.196289062 585.19921875 c 0
 643.686523438 585.19921875 768.600585938 454.588867188 745.833984375 292.599609375 c 0
 723.068359375 130.610351562 561.442382812 0 378.952148438 0 c 0
 288.104492188 0 210.073242188 34.3623046875 160.00390625 86.8701171875 c 1
 135.640625 -86.529296875 l 2
193.046875 292.599609375 m 0
 179.006835938 192.701171875 266.75 102.470703125 393.353515625 102.470703125 c 0
 519.955078125 102.470703125 633.061523438 192.701171875 647.1015625 292.599609375 c 0
 661.141601562 392.497070312 573.3984375 482.728515625 446.794921875 482.728515625 c 0
 320.193359375 482.728515625 207.086914062 392.497070312 193.046875 292.599609375 c 0
EndSplineSet
EndChar

StartChar: Q
Encoding: 81 81 50
Width: 751
GlyphClass: 2
Flags: MW
HStem: 0 102.471<285.556 379.64> 482.729 102.471<338.998 465.601>
LayerCount: 2
Back
Fore
SplineSet
416.700195312 585.19921875 m 0
 599.200195312 585.19921875 724.022460938 454.010742188 701.157226562 291.310546875 c 2
 647.685546875 -85.5322265625 l 2
 644.651367188 -107.120117188 610.517578125 -107.28515625 595.7890625 -107.291992188 c 0
 582.180664062 -107.297851562 550.502929688 -107.467773438 553.4453125 -86.529296875 c 2
 577.821289062 86.86328125 l 1
 510.440429688 32.2822265625 424.823242188 0 334.456054688 0 c 0
 151.965820312 0 27.052734375 130.610351562 49.818359375 292.599609375 c 0
 72.5849609375 454.588867188 234.209960938 585.19921875 416.700195312 585.19921875 c 0
602.60546875 292.599609375 m 0
 616.645507812 392.497070312 528.90234375 482.728515625 402.298828125 482.728515625 c 0
 275.697265625 482.728515625 162.590820312 392.497070312 148.55078125 292.599609375 c 0
 134.510742188 192.701171875 222.25390625 102.470703125 348.857421875 102.470703125 c 0
 475.458984375 102.470703125 588.565429688 192.701171875 602.60546875 292.599609375 c 0
EndSplineSet
EndChar

StartChar: R
Encoding: 82 82 51
Width: 765
GlyphClass: 2
Flags: MW
HStem: 495.976 94.7959<355.244 469.975>
LayerCount: 2
Back
Fore
SplineSet
165.750976562 294.364257812 m 0
 151.1484375 190.463867188 134.03515625 66.654296875 130.68359375 42.1806640625 c 0
 130.439453125 40.4814453125 130.236328125 38.9248046875 129.990234375 37.216796875 c 0
 126.790039062 14.9765625 101.88671875 0 77.7109375 0 c 0
 52.849609375 0 33.75 15.8994140625 35.7568359375 36.0419921875 c 0
 36.71484375 44.3896484375 63.2919921875 294.225585938 63.3720703125 294.9765625 c 2
 63.4248046875 295.463867188 l 1
 63.5234375 295.944335938 l 2
 97.0244140625 457.599609375 241.845703125 590.771484375 427.537109375 590.771484375 c 0
 589.08984375 590.771484375 697.46875 590.049804688 697.46875 590.049804688 c 2
 720.150390625 590.049804688 732.217773438 567.150390625 728.823242188 543 c 0
 725.426757812 518.83203125 706.9609375 495.950195312 684.208984375 495.950195312 c 2
 684.208984375 495.950195312 525.734375 495.975585938 414.21484375 495.975585938 c 0
 296.2734375 495.975585938 181.348632812 405.349609375 165.750976562 294.364257812 c 0
EndSplineSet
EndChar

StartChar: S
Encoding: 83 83 52
Width: 767
GlyphClass: 2
Flags: MW
HStem: 0 94.7959<293.718 412.366 293.718 425.472> 242.146 94.7979<514.262 514.262> 493.573 94.7959<347.707 466.094>
LayerCount: 2
Back
Fore
SplineSet
179.385742188 378.96484375 m 0
 177.111328125 363.776367188 177.844726562 336.534179688 246.4375 336.217773438 c 0
 248.611328125 336.231445312 361.768554688 336.943359375 531.846679688 336.943359375 c 0
 544.973632812 336.943359375 558.907226562 337.44140625 572.918945312 337.442382812 c 0
 638.596679688 337.451171875 704.02734375 322.127929688 685.296875 188.857421875 c 0
 662.69140625 28.0107421875 514.788085938 0 336.155273438 0 c 0
 174.602539062 0 66.2236328125 0.7216796875 66.2236328125 0.7216796875 c 2
 43.54296875 0.7216796875 31.474609375 23.62109375 34.869140625 47.771484375 c 0
 38.265625 71.939453125 56.73046875 94.8212890625 79.4833984375 94.8212890625 c 2
 79.4833984375 94.8212890625 237.958984375 94.7958984375 349.477539062 94.7958984375 c 0
 475.25390625 94.7958984375 572.87890625 118.078125 582.7265625 188.147460938 c 0
 583.423828125 193.109375 585.6328125 195.258789062 586.654296875 202.561523438 c 0
 588.567382812 216.21875 587.80859375 242.237304688 515.762695312 242.147460938 c 2
 514.26171875 242.145507812 l 1
 513.622070312 242.318359375 l 2
 504.8203125 244.076171875 383.775390625 241.42578125 231.0859375 241.42578125 c 0
 218.642578125 241.42578125 205.422851562 240.927734375 192.127929688 240.926757812 c 0
 126.940429688 240.91796875 61.6357421875 256.723632812 80.9140625 393.897460938 c 0
 104.1796875 559.436523438 251.043945312 588.369140625 420.626953125 588.369140625 c 0
 590.958984375 588.369140625 700.77734375 587.647460938 700.77734375 587.647460938 c 2
 723.458007812 587.647460938 735.525390625 564.748046875 732.130859375 540.59765625 c 0
 728.734375 516.4296875 710.26953125 493.547851562 687.516601562 493.547851562 c 2
 687.516601562 493.547851562 524.883789062 493.573242188 407.3046875 493.573242188 c 0
 288.108398438 493.573242188 193.930664062 468.932617188 183.384765625 393.897460938 c 0
 182.666015625 388.78125 180.521484375 386.548828125 179.385742188 378.96484375 c 0
EndSplineSet
AlternateSubs2: "'salt' Stylistic Alternatives in Latin lookup 0 subtable" uniE016
EndChar

StartChar: T
Encoding: 84 84 53
Width: 625
GlyphClass: 2
Flags: MW
HStem: 498.901 91.1484<70.4287 302.733>
LayerCount: 2
Back
Fore
SplineSet
70.4287109375 498.901367188 m 2
 70.4287109375 498.901367188 36.1826171875 522.029296875 39.3369140625 544.473632812 c 0
 42.666015625 568.158203125 61.1474609375 589.435546875 83.6015625 590.049804688 c 2
 302.733398438 590.049804688 l 2
 309.461914062 591.625976562 313.279296875 592 319.016601562 592 c 0
 324.62890625 592 332.415039062 590.598632812 334.680664062 590.049804688 c 2
 553.7421875 590.049804688 l 2
 576.413085938 590.049804688 588.6328125 567.922851562 585.336914062 544.473632812 c 0
 582.03125 520.953125 563.391601562 498.895507812 540.935546875 498.896484375 c 2
 540.935546875 498.896484375 457.059570312 498.859375 356.13671875 498.833007812 c 1
 291.206054688 36.826171875 l 2
 288.077148438 14.5654296875 261.389648438 0 235.81640625 0 c 0
 210.158203125 0 187.676757812 14.765625 190.77734375 36.822265625 c 2
 190.77734375 36.822265625 236.63671875 364.13671875 255.62109375 498.8125 c 1
 148.52734375 498.796875 73.458984375 498.6328125 70.4287109375 498.901367188 c 2
EndSplineSet
EndChar

StartChar: U
Encoding: 85 85 54
Width: 741
GlyphClass: 2
Flags: MW
HStem: 0 102.471<267.002 387.059 267.002 400.034>
LayerCount: 2
Back
Fore
SplineSet
606.138671875 553.999023438 m 2
 609.23046875 575.997070312 634.266601562 590.599609375 658.33203125 590.599609375 c 0
 682.424804688 590.599609375 703.317382812 575.908203125 700.2109375 553.8046875 c 2
 700.2109375 553.8046875 686.190429688 448.907226562 664.235351562 292.688476562 c 0
 641.522460938 131.077148438 487.439453125 0 312.62890625 0 c 0
 137.818359375 0 20.5791015625 131.077148438 43.2919921875 292.688476562 c 0
 65.2470703125 448.907226562 80.7109375 553.8046875 80.7109375 553.8046875 c 2
 83.8115234375 575.866210938 108.853515625 590.599609375 132.931640625 590.599609375 c 0
 157.015625 590.599609375 177.930664062 576.0078125 174.837890625 553.997070312 c 2
 174.837890625 553.997070312 153.416015625 401.755859375 138.360351562 294.625976562 c 0
 124.107421875 193.215820312 206.973632812 102.470703125 327.030273438 102.470703125 c 0
 447.086914062 102.470703125 555.458984375 193.215820312 569.711914062 294.625976562 c 2
 606.138671875 553.999023438 l 2
EndSplineSet
EndChar

StartChar: V
Encoding: 86 86 55
Width: 608
GlyphClass: 2
Flags: MW
VStem: 41 93.9844
LayerCount: 2
Back
Fore
SplineSet
129.884765625 31.8095703125 m 1
 41 552.327148438 l 2
 40.4560546875 555.876953125 40.3876953125 559.743164062 40.8173828125 563.322265625 c 0
 42.6025390625 579.190429688 61.27734375 590 82.55859375 590 c 0
 107.403320312 590 129.279296875 577.119140625 134.984375 558.155273438 c 0
 135.220703125 557.330078125 196.420898438 223.092773438 220.556640625 95.5576171875 c 1
 326.227539062 108.01171875 422.303710938 192.697265625 436.646484375 294.75 c 0
 451.54296875 400.75 469 526.997070312 472.426757812 552.001953125 c 0
 472.67578125 553.735351562 472.883789062 555.323242188 473.133789062 557.06640625 c 0
 475.978515625 576.77734375 500.641601562 590.049804688 524.818359375 590.049804688 c 0
 549.678710938 590.049804688 569.0390625 575.998046875 567.360351562 558.196289062 c 0
 566.383789062 549.713867188 539.240234375 295.84375 539.158203125 295.081054688 c 2
 539.104492188 294.583984375 l 1
 539.002929688 294.095703125 l 2
 505.510742188 132.474609375 361.254882812 -0.7216796875 181.69921875 -0.7216796875 c 0
 133.782226562 -0.7216796875 133.837890625 24.0361328125 130.133789062 31.2734375 c 2
 129.884765625 31.8095703125 l 1
EndSplineSet
AlternateSubs2: "'salt' Stylistic Alternatives in Latin lookup 0 subtable" uniE015
EndChar

StartChar: W
Encoding: 87 87 56
Width: 1109
GlyphClass: 2
Flags: MW
HStem: 0 102.471<229.337 327.166 677.545 792.622>
LayerCount: 2
Back
Fore
SplineSet
272.458007812 0 m 0
 101.693359375 0 21.7001953125 132.814453125 44.1689453125 292.688476562 c 0
 66.173828125 449.258789062 81.4765625 553.05078125 81.6748046875 554.3984375 c 0
 85.51171875 576.634765625 110.061523438 590.599609375 133.80859375 590.599609375 c 0
 157.892578125 590.599609375 178.806640625 576.0078125 175.713867188 553.997070312 c 2
 175.713867188 553.997070312 154.291992188 401.755859375 139.236328125 294.625976562 c 0
 124.639648438 190.764648438 171.815429688 102.470703125 286.859375 102.470703125 c 0
 401.919921875 102.470703125 474.73828125 190.784179688 489.333007812 294.625976562 c 2
 525.759765625 553.999023438 l 2
 528.85546875 576.026367188 554.000976562 590.599609375 579.951171875 590.599609375 c 0
 604.62109375 590.599609375 626.190429688 576.063476562 623.08984375 553.997070312 c 2
 623.08984375 553.997070312 601.666992188 401.755859375 586.611328125 294.625976562 c 0
 572.016601562 190.784179688 620.015625 102.470703125 735.07421875 102.470703125 c 0
 850.168945312 102.470703125 923.150390625 190.840820312 937.736328125 294.625976562 c 2
 974.163085938 553.999023438 l 2
 977.254882812 575.997070312 1002.2890625 590.599609375 1026.35546875 590.599609375 c 0
 1050.453125 590.599609375 1071.33789062 575.87890625 1068.23535156 553.8046875 c 2
 1068.23535156 553.8046875 1054.21386719 448.907226562 1032.25878906 292.688476562 c 0
 1009.78222656 132.76171875 891.430664062 0 720.672851562 0 c 0
 610.609375 0 554.537109375 58.3896484375 516.125976562 139.172851562 c 1
 453.158203125 55.9423828125 381.873046875 0 272.458007812 0 c 0
EndSplineSet
EndChar

StartChar: X
Encoding: 88 88 57
Width: 735
GlyphClass: 2
Flags: W
LayerCount: 2
Back
Fore
SplineSet
43.9599609375 42.4814453125 m 1
 42.435546875 40.9501953125 l 1
 42.435546875 40.9501953125 42.953125 41.470703125 43.955078125 42.4775390625 c 2
 43.9599609375 42.4814453125 l 1
621.432617188 41.01171875 m 0
 624.928710938 29.37890625 624.918945312 26.7626953125 623.821289062 18.6201171875 c 0
 622.068359375 4.853515625 599.658203125 0 579.286132812 0 c 0
 549.987304688 0 521.803710938 12.32421875 511.471679688 28.5166015625 c 2
 357.8046875 224.8828125 l 1
 148.950195312 28.51953125 l 2
 132.299804688 10.3828125 101.189453125 0 73.1181640625 0 c 0
 61.77734375 0 52.439453125 1.6376953125 45.267578125 5.322265625 c 0
 33.505859375 12.2421875 31.115234375 25.6962890625 40.572265625 37.8037109375 c 2
 43.955078125 42.4775390625 l 2
 58.8046875 57.21484375 180.43359375 177.71875 304.670898438 295.073242188 c 1
 112.912109375 550.3046875 l 1
 112.97265625 553.223632812 l 2
 111.224609375 559.7734375 110.856445312 564.490234375 111.547851562 570.451171875 c 0
 112.80859375 584.745117188 135.321289062 590 156.037109375 590 c 0
 185.3359375 590 213.530273438 577.649414062 223.83203125 561.495117188 c 0
 227.75 556.272460938 299.920898438 463.9765625 377.52734375 365.217773438 c 1
 488.37890625 469.12109375 581.013671875 556.275390625 586.39453125 561.4921875 c 0
 602.99609375 579.581054688 634.134765625 590 662.205078125 590 c 0
 673.254882812 590 682.364257812 588.459960938 689.438476562 584.971679688 c 0
 702.227539062 577.869140625 703.23828125 563.7734375 694.791992188 552.567382812 c 1
 694.169921875 550.3046875 l 1
 430.6640625 295.073242188 l 1
 529.310546875 167.966796875 618.926757812 44.4677734375 621.432617188 41.01171875 c 0
621.432617188 41.01171875 m 2
 621.46484375 40.958984375 621.481445312 40.9296875 621.484375 40.92578125 c 2
 621.430664062 41.001953125 l 1
 621.432617188 41.01171875 l 2
EndSplineSet
EndChar

StartChar: Y
Encoding: 89 89 58
Width: 699
GlyphClass: 2
Flags: MW
HStem: -65.3223 94.7959<218.449 336.262 218.449 348.839> 105.128 85.3428<253.42 343.546>
LayerCount: 2
Back
Fore
SplineSet
634.698242188 396.487304688 m 0
 633.59375 388.625 632.263671875 381.20703125 630.555664062 373.491210938 c 0
 608.709960938 217.763671875 604.838867188 189.702148438 604.346679688 187.430664062 c 2
 604.346679688 187.430664062 602.856445312 174.033203125 602.7265625 173.088867188 c 0
 579.37890625 3.1796875 433.33984375 -65.322265625 264.338867188 -65.322265625 c 0
 151.578125 -65.322265625 132.237304688 -67.591796875 124.139648438 -63.154296875 c 0
 104.39453125 -56.8134765625 97.775390625 -38.2978515625 100.69140625 -17.55078125 c 0
 104.100585938 6.7060546875 123.119140625 29.4990234375 147.087890625 29.4990234375 c 2
 147.087890625 29.4990234375 159.236328125 29.4736328125 277.662109375 29.4736328125 c 0
 394.861328125 29.4736328125 493.474609375 65.3701171875 508.458007812 171.982421875 c 2
 510.169921875 184.178710938 l 1
 451.248046875 135.356445312 385.690429688 105.127929688 301.401367188 105.127929688 c 0
 125.249023438 105.127929688 23.2939453125 236.66796875 45.8828125 397.3984375 c 0
 66.33203125 542.899414062 68.271484375 552.779296875 68.7041015625 554.5234375 c 2
 68.7041015625 554.5234375 97.75 590.599609375 120.806640625 590.599609375 c 0
 144.974609375 590.599609375 165.713867188 575.352539062 162.515625 552.59375 c 2
 162.515625 552.59375 155.396484375 502.120117188 139.723632812 390.599609375 c 0
 124.737304688 283.969726562 193.4453125 190.470703125 313.395507812 190.470703125 c 0
 429.451171875 190.470703125 517.475585938 277.709960938 537.40234375 380.6328125 c 1
 561.571289062 552.599609375 l 2
 564.7734375 575.383789062 590.108398438 590.599609375 614.338867188 590.599609375 c 0
 639.5859375 590.599609375 657.701171875 575.583007812 656.133789062 553.953125 c 0
 656.100585938 552.966796875 655.073242188 541.461914062 634.698242188 396.487304688 c 0
EndSplineSet
AlternateSubs2: "'salt' Stylistic Alternatives in Latin lookup 0 subtable" uniE00D
EndChar

StartChar: Z
Encoding: 90 90 59
Width: 742
GlyphClass: 2
Flags: MW
HStem: 0 94.7959<286.406 349.294 286.406 416.748> 242.147 94.7959 242.154 10<225.3 226.722> 493.573 94.7959<403.557 463.156>
LayerCount: 2
Back
Fore
SplineSet
335.971679688 0 m 0xd0
 157.337890625 0 17.30859375 28.009765625 39.9140625 188.857421875 c 0
 62.755859375 351.381835938 160.418945312 336.943359375 234.989257812 336.943359375 c 0
 405.328125 336.943359375 519.590820312 336.221679688 519.590820312 336.221679688 c 2
 613.909179688 335.9765625 598.627929688 387.98046875 599.458984375 393.897460938 c 0
 610.004882812 468.93359375 522.754882812 493.573242188 403.556640625 493.573242188 c 2
 123.334960938 493.547851562 l 2
 100.595703125 493.547851562 88.5537109375 516.446289062 91.947265625 540.59765625 c 0
 95.3447265625 564.765625 113.833984375 587.647460938 136.52734375 587.647460938 c 2
 136.52734375 587.647460938 246.546875 588.369140625 416.87890625 588.369140625 c 0
 586.462890625 588.369140625 725.1953125 559.439453125 701.9296875 393.897460938 c 0
 678.416992188 226.596679688 580.861328125 241.42578125 508.90234375 241.42578125 c 0
 374.209960938 241.42578125 266.243164062 242.014648438 234.295898438 242.134765625 c 0
 231.225585938 242.138671875 227.939453125 242.142578125 224.426757812 242.147460938 c 0
 127.147460938 242.271484375 143.05859375 193.647460938 142.28515625 188.147460938 c 0
 132.4375 118.078125 223.517578125 94.7958984375 349.293945312 94.7958984375 c 2
 619.297851562 94.8212890625 l 2
 642.037109375 94.8212890625 654.080078125 71.9228515625 650.685546875 47.771484375 c 0
 647.2890625 23.603515625 628.799804688 0.7216796875 606.106445312 0.7216796875 c 2
 606.106445312 0.7216796875 497.524414062 0 335.971679688 0 c 0xd0
225.299804688 242.154296875 m 1xb0
 225.440429688 243.154296875 226.721679688 252.154296875 226.721679688 252.154296875 c 2
 226.72265625 252.154296875 228.942382812 252.146484375 232.436523438 252.146484375 c 1
 232.295898438 251.146484375 231.158203125 243.146484375 231.013671875 242.146484375 c 0
 228.189453125 242.155273438 226.276367188 242.154296875 225.299804688 242.154296875 c 1xb0
EndSplineSet
AlternateSubs2: "'salt' Stylistic Alternatives in Latin lookup 0 subtable" uniE017
EndChar

StartChar: bracketleft
Encoding: 91 91 60
Width: 372
GlyphClass: 2
Flags: MW
HStem: -10.1719 94.7959<213.977 214.418 214.418 214.418> 495.976 94.7959<234.583 296.482>
LayerCount: 2
Back
Fore
SplineSet
298.43359375 590.771484375 m 2
 128.037109375 590.771484375 72.119140625 450.4921875 49.60546875 290.299804688 c 0
 27.091796875 130.108398438 43.5830078125 -10.171875 213.9765625 -10.171875 c 2
 214.41796875 -10.171875 l 1
 214.862304688 -10.0947265625 l 2
 248.365234375 -4.283203125 256.822265625 24.3095703125 258.686523438 37.57421875 c 0
 262.083007812 61.7373046875 250.046875 84.6240234375 227.299804688 84.6240234375 c 0
 126.2421875 84.6240234375 134.98828125 168.7109375 152.076171875 290.299804688 c 0
 169.1640625 411.888671875 184.0546875 495.975585938 285.111328125 495.975585938 c 0
 307.852539062 495.975585938 326.328125 518.868164062 329.723632812 543.025390625 c 0
 331.624023438 556.546875 331.3046875 580.997070312 299.8046875 590.571289062 c 2
 299.147460938 590.771484375 l 1
 298.43359375 590.771484375 l 2
EndSplineSet
EndChar

StartChar: backslash
Encoding: 92 92 61
Width: 309
GlyphClass: 2
Flags: W
LayerCount: 2
Back
Fore
SplineSet
43.572265625 586.6640625 m 2
 42.9072265625 590.006835938 42.7763671875 593.096679688 43.12109375 596.243164062 c 0
 45.201171875 615.23046875 64.2509765625 628 85.5556640625 628 c 0
 110.7265625 628 131.698242188 613.396484375 137.4296875 593.610351562 c 0
 138.206054688 591.25390625 265.278320312 31.5498046875 265.302734375 31.4375 c 0
 266.095703125 27.9501953125 266.266601562 24.400390625 265.82421875 20.990234375 c 0
 263.411132812 2.4052734375 244.188476562 -10 223.34375 -10 c 0
 199.043945312 -10 176.067382812 4.2880859375 171.459960938 24.546875 c 2
 43.572265625 586.6640625 l 2
EndSplineSet
EndChar

StartChar: bracketright
Encoding: 93 93 62
Width: 371
GlyphClass: 2
Flags: MW
HStem: -10.1719 94.7959<72.6104 136.904 72.6104 136.904> 495.976 94.5957<156.081 156.081 156.081 194.715>
LayerCount: 2
Back
Fore
SplineSet
157.508789062 590.771484375 m 2
 327.905273438 590.771484375 344.393554688 450.4921875 321.879882812 290.299804688 c 0
 299.366210938 130.108398438 243.4453125 -10.171875 73.0517578125 -10.171875 c 2
 72.6103515625 -10.171875 l 1
 72.1875 -10.0947265625 l 2
 40.3193359375 -4.283203125 39.8974609375 24.3095703125 41.76171875 37.57421875 c 0
 45.158203125 61.7373046875 63.6279296875 84.6240234375 86.375 84.6240234375 c 0
 187.432617188 84.6240234375 202.321289062 168.7109375 219.409179688 290.299804688 c 0
 236.497070312 411.888671875 245.243164062 495.975585938 144.186523438 495.975585938 c 0
 121.4453125 495.975585938 109.403320312 518.868164062 112.798828125 543.025390625 c 0
 114.69921875 556.546875 121.891601562 580.997070312 156.081054688 590.571289062 c 2
 156.794921875 590.771484375 l 1
 157.508789062 590.771484375 l 2
EndSplineSet
EndChar

StartChar: asciicircum
Encoding: 94 94 63
Width: 499
GlyphClass: 2
Flags: MW
HStem: 484 290<63.1421 298.427 274.037 427.123>
VStem: 375.857 75.2734<517.336 524.662>
LayerCount: 2
Back
Fore
SplineSet
285.883789062 774 m 0
 310.970703125 774 332.244140625 758.571289062 337.450195312 740.724609375 c 0
 345.861328125 725.080078125 450.170898438 527.633789062 450.213867188 527.552734375 c 2
 450.921875 526.208007812 l 1
 451.130859375 524.662109375 l 2
 453.857421875 504.543945312 438.528320312 484 415.716796875 484 c 0
 394.256835938 484 378.866210938 501.80078125 375.857421875 517.3359375 c 1
 272.806640625 680.947265625 l 1
 123.771484375 517.338867188 l 1
 115.0546875 498.943359375 94.6396484375 484 74.537109375 484 c 0
 51.7470703125 484 42.1708984375 504.537109375 50.5546875 524.662109375 c 2
 51.2021484375 526.215820312 l 1
 52.2900390625 527.559570312 l 1
 52.2900390625 527.559570312 215.008789062 728.556640625 224.962890625 740.720703125 c 0
 236.594726562 761.059570312 262.189453125 774 285.883789062 774 c 0
EndSplineSet
EndChar

StartChar: underscore
Encoding: 95 95 64
Width: 892
GlyphClass: 2
Flags: MW
HStem: -143.01 94.1055
LayerCount: 2
Back
Fore
SplineSet
102.977539062 -143.009765625 m 0
 79.458984375 -142.1328125 68.673828125 -119.7265625 72.0146484375 -95.9541015625 c 0
 75.4423828125 -71.560546875 94.064453125 -49.5380859375 116.484375 -48.904296875 c 2
 788.626953125 -48.904296875 l 2
 811.366210938 -48.904296875 823.408203125 -71.8037109375 820.014648438 -95.9541015625 c 0
 816.610351562 -120.177734375 797.934570312 -143.004882812 775.404296875 -143.00390625 c 0
 775.029296875 -143.00390625 104.431640625 -143.149414062 102.977539062 -143.009765625 c 0
EndSplineSet
EndChar

StartChar: grave
Encoding: 96 96 65
Width: 238
GlyphClass: 2
Flags: MW
HStem: 597.5 112.5<102.46 105.434 78.8521 119.897>
VStem: 131.154 59.3428
LayerCount: 2
Back
Fore
SplineSet
190.497070312 584.81640625 m 0
 190.298828125 558.529296875 131.103515625 551.3125 103.942382812 547.595703125 c 2
 55.9638671875 541.03125 l 1
 99.892578125 566.0078125 l 2
 124.833984375 580.186523438 134 581.114257812 131.154296875 599.370117188 c 1
 126.481445312 597.997070312 122.284179688 597.5 117.509765625 597.5 c 0
 87.41015625 597.5 59.580078125 621.46875 50.44140625 649.5234375 c 0
 47.7080078125 657.9140625 46.794921875 666.295898438 47.9072265625 674.28515625 c 0
 50.736328125 694.624023438 67.517578125 710 90.1865234375 710 c 0
 120.680664062 710 148.688476562 685.359375 158.221679688 658.828125 c 1
 170.678710938 637.188476562 191.796875 606.899414062 190.497070312 584.81640625 c 0
EndSplineSet
EndChar

StartChar: a
Encoding: 97 97 66
Width: 751
GlyphClass: 2
Flags: MW
HStem: 0 102.471<285.479 379.563> 482.729 102.471<338.922 465.524>
LayerCount: 2
Back
Fore
SplineSet
416.624023438 585.19921875 m 0
 599.114257812 585.19921875 724.02734375 454.583007812 701.256835938 292.565429688 c 2
 662.416015625 19.8251953125 l 2
 659.461914062 -1.1962890625 625.294921875 -1.2861328125 610.610351562 -1.2919921875 c 0
 597.001953125 -1.2978515625 565.32421875 -1.4677734375 568.266601562 19.470703125 c 2
 577.744140625 86.86328125 l 1
 510.364257812 32.283203125 424.74609375 0 334.379882812 0 c 0
 151.889648438 0 26.9765625 130.610351562 49.7421875 292.599609375 c 0
 72.5087890625 454.588867188 234.133789062 585.19921875 416.624023438 585.19921875 c 0
602.529296875 292.599609375 m 0
 616.569335938 392.497070312 528.826171875 482.728515625 402.22265625 482.728515625 c 0
 275.62109375 482.728515625 162.514648438 392.497070312 148.474609375 292.599609375 c 0
 134.434570312 192.701171875 222.177734375 102.470703125 348.78125 102.470703125 c 0
 475.3828125 102.470703125 588.489257812 192.701171875 602.529296875 292.599609375 c 0
EndSplineSet
EndChar

StartChar: b
Encoding: 98 98 67
Width: 750
GlyphClass: 2
Flags: MW
HStem: 0 102.471<284.871 411.474 284.871 425.017> 482.729 102.471<370.832 464.916>
LayerCount: 2
Back
Fore
SplineSet
333.771484375 0 m 0
 151.268554688 0 26.478515625 131.396484375 49.37890625 294.342773438 c 2
 108.126953125 708.731445312 l 2
 111.161132812 730.319335938 145.294921875 730.484375 160.0234375 730.491210938 c 0
 173.631835938 730.497070312 205.309570312 730.666992188 202.3671875 709.728515625 c 2
 172.650390625 498.334960938 l 1
 240.03125 552.916992188 325.6484375 585.19921875 416.015625 585.19921875 c 0
 598.505859375 585.19921875 723.419921875 454.588867188 700.653320312 292.599609375 c 0
 677.887695312 130.610351562 516.26171875 0 333.771484375 0 c 0
147.866210938 292.599609375 m 0
 133.827148438 192.702148438 221.569335938 102.470703125 348.172851562 102.470703125 c 0
 474.774414062 102.470703125 587.881835938 192.702148438 601.920898438 292.599609375 c 0
 615.9609375 392.498046875 528.217773438 482.728515625 401.614257812 482.728515625 c 0
 275.012695312 482.728515625 161.90625 392.498046875 147.866210938 292.599609375 c 0
EndSplineSet
EndChar

StartChar: c
Encoding: 99 99 68
Width: 745
GlyphClass: 2
Flags: MW
HStem: -0.171875 94.7959<277.294 336.32 277.294 403.773> 485.976 94.7959<325.232 439.984>
LayerCount: 2
Back
Fore
SplineSet
41.220703125 290.299804688 m 0
 63.751953125 450.615234375 218.609375 580.771484375 394.495117188 580.771484375 c 0
 565.224609375 580.771484375 673.84765625 580.0546875 675.185546875 580.045898438 c 0
 697.950195312 579.337890625 709.276367188 556.814453125 705.9296875 533 c 0
 702.533203125 508.83203125 684.068359375 485.950195312 661.315429688 485.950195312 c 2
 661.315429688 485.950195312 498.795898438 485.975585938 381.172851562 485.975585938 c 0
 269.291015625 485.975585938 158.828125 398.004882812 143.69140625 290.299804688 c 0
 128.567382812 182.686523438 218.268554688 94.6240234375 336.3203125 94.6240234375 c 2
 606.323242188 94.6494140625 l 2
 629.0625 94.6494140625 641.10546875 71.7509765625 637.7109375 47.599609375 c 0
 634.314453125 23.431640625 615.825195312 0.5498046875 593.131835938 0.5498046875 c 2
 593.131835938 0.5498046875 484.549804688 -0.171875 322.997070312 -0.171875 c 0
 137.846679688 -0.171875 18.68359375 129.94140625 41.220703125 290.299804688 c 0
EndSplineSet
EndChar

StartChar: d
Encoding: 100 100 69
Width: 788
GlyphClass: 2
Flags: MW
HStem: 0 102.471<276.232 402.835 276.232 416.384> 482.729 102.471<329.675 452.801 316.132 456.277>
LayerCount: 2
Back
Fore
SplineSet
656.029296875 709.728515625 m 2
 658.926757812 730.348632812 689.642578125 730.375 702.927734375 730.486328125 c 0
 717.982421875 730.611328125 753.064453125 730.62109375 749.989257812 708.737304688 c 2
 692.258789062 294.333984375 l 2
 669.359375 131.3984375 507.635742188 0 325.1328125 0 c 0
 142.642578125 0 17.7294921875 130.610351562 40.4951171875 292.599609375 c 0
 63.26171875 454.588867188 224.88671875 585.19921875 407.376953125 585.19921875 c 0
 498.224609375 585.19921875 576.255859375 550.837890625 626.325195312 498.328125 c 1
 656.029296875 709.728515625 l 2
593.282226562 292.599609375 m 0
 607.322265625 392.498046875 519.579101562 482.728515625 392.975585938 482.728515625 c 0
 266.374023438 482.728515625 153.267578125 392.498046875 139.227539062 292.599609375 c 0
 125.188476562 192.702148438 212.930664062 102.470703125 339.534179688 102.470703125 c 0
 466.135742188 102.470703125 579.243164062 192.702148438 593.282226562 292.599609375 c 0
EndSplineSet
EndChar

StartChar: e
Encoding: 101 101 70
Width: 711
GlyphClass: 2
Flags: W
LayerCount: 2
Back
Fore
SplineSet
644.8671875 156.827148438 m 0
 575.193359375 97.1865234375 588.217773438 95.31640625 490.170898438 40.6201171875 c 0
 336.828125 -40.0771484375 124.408203125 -4.1865234375 60.01171875 136.123046875 c 0
 -4.02734375 276.403320312 77.0390625 458.389648438 241.498046875 542.38671875 c 0
 380.74609375 610.743164062 535.991210938 593.6640625 623.534179688 508.827148438 c 0
 632.137695312 499.997070312 648.778320312 486.36328125 660.4140625 471.65625 c 0
 670.782226562 458.067382812 682.118164062 435.647460938 660.9375 418.319335938 c 0
 590.192382812 360.596679688 514.428710938 306.129882812 435.361328125 254.096679688 c 0
 418.385742188 242.708007812 387 237.010742188 371.727539062 259.357421875 c 0
 358.447265625 278.787109375 361.481445312 305.043945312 380.729492188 319.547851562 c 0
 409.227539062 339.63671875 523.896484375 413.092773438 542.2109375 434.369140625 c 1
 461.985351562 472.903320312 375.434570312 501.45703125 282.786132812 453.57421875 c 0
 165.83203125 396.365234375 112.012695312 272.283203125 152.538085938 185.58984375 c 0
 156.140625 178.208984375 160.587890625 171.1328125 165.768554688 164.298828125 c 0
 220.627929688 89.828125 348.97265625 57.404296875 446.34765625 122.73828125 c 2
 585.768554688 214.00390625 l 2
 602.197265625 225.940429688 626.060546875 229.231445312 643.553710938 212.737304688 c 0
 660.58203125 198.861328125 663.818359375 171.430664062 644.8671875 156.827148438 c 0
EndSplineSet
AlternateSubs2: "'salt' Stylistic Alternatives in Latin lookup 0 subtable" uniE00A
EndChar

StartChar: f
Encoding: 102 102 71
Width: 763
GlyphClass: 2
Flags: MW
HStem: 269 94.0996<197.79 223.105 222.909 223.105 222.909 603.394> 485.976 94.7959<346.466 461.209>
LayerCount: 2
Back
Fore
SplineSet
222.909179688 363.099609375 m 0
 223.301757812 363.099609375 615.4296875 363.248046875 616.908203125 363.104492188 c 0
 640.421875 362.228515625 651.206054688 339.822265625 647.865234375 316.049804688 c 0
 644.436523438 291.655273438 625.918945312 269.637695312 603.393554688 269 c 2
 209.686523438 269 l 2
 185.893554688 269 173.461914062 291.8359375 176.865234375 316.049804688 c 0
 180.279296875 340.33984375 199.336914062 363.100585938 222.909179688 363.099609375 c 0
164.666992188 288.526367188 m 0
 150.359375 186.720703125 133.596679688 65.4072265625 130.314453125 41.42578125 c 0
 130.075195312 39.763671875 129.875976562 38.2373046875 129.634765625 36.5615234375 c 0
 126.474609375 14.6171875 101.5390625 0 77.447265625 0 c 0
 52.65625 0 33.447265625 15.576171875 35.4189453125 35.5 c 0
 36.35546875 43.7041015625 62.328125 289.240234375 62.40625 289.978515625 c 2
 62.458984375 290.465820312 l 1
 62.5576171875 290.946289062 l 2
 95.6796875 449.877929688 239.381835938 580.771484375 415.719726562 580.771484375 c 0
 586.114257812 580.771484375 695.799804688 580.049804688 695.799804688 580.049804688 c 2
 718.481445312 580.049804688 730.548828125 557.150390625 727.154296875 533 c 0
 723.7578125 508.83203125 705.291992188 485.950195312 682.540039062 485.950195312 c 2
 682.540039062 485.950195312 520.020507812 485.975585938 402.397460938 485.975585938 c 0
 290.534179688 485.975585938 179.943359375 397.225585938 164.666992188 288.526367188 c 0
EndSplineSet
EndChar

StartChar: g
Encoding: 103 103 72
Width: 745
GlyphClass: 2
Flags: MW
HStem: -0.171875 94.7959<277.294 371.041 277.294 403.773> 485.976 94.7959<325.232 439.984>
LayerCount: 2
Back
Fore
SplineSet
41.220703125 290.299804688 m 0
 63.751953125 450.615234375 218.609375 580.771484375 394.495117188 580.771484375 c 0
 565.224609375 580.771484375 673.84765625 580.0546875 675.185546875 580.045898438 c 0
 697.950195312 579.337890625 709.276367188 556.814453125 705.9296875 533 c 0
 702.533203125 508.83203125 684.068359375 485.950195312 661.315429688 485.950195312 c 2
 661.315429688 485.950195312 498.795898438 485.975585938 381.172851562 485.975585938 c 0
 269.291015625 485.975585938 158.828125 398.004882812 143.69140625 290.299804688 c 0
 128.567382812 182.686523438 218.268554688 94.6240234375 336.3203125 94.6240234375 c 0
 405.760742188 94.6240234375 495.828125 94.6337890625 550.21875 94.640625 c 1
 581.672851562 318.599609375 l 2
 584.8671875 341.338867188 609.912109375 356.599609375 634.063476562 356.599609375 c 0
 658.23046875 356.599609375 678.969726562 341.348632812 675.772460938 318.599609375 c 2
 637.709960938 47.59375 l 2
 634.298828125 23.4189453125 615.818359375 0.5498046875 593.131835938 0.5498046875 c 2
 593.131835938 0.5498046875 484.549804688 -0.171875 322.997070312 -0.171875 c 0
 137.846679688 -0.171875 18.68359375 129.94140625 41.220703125 290.299804688 c 0
EndSplineSet
AlternateSubs2: "'salt' Stylistic Alternatives in Latin lookup 0 subtable" uniE003
EndChar

StartChar: h
Encoding: 104 104 73
Width: 706
GlyphClass: 2
Flags: MW
HStem: 400.129 85.8164<359.137 449.072>
LayerCount: 2
Back
Fore
SplineSet
67.69140625 193.3828125 m 0
 68.79296875 201.21484375 70.1181640625 208.60546875 71.822265625 216.291992188 c 0
 93.92578125 373.865234375 122.858398438 579.302734375 122.887695312 579.513671875 c 0
 127.325195312 604.498046875 151.627929688 618 175.385742188 618 c 0
 199.767578125 618 219.642578125 602.688476562 217.115234375 580.142578125 c 2
 192.806640625 407.177734375 l 1
 252.272460938 456.264648438 317.116210938 485.9453125 401.157226562 485.9453125 c 0
 577.311523438 485.9453125 679.247070312 354.275390625 656.635742188 193.389648438 c 0
 636.166992188 47.74609375 634.2265625 37.8544921875 633.793945312 36.1103515625 c 2
 633.793945312 36.1103515625 604.743164062 0 581.685546875 0 c 0
 557.517578125 0 536.778320312 15.2470703125 539.977539062 38.005859375 c 2
 539.977539062 38.005859375 547.095703125 88.4794921875 562.76953125 200 c 0
 577.754882812 306.629882812 509.046875 400.12890625 389.096679688 400.12890625 c 0
 273.041015625 400.12890625 185.016601562 312.889648438 165.08984375 209.966796875 c 1
 140.921875 38 l 2
 137.719726562 15.2158203125 112.383789062 0 88.1533203125 0 c 0
 62.9140625 0 44.783203125 14.9560546875 46.3408203125 36.513671875 c 0
 46.373046875 37.5009765625 47.39453125 48.95703125 67.69140625 193.3828125 c 0
EndSplineSet
AlternateSubs2: "'salt' Stylistic Alternatives in Latin lookup 0 subtable" uniE004
EndChar

StartChar: i
Encoding: 105 105 74
Width: 240
GlyphClass: 2
Flags: MW
VStem: 35.4785 169.126
LayerCount: 2
Back
Fore
SplineSet
110.452148438 561.486328125 m 0
 113.97265625 579.98828125 138.311523438 590 161.51171875 590 c 0
 185.263671875 590 206.354492188 579.067382812 204.604492188 561.845703125 c 2
 129.578125 28 l 2
 127.12890625 10.57421875 102.063476562 0 78.5927734375 0 c 0
 55.0595703125 0 33.0498046875 10.7294921875 35.478515625 28 c 0
 35.5322265625 28.38671875 110.094726562 559.981445312 110.452148438 561.486328125 c 0
EndSplineSet
EndChar

StartChar: j
Encoding: 106 106 75
Width: 763
GlyphClass: 2
Flags: MW
HStem: 0 94.7959<294.694 409.47 294.694 429.941>
LayerCount: 2
Back
Fore
SplineSet
598.333007812 292.245117188 m 0
 612.640625 394.05078125 629.403320312 515.364257812 632.685546875 539.345703125 c 0
 632.924804688 541.004882812 633.124023438 542.536132812 633.365234375 544.209960938 c 0
 636.525390625 566.154296875 661.4609375 580.771484375 685.552734375 580.771484375 c 0
 710.34375 580.771484375 729.552734375 565.1953125 727.581054688 545.270507812 c 0
 726.643554688 537.071289062 700.670898438 291.5234375 700.594726562 290.799804688 c 2
 700.541992188 290.311523438 l 1
 700.442382812 289.825195312 l 2
 667.310546875 130.850585938 522.750976562 0 337.131835938 0 c 0
 175.579101562 0 67.2001953125 0.7216796875 67.2001953125 0.7216796875 c 2
 44.5185546875 0.7216796875 32.451171875 23.62109375 35.845703125 47.771484375 c 0
 39.2421875 71.939453125 57.7060546875 94.8212890625 80.4599609375 94.8212890625 c 2
 80.4599609375 94.8212890625 238.934570312 94.7958984375 350.454101562 94.7958984375 c 0
 468.485351562 94.7958984375 583.069335938 183.637695312 598.333007812 292.245117188 c 0
EndSplineSet
EndChar

StartChar: k
Encoding: 107 107 76
Width: 630
GlyphClass: 2
Flags: W
LayerCount: 2
Back
Fore
SplineSet
113.424804688 589.486328125 m 0
 116.946289062 607.98828125 141.28515625 618 164.485351562 618 c 0
 188.225585938 618 209.346679688 607.26171875 207.578125 589.845703125 c 2
 149.87109375 179.240234375 l 1
 189.84375 231.09765625 238.123046875 290.733398438 282.684570312 345.6953125 c 1
 283.90625 358.333984375 293.250976562 366.1484375 303.434570312 370.779296875 c 1
 303.639648438 370.250976562 456.458984375 563.47265625 479.625 589.650390625 c 0
 496.412109375 607.529296875 528.80078125 618 557.09375 618 c 0
 567.715820312 618 576.544921875 616.548828125 583.53515625 613.34765625 c 0
 596.521484375 606.704101562 599.883789062 592.717773438 589.71484375 579.647460938 c 2
 404.8828125 342.177734375 l 1
 425.891601562 300.396484375 546.03125 41.4453125 547.499023438 38.1875 c 2
 547.565429688 38.0380859375 l 1
 547.578125 37.5751953125 l 2
 549.276367188 31.8916015625 549.911132812 25.6083984375 549.124023438 19.3466796875 c 0
 547.583984375 5.1796875 524.796875 0 504.084960938 0 c 0
 475.578125 0 445.890625 11.208984375 436.310546875 28.1025390625 c 2
 328.0859375 245.182617188 l 1
 153.250976562 28.033203125 l 2
 138.913085938 11.1298828125 106.036132812 0 77.630859375 0 c 0
 59.169921875 0 45.3857421875 5.1806640625 40.3349609375 13.46875 c 0
 35.2451171875 18.6337890625 33.7490234375 22.541015625 34.5166015625 28 c 0
 34.5703125 28.3876953125 113.06640625 587.979492188 113.424804688 589.486328125 c 0
EndSplineSet
EndChar

StartChar: l
Encoding: 108 108 77
Width: 684
GlyphClass: 2
Flags: MW
HStem: 0 94.7959<280.011 339.027 280.011 406.481>
LayerCount: 2
Back
Fore
SplineSet
140.52734375 580.771484375 m 0
 164.635742188 580.771484375 185.446289062 566.159179688 182.4375 544.204101562 c 2
 181.760742188 539.342773438 l 2
 178.096679688 513.935546875 160.921875 393.802734375 146.6484375 292.245117188 c 0
 131.384765625 183.637695312 220.995117188 94.7958984375 339.02734375 94.7958984375 c 2
 609.03125 94.8212890625 l 2
 631.770507812 94.8212890625 643.813476562 71.9228515625 640.418945312 47.771484375 c 0
 637.022460938 23.603515625 618.533203125 0.7216796875 595.83984375 0.7216796875 c 2
 595.83984375 0.7216796875 487.2578125 0 325.705078125 0 c 0
 140.083984375 0 32.3046875 130.850585938 43.859375 289.825195312 c 2
 43.89453125 290.314453125 l 1
 88.330078125 544.143554688 l 2
 91.4677734375 565.940429688 116.421875 580.771484375 140.52734375 580.771484375 c 0
EndSplineSet
EndChar

StartChar: m
Encoding: 109 109 78
Width: 1114
GlyphClass: 2
Flags: MW
HStem: 488.129 102.471<318.878 433.955 784.334 882.163>
LayerCount: 2
Back
Fore
SplineSet
839.041992188 590.599609375 m 0
 1009.80664062 590.599609375 1089.80078125 457.78515625 1067.33203125 297.911132812 c 0
 1045.32714844 141.340820312 1030.02441406 37.548828125 1029.82617188 36.201171875 c 0
 1025.98925781 13.96484375 1001.43847656 0 977.69140625 0 c 0
 953.607421875 0 932.693359375 14.591796875 935.787109375 36.6025390625 c 2
 935.787109375 36.6025390625 957.208007812 188.84375 972.264648438 295.973632812 c 0
 986.861328125 399.834960938 939.684570312 488.12890625 824.640625 488.12890625 c 0
 709.580078125 488.12890625 636.76171875 399.815429688 622.16796875 295.973632812 c 2
 585.740234375 36.6005859375 l 2
 582.64453125 14.5732421875 557.499023438 0 531.548828125 0 c 0
 506.87890625 0 485.309570312 14.5361328125 488.411132812 36.6025390625 c 2
 488.411132812 36.6025390625 509.833007812 188.84375 524.889648438 295.973632812 c 0
 539.483398438 399.815429688 491.484375 488.12890625 376.42578125 488.12890625 c 0
 261.331054688 488.12890625 188.350585938 399.758789062 173.764648438 295.973632812 c 2
 137.336914062 36.6005859375 l 2
 134.24609375 14.6025390625 109.2109375 0 85.14453125 0 c 0
 61.046875 0 40.1630859375 14.720703125 43.2646484375 36.794921875 c 2
 43.2646484375 36.794921875 57.2861328125 141.692382812 79.2421875 297.911132812 c 0
 101.717773438 457.837890625 220.069335938 590.599609375 390.827148438 590.599609375 c 0
 500.890625 590.599609375 556.962890625 532.209960938 595.375 451.426757812 c 1
 658.342773438 534.657226562 729.626953125 590.599609375 839.041992188 590.599609375 c 0
EndSplineSet
EndChar

StartChar: n
Encoding: 110 110 79
Width: 746
GlyphClass: 2
Flags: MW
HStem: 488.129 102.471<356.44 476.497>
LayerCount: 2
Back
Fore
SplineSet
430.870117188 590.599609375 m 0
 605.680664062 590.599609375 722.920898438 459.522460938 700.208007812 297.911132812 c 0
 678.203125 141.340820312 662.899414062 37.5498046875 662.701171875 36.2001953125 c 0
 658.864257812 13.96484375 634.313476562 0 610.567382812 0 c 0
 586.483398438 0 565.568359375 14.591796875 568.662109375 36.6025390625 c 2
 568.662109375 36.6025390625 590.083007812 188.84375 605.139648438 295.973632812 c 0
 619.391601562 397.383789062 536.525390625 488.12890625 416.46875 488.12890625 c 0
 296.412109375 488.12890625 188.040039062 397.383789062 173.788085938 295.973632812 c 2
 137.360351562 36.6005859375 l 2
 134.26953125 14.6025390625 109.232421875 0 85.1669921875 0 c 0
 61.0703125 0 40.1865234375 14.720703125 43.2880859375 36.794921875 c 2
 43.2880859375 36.794921875 57.30859375 141.692382812 79.2646484375 297.911132812 c 0
 101.977539062 459.522460938 256.059570312 590.599609375 430.870117188 590.599609375 c 0
EndSplineSet
EndChar

StartChar: o
Encoding: 111 111 80
Width: 748
GlyphClass: 2
Flags: MW
HStem: 0 102.471<283.978 410.58 283.978 424.123> 482.729 102.471<337.42 464.022>
LayerCount: 2
Back
Fore
SplineSet
601.02734375 292.599609375 m 0
 615.067382812 392.497070312 527.32421875 482.728515625 400.720703125 482.728515625 c 0
 274.119140625 482.728515625 161.012695312 392.497070312 146.97265625 292.599609375 c 0
 132.932617188 192.701171875 220.67578125 102.470703125 347.279296875 102.470703125 c 0
 473.880859375 102.470703125 586.987304688 192.701171875 601.02734375 292.599609375 c 0
699.759765625 292.599609375 m 0
 676.994140625 130.610351562 515.368164062 0 332.877929688 0 c 0
 150.387695312 0 25.474609375 130.610351562 48.240234375 292.599609375 c 0
 71.0068359375 454.588867188 232.631835938 585.19921875 415.122070312 585.19921875 c 0
 597.612304688 585.19921875 722.526367188 454.588867188 699.759765625 292.599609375 c 0
EndSplineSet
EndChar

StartChar: p
Encoding: 112 112 81
Width: 790
GlyphClass: 2
Flags: MW
HStem: 0 102.471<333.528 456.654 330.052 470.197> 482.729 102.471<383.494 510.097>
LayerCount: 2
Back
Fore
SplineSet
135.640625 -86.529296875 m 2
 132.743164062 -107.149414062 102.02734375 -107.17578125 88.7421875 -107.287109375 c 0
 73.6875 -107.412109375 38.60546875 -107.421875 41.6806640625 -85.5390625 c 2
 94.134765625 291.321289062 l 2
 116.999023438 454.008789062 278.696289062 585.19921875 461.196289062 585.19921875 c 0
 643.686523438 585.19921875 768.600585938 454.588867188 745.833984375 292.599609375 c 0
 723.068359375 130.610351562 561.442382812 0 378.952148438 0 c 0
 288.104492188 0 210.073242188 34.3623046875 160.00390625 86.8701171875 c 1
 135.640625 -86.529296875 l 2
193.046875 292.599609375 m 0
 179.006835938 192.701171875 266.75 102.470703125 393.353515625 102.470703125 c 0
 519.955078125 102.470703125 633.061523438 192.701171875 647.1015625 292.599609375 c 0
 661.141601562 392.497070312 573.3984375 482.728515625 446.794921875 482.728515625 c 0
 320.193359375 482.728515625 207.086914062 392.497070312 193.046875 292.599609375 c 0
EndSplineSet
EndChar

StartChar: q
Encoding: 113 113 82
Width: 751
GlyphClass: 2
Flags: MW
HStem: 0 102.471<285.556 379.64> 482.729 102.471<338.998 465.601>
LayerCount: 2
Back
Fore
SplineSet
416.700195312 585.19921875 m 0
 599.200195312 585.19921875 724.022460938 454.010742188 701.157226562 291.310546875 c 2
 647.685546875 -85.5322265625 l 2
 644.651367188 -107.120117188 610.517578125 -107.28515625 595.7890625 -107.291992188 c 0
 582.180664062 -107.297851562 550.502929688 -107.467773438 553.4453125 -86.529296875 c 2
 577.821289062 86.86328125 l 1
 510.440429688 32.2822265625 424.823242188 0 334.456054688 0 c 0
 151.965820312 0 27.052734375 130.610351562 49.818359375 292.599609375 c 0
 72.5849609375 454.588867188 234.209960938 585.19921875 416.700195312 585.19921875 c 0
602.60546875 292.599609375 m 0
 616.645507812 392.497070312 528.90234375 482.728515625 402.298828125 482.728515625 c 0
 275.697265625 482.728515625 162.590820312 392.497070312 148.55078125 292.599609375 c 0
 134.510742188 192.701171875 222.25390625 102.470703125 348.857421875 102.470703125 c 0
 475.458984375 102.470703125 588.565429688 192.701171875 602.60546875 292.599609375 c 0
EndSplineSet
EndChar

StartChar: r
Encoding: 114 114 83
Width: 763
GlyphClass: 2
Flags: MW
HStem: 485.976 94.7959<346.466 461.209>
LayerCount: 2
Back
Fore
SplineSet
164.666992188 288.526367188 m 0
 150.359375 186.720703125 133.596679688 65.4072265625 130.314453125 41.42578125 c 0
 130.075195312 39.763671875 129.875976562 38.2373046875 129.634765625 36.5615234375 c 0
 126.474609375 14.6171875 101.5390625 0 77.447265625 0 c 0
 52.65625 0 33.447265625 15.576171875 35.4189453125 35.5 c 0
 36.35546875 43.7041015625 62.328125 289.240234375 62.40625 289.978515625 c 2
 62.458984375 290.465820312 l 1
 62.5576171875 290.946289062 l 2
 95.6796875 449.877929688 239.381835938 580.771484375 415.719726562 580.771484375 c 0
 586.114257812 580.771484375 695.799804688 580.049804688 695.799804688 580.049804688 c 2
 718.481445312 580.049804688 730.548828125 557.150390625 727.154296875 533 c 0
 723.7578125 508.83203125 705.291992188 485.950195312 682.540039062 485.950195312 c 2
 682.540039062 485.950195312 520.020507812 485.975585938 402.397460938 485.975585938 c 0
 290.534179688 485.975585938 179.943359375 397.225585938 164.666992188 288.526367188 c 0
EndSplineSet
EndChar

StartChar: s
Encoding: 115 115 84
Width: 766
GlyphClass: 2
Flags: MW
HStem: 0 94.7959<293.921 412.568 293.921 425.674> 242.146 94.7979<514.465 514.465> 483.573 94.7959<353.432 472.079>
LayerCount: 2
Back
Fore
SplineSet
179.201171875 376.212890625 m 0
 177.09375 362.18359375 177.861328125 336.516601562 249.39453125 336.217773438 c 0
 251.658203125 336.231445312 370.8984375 336.943359375 534.712890625 336.943359375 c 0
 547.15625 336.943359375 560.375 337.44140625 573.669921875 337.442382812 c 0
 638.8046875 337.451171875 704.228515625 322.125 685.5 188.857421875 c 0
 662.89453125 28.0107421875 514.990234375 0 336.357421875 0 c 0
 174.8046875 0 66.42578125 0.7216796875 66.42578125 0.7216796875 c 2
 43.74609375 0.7216796875 31.677734375 23.62109375 35.072265625 47.771484375 c 0
 38.46875 71.939453125 56.93359375 94.8212890625 79.685546875 94.8212890625 c 2
 79.685546875 94.8212890625 238.162109375 94.7958984375 349.6796875 94.7958984375 c 0
 475.45703125 94.7958984375 573.08203125 118.078125 582.9296875 188.147460938 c 0
 583.626953125 193.109375 585.8359375 195.258789062 586.857421875 202.561523438 c 0
 588.76953125 216.21875 588.01171875 242.237304688 515.96484375 242.147460938 c 2
 514.46484375 242.145507812 l 1
 513.82421875 242.318359375 l 2
 505.0234375 244.076171875 383.978515625 241.42578125 231.2890625 241.42578125 c 0
 218.845703125 241.42578125 205.625 240.927734375 192.330078125 240.926757812 c 0
 127.1953125 240.91796875 61.771484375 256.244140625 80.5 389.51171875 c 0
 103.10546875 550.358398438 251.009765625 578.369140625 429.642578125 578.369140625 c 0
 591.1953125 578.369140625 699.57421875 577.647460938 699.57421875 577.647460938 c 2
 722.25390625 577.647460938 734.322265625 554.748046875 730.927734375 530.59765625 c 0
 727.53125 506.4296875 709.06640625 483.547851562 686.314453125 483.547851562 c 2
 686.314453125 483.547851562 527.837890625 483.573242188 416.3203125 483.573242188 c 0
 290.54296875 483.573242188 192.91796875 460.291015625 183.0703125 390.221679688 c 0
 182.380859375 385.30859375 180.263671875 383.288085938 179.201171875 376.212890625 c 0
EndSplineSet
AlternateSubs2: "'salt' Stylistic Alternatives in Latin lookup 0 subtable" uniE016
EndChar

StartChar: t
Encoding: 116 116 85
Width: 625
GlyphClass: 2
Flags: MW
HStem: 498.901 91.1484<70.4287 302.733>
LayerCount: 2
Back
Fore
SplineSet
70.4287109375 498.901367188 m 2
 70.4287109375 498.901367188 36.1826171875 522.029296875 39.3369140625 544.473632812 c 0
 42.666015625 568.158203125 61.1474609375 589.435546875 83.6015625 590.049804688 c 2
 302.733398438 590.049804688 l 2
 309.461914062 591.625976562 313.279296875 592 319.016601562 592 c 0
 324.62890625 592 332.415039062 590.598632812 334.680664062 590.049804688 c 2
 553.7421875 590.049804688 l 2
 576.413085938 590.049804688 588.6328125 567.922851562 585.336914062 544.473632812 c 0
 582.03125 520.953125 563.391601562 498.895507812 540.935546875 498.896484375 c 2
 540.935546875 498.896484375 457.059570312 498.859375 356.13671875 498.833007812 c 1
 291.206054688 36.826171875 l 2
 288.077148438 14.5654296875 261.389648438 0 235.81640625 0 c 0
 210.158203125 0 187.676757812 14.765625 190.77734375 36.822265625 c 2
 190.77734375 36.822265625 236.63671875 364.13671875 255.62109375 498.8125 c 1
 148.52734375 498.796875 73.458984375 498.6328125 70.4287109375 498.901367188 c 2
EndSplineSet
EndChar

StartChar: u
Encoding: 117 117 86
Width: 741
GlyphClass: 2
Flags: MW
HStem: 0 102.471<267.002 387.059 267.002 400.034>
LayerCount: 2
Back
Fore
SplineSet
606.138671875 553.999023438 m 2
 609.23046875 575.997070312 634.266601562 590.599609375 658.33203125 590.599609375 c 0
 682.424804688 590.599609375 703.317382812 575.908203125 700.2109375 553.8046875 c 2
 700.2109375 553.8046875 686.190429688 448.907226562 664.235351562 292.688476562 c 0
 641.522460938 131.077148438 487.439453125 0 312.62890625 0 c 0
 137.818359375 0 20.5791015625 131.077148438 43.2919921875 292.688476562 c 0
 65.2470703125 448.907226562 80.7109375 553.8046875 80.7109375 553.8046875 c 2
 83.8115234375 575.866210938 108.853515625 590.599609375 132.931640625 590.599609375 c 0
 157.015625 590.599609375 177.930664062 576.0078125 174.837890625 553.997070312 c 2
 174.837890625 553.997070312 153.416015625 401.755859375 138.360351562 294.625976562 c 0
 124.107421875 193.215820312 206.973632812 102.470703125 327.030273438 102.470703125 c 0
 447.086914062 102.470703125 555.458984375 193.215820312 569.711914062 294.625976562 c 2
 606.138671875 553.999023438 l 2
EndSplineSet
EndChar

StartChar: v
Encoding: 118 118 87
Width: 608
GlyphClass: 2
Flags: MW
VStem: 41 93.9844
LayerCount: 2
Back
Fore
SplineSet
129.884765625 31.8095703125 m 1
 41 552.327148438 l 2
 40.4560546875 555.876953125 40.3876953125 559.743164062 40.8173828125 563.322265625 c 0
 42.6025390625 579.190429688 61.27734375 590 82.55859375 590 c 0
 107.403320312 590 129.279296875 577.119140625 134.984375 558.155273438 c 0
 135.220703125 557.330078125 196.420898438 223.092773438 220.556640625 95.5576171875 c 1
 326.227539062 108.01171875 422.303710938 192.697265625 436.646484375 294.75 c 0
 451.54296875 400.75 469 526.997070312 472.426757812 552.001953125 c 0
 472.67578125 553.735351562 472.883789062 555.323242188 473.133789062 557.06640625 c 0
 475.978515625 576.77734375 500.641601562 590.049804688 524.818359375 590.049804688 c 0
 549.678710938 590.049804688 569.0390625 575.998046875 567.360351562 558.196289062 c 0
 566.383789062 549.713867188 539.240234375 295.84375 539.158203125 295.081054688 c 2
 539.104492188 294.583984375 l 1
 539.002929688 294.095703125 l 2
 505.510742188 132.474609375 361.254882812 -0.7216796875 181.69921875 -0.7216796875 c 0
 133.782226562 -0.7216796875 133.837890625 24.0361328125 130.133789062 31.2734375 c 2
 129.884765625 31.8095703125 l 1
EndSplineSet
AlternateSubs2: "'salt' Stylistic Alternatives in Latin lookup 0 subtable" uniE015
EndChar

StartChar: w
Encoding: 119 119 88
Width: 1109
GlyphClass: 2
Flags: MW
HStem: 0 102.471<229.337 327.166 677.545 792.622>
LayerCount: 2
Back
Fore
SplineSet
272.458007812 0 m 0
 101.693359375 0 21.7001953125 132.814453125 44.1689453125 292.688476562 c 0
 66.173828125 449.258789062 81.4765625 553.05078125 81.6748046875 554.3984375 c 0
 85.51171875 576.634765625 110.061523438 590.599609375 133.80859375 590.599609375 c 0
 157.892578125 590.599609375 178.806640625 576.0078125 175.713867188 553.997070312 c 2
 175.713867188 553.997070312 154.291992188 401.755859375 139.236328125 294.625976562 c 0
 124.639648438 190.764648438 171.815429688 102.470703125 286.859375 102.470703125 c 0
 401.919921875 102.470703125 474.73828125 190.784179688 489.333007812 294.625976562 c 2
 525.759765625 553.999023438 l 2
 528.85546875 576.026367188 554.000976562 590.599609375 579.951171875 590.599609375 c 0
 604.62109375 590.599609375 626.190429688 576.063476562 623.08984375 553.997070312 c 2
 623.08984375 553.997070312 601.666992188 401.755859375 586.611328125 294.625976562 c 0
 572.016601562 190.784179688 620.015625 102.470703125 735.07421875 102.470703125 c 0
 850.168945312 102.470703125 923.150390625 190.840820312 937.736328125 294.625976562 c 2
 974.163085938 553.999023438 l 2
 977.254882812 575.997070312 1002.2890625 590.599609375 1026.35546875 590.599609375 c 0
 1050.453125 590.599609375 1071.33789062 575.87890625 1068.23535156 553.8046875 c 2
 1068.23535156 553.8046875 1054.21386719 448.907226562 1032.25878906 292.688476562 c 0
 1009.78222656 132.76171875 891.430664062 0 720.672851562 0 c 0
 610.609375 0 554.537109375 58.3896484375 516.125976562 139.172851562 c 1
 453.158203125 55.9423828125 381.873046875 0 272.458007812 0 c 0
EndSplineSet
EndChar

StartChar: x
Encoding: 120 120 89
Width: 735
GlyphClass: 2
Flags: W
LayerCount: 2
Back
Fore
SplineSet
43.9599609375 42.4814453125 m 1
 42.435546875 40.9501953125 l 1
 42.435546875 40.9501953125 42.953125 41.470703125 43.955078125 42.4775390625 c 2
 43.9599609375 42.4814453125 l 1
621.432617188 41.01171875 m 0
 624.928710938 29.37890625 624.918945312 26.7626953125 623.821289062 18.6201171875 c 0
 622.068359375 4.853515625 599.658203125 0 579.286132812 0 c 0
 549.987304688 0 521.803710938 12.32421875 511.471679688 28.5166015625 c 2
 357.8046875 224.8828125 l 1
 148.950195312 28.51953125 l 2
 132.299804688 10.3828125 101.189453125 0 73.1181640625 0 c 0
 61.77734375 0 52.439453125 1.6376953125 45.267578125 5.322265625 c 0
 33.505859375 12.2421875 31.115234375 25.6962890625 40.572265625 37.8037109375 c 2
 43.955078125 42.4775390625 l 2
 58.8046875 57.21484375 180.43359375 177.71875 304.670898438 295.073242188 c 1
 112.912109375 550.3046875 l 1
 112.97265625 553.223632812 l 2
 111.224609375 559.7734375 110.856445312 564.490234375 111.547851562 570.451171875 c 0
 112.80859375 584.745117188 135.321289062 590 156.037109375 590 c 0
 185.3359375 590 213.530273438 577.649414062 223.83203125 561.495117188 c 0
 227.75 556.272460938 299.920898438 463.9765625 377.52734375 365.217773438 c 1
 488.37890625 469.12109375 581.013671875 556.275390625 586.39453125 561.4921875 c 0
 602.99609375 579.581054688 634.134765625 590 662.205078125 590 c 0
 673.254882812 590 682.364257812 588.459960938 689.438476562 584.971679688 c 0
 702.227539062 577.869140625 703.23828125 563.7734375 694.791992188 552.567382812 c 1
 694.169921875 550.3046875 l 1
 430.6640625 295.073242188 l 1
 529.310546875 167.966796875 618.926757812 44.4677734375 621.432617188 41.01171875 c 0
621.432617188 41.01171875 m 2
 621.46484375 40.958984375 621.481445312 40.9296875 621.484375 40.92578125 c 2
 621.430664062 41.001953125 l 1
 621.432617188 41.01171875 l 2
EndSplineSet
EndChar

StartChar: y
Encoding: 121 121 90
Width: 699
GlyphClass: 2
Flags: MW
HStem: -65.3223 94.7959<218.449 336.262 218.449 348.839> 105.128 85.3428<253.42 343.546>
LayerCount: 2
Back
Fore
SplineSet
634.698242188 396.487304688 m 0
 633.59375 388.625 632.263671875 381.20703125 630.555664062 373.491210938 c 0
 608.709960938 217.763671875 604.838867188 189.702148438 604.346679688 187.430664062 c 2
 604.346679688 187.430664062 602.856445312 174.033203125 602.7265625 173.088867188 c 0
 579.37890625 3.1796875 433.33984375 -65.322265625 264.338867188 -65.322265625 c 0
 151.578125 -65.322265625 132.237304688 -67.591796875 124.139648438 -63.154296875 c 0
 104.39453125 -56.8134765625 97.775390625 -38.2978515625 100.69140625 -17.55078125 c 0
 104.100585938 6.7060546875 123.119140625 29.4990234375 147.087890625 29.4990234375 c 2
 147.087890625 29.4990234375 159.236328125 29.4736328125 277.662109375 29.4736328125 c 0
 394.861328125 29.4736328125 493.474609375 65.3701171875 508.458007812 171.982421875 c 2
 510.169921875 184.178710938 l 1
 451.248046875 135.356445312 385.690429688 105.127929688 301.401367188 105.127929688 c 0
 125.249023438 105.127929688 23.2939453125 236.66796875 45.8828125 397.3984375 c 0
 66.33203125 542.899414062 68.271484375 552.779296875 68.7041015625 554.5234375 c 2
 68.7041015625 554.5234375 97.75 590.599609375 120.806640625 590.599609375 c 0
 144.974609375 590.599609375 165.713867188 575.352539062 162.515625 552.59375 c 2
 162.515625 552.59375 155.396484375 502.120117188 139.723632812 390.599609375 c 0
 124.737304688 283.969726562 193.4453125 190.470703125 313.395507812 190.470703125 c 0
 429.451171875 190.470703125 517.475585938 277.709960938 537.40234375 380.6328125 c 1
 561.571289062 552.599609375 l 2
 564.7734375 575.383789062 590.108398438 590.599609375 614.338867188 590.599609375 c 0
 639.5859375 590.599609375 657.701171875 575.583007812 656.133789062 553.953125 c 0
 656.100585938 552.966796875 655.073242188 541.461914062 634.698242188 396.487304688 c 0
EndSplineSet
AlternateSubs2: "'salt' Stylistic Alternatives in Latin lookup 0 subtable" uniE00D
EndChar

StartChar: z
Encoding: 122 122 91
Width: 742
GlyphClass: 2
Flags: MW
HStem: 0 94.7959<286.792 349.68 286.792 417.134> 242.147 94.7959 242.154 10<225.687 227.109> 483.573 94.7959<392.32 455.208>
LayerCount: 2
Back
Fore
SplineSet
336.357421875 0 m 0xd0
 157.724609375 0 17.6953125 28.009765625 40.30078125 188.857421875 c 0
 63.140625 351.372070312 160.79296875 336.943359375 232.712890625 336.943359375 c 0
 396.77734375 336.943359375 517.201171875 336.221679688 517.201171875 336.221679688 c 2
 614.443359375 335.991210938 598.5546875 384.71484375 599.328125 390.221679688 c 0
 609.17578125 460.291015625 518.095703125 483.573242188 392.3203125 483.573242188 c 2
 122.31640625 483.547851562 l 2
 99.5771484375 483.547851562 87.53515625 506.446289062 90.9287109375 530.59765625 c 0
 94.3251953125 554.765625 112.814453125 577.647460938 135.5078125 577.647460938 c 2
 135.5078125 577.647460938 244.08984375 578.369140625 405.642578125 578.369140625 c 0
 584.275390625 578.369140625 724.3046875 550.359375 701.69921875 389.51171875 c 0
 678.859375 226.997070312 581.208984375 241.42578125 509.2890625 241.42578125 c 0
 374.595703125 241.42578125 266.62890625 242.014648438 234.682617188 242.134765625 c 0
 231.612304688 242.138671875 228.326171875 242.142578125 224.813476562 242.147460938 c 0
 127.534179688 242.271484375 143.4453125 193.647460938 142.671875 188.147460938 c 0
 132.82421875 118.078125 223.904296875 94.7958984375 349.6796875 94.7958984375 c 2
 619.68359375 94.8212890625 l 2
 642.423828125 94.8212890625 654.466796875 71.9228515625 651.072265625 47.771484375 c 0
 647.67578125 23.603515625 629.185546875 0.7216796875 606.4921875 0.7216796875 c 2
 606.4921875 0.7216796875 497.91015625 0 336.357421875 0 c 0xd0
225.686523438 242.154296875 m 1xb0
 225.827148438 243.154296875 227.108398438 252.154296875 227.108398438 252.154296875 c 2
 227.109375 252.154296875 229.329101562 252.146484375 232.823242188 252.146484375 c 1
 232.682617188 251.146484375 231.544921875 243.146484375 231.400390625 242.146484375 c 0
 228.576171875 242.155273438 226.663085938 242.154296875 225.686523438 242.154296875 c 1xb0
EndSplineSet
AlternateSubs2: "'salt' Stylistic Alternatives in Latin lookup 0 subtable" uniE017
EndChar

StartChar: braceleft
Encoding: 123 123 92
Width: 364
GlyphClass: 2
Flags: MW
HStem: -10.1719 94.7959<194.47 207.263 207.263 207.766> 495.976 94.7959<229.982 289.772>
VStem: 40.9111 282.099
LayerCount: 2
Back
Fore
SplineSet
207.262695312 -10.171875 m 2
 58.287109375 -10.171875 63.951171875 100.223632812 81.595703125 225.896484375 c 1
 67.8134765625 243.543945312 58.0791015625 256.014648438 54.4208984375 260.71484375 c 0
 43.2392578125 267.388671875 39.1083984375 279.819335938 40.9111328125 292.6484375 c 0
 42.9072265625 306.852539062 53.3642578125 319.430664062 63.3916015625 324.576171875 c 0
 69.55078125 330.388671875 86.3095703125 346.171875 100.364257812 359.405273438 c 1
 118.37890625 485.670898438 145.374023438 590.771484375 291.79296875 590.771484375 c 0
 322.943359375 589.858398438 324.8359375 556.0234375 323.009765625 543.025390625 c 0
 319.61328125 518.857421875 301.147460938 495.975585938 278.397460938 495.975585938 c 0
 181.567382812 495.975585938 197.673828125 320.9765625 193.362304688 290.299804688 c 0
 191.4140625 276.439453125 176.490234375 234.375976562 170.092773438 189.750976562 c 0
 161.942382812 132.904296875 168.354492188 84.6240234375 220.5859375 84.6240234375 c 0
 243.325195312 84.6240234375 255.3671875 61.7255859375 251.97265625 37.57421875 c 0
 250.018554688 23.6650390625 237.918945312 -4.2109375 208.2734375 -10.0712890625 c 2
 207.765625 -10.171875 l 1
 207.262695312 -10.171875 l 2
EndSplineSet
EndChar

StartChar: bar
Encoding: 124 124 93
Width: 264
GlyphClass: 2
Flags: MW
VStem: 37.7734 188.562
LayerCount: 2
Back
Fore
SplineSet
132.270507812 650.423828125 m 0
 136.469726562 674.065429688 160.834960938 688 184.607421875 688 c 0
 209.001953125 688 228.83984375 672.473632812 226.3359375 650.142578125 c 2
 131.873046875 -22 l 2
 128.676757812 -44.7392578125 103.6328125 -60 79.482421875 -60 c 0
 55.2587890625 -60 34.60546875 -44.5322265625 37.7734375 -22.001953125 c 0
 37.826171875 -21.626953125 131.923828125 648.950195312 132.270507812 650.423828125 c 0
EndSplineSet
EndChar

StartChar: braceright
Encoding: 125 125 94
Width: 363
GlyphClass: 2
Flags: MW
HStem: -10.1719 94.7959<70.9385 110.88 73.395 110.88 73.395 145.929> 495.976 94.7959<155.825 190.991>
LayerCount: 2
Back
Fore
SplineSet
71.44140625 -10.171875 m 2
 220.416992188 -10.171875 245.784179688 100.223632812 263.463867188 225.896484375 c 1
 282.205078125 243.543945312 295.4453125 256.014648438 300.423828125 260.71484375 c 0
 313.482421875 267.388671875 321.107421875 279.819335938 322.91015625 292.6484375 c 0
 324.90625 306.852539062 317.984375 319.430664062 309.404296875 324.576171875 c 0
 304.877929688 330.388671875 292.556640625 346.171875 282.220703125 359.405273438 c 1
 299.698242188 485.670898438 302.244140625 590.771484375 155.825195312 590.771484375 c 0
 124.418945312 589.858398438 113.014648438 556.0234375 111.188476562 543.025390625 c 0
 107.791992188 518.857421875 119.826171875 495.975585938 142.576171875 495.975585938 c 0
 239.40625 495.975585938 174.110351562 320.9765625 169.798828125 290.299804688 c 0
 167.850585938 276.439453125 170.952148438 234.375976562 164.806640625 189.750976562 c 0
 156.978515625 132.904296875 136.99609375 84.6240234375 84.7646484375 84.6240234375 c 0
 62.025390625 84.6240234375 43.5458984375 61.7255859375 40.1513671875 37.57421875 c 0
 38.197265625 23.6650390625 42.4609375 -4.2109375 70.4599609375 -10.0712890625 c 2
 70.9384765625 -10.171875 l 1
 71.44140625 -10.171875 l 2
EndSplineSet
EndChar

StartChar: asciitilde
Encoding: 126 126 95
Width: 489
GlyphClass: 2
Flags: MW
VStem: 52.2852 77.5762 359.138 77.5771
LayerCount: 2
Back
Fore
SplineSet
273.30859375 374.724609375 m 1
 287.80859375 360.353515625 281.438476562 353.536132812 283.288085938 339.015625 c 0
 285.053710938 325.155273438 292.321289062 313.349609375 324.666992188 321.702148438 c 0
 358.249023438 330.373046875 360.609375 347.053710938 359.137695312 358.602539062 c 0
 357.65234375 370.255859375 365.399414062 392.116210938 376.154296875 400.4296875 c 0
 382.48828125 405.323242188 389.573242188 402.642578125 391.899414062 400.9140625 c 0
 392.893554688 401.22265625 392.913085938 401.24609375 393.915039062 401.505859375 c 0
 410.8359375 405.874023438 433.889648438 400.802734375 436.71484375 378.634765625 c 0
 447.7578125 291.95703125 373.65234375 253.301757812 334.6640625 243.232421875 c 0
 302.234375 234.859375 241.381835938 230.422851562 215.690429688 283.275390625 c 1
 201.190429688 297.646484375 207.561523438 304.463867188 205.7109375 318.984375 c 0
 203.9453125 332.844726562 196.676757812 344.650390625 164.33203125 336.297851562 c 0
 130.749023438 327.626953125 128.389648438 310.946289062 129.861328125 299.397460938 c 0
 131.345703125 287.744140625 123.598632812 265.8828125 112.844726562 257.571289062 c 0
 106.51171875 252.676757812 99.42578125 255.357421875 97.099609375 257.0859375 c 0
 96.10546875 256.77734375 96.0849609375 256.75390625 95.0830078125 256.494140625 c 0
 78.1640625 252.125976562 55.109375 257.197265625 52.28515625 279.365234375 c 0
 41.2421875 366.04296875 115.34765625 404.698242188 154.3359375 414.767578125 c 0
 186.765625 423.140625 247.616210938 427.577148438 273.30859375 374.724609375 c 1
EndSplineSet
EndChar

StartChar: exclamdown
Encoding: 161 161 97
Width: 252
GlyphClass: 2
Flags: MW
HStem: 477.5 112.5<150.843 166.031>
VStem: 39.5146 172.604
LayerCount: 2
Back
Fore
SplineSet
212.119140625 533.75 m 0
 207.923828125 503.896484375 181.59765625 477.5 150.463867188 477.5 c 0
 119.600585938 477.5 99.1201171875 503.516601562 103.369140625 533.75 c 0
 107.618164062 563.983398438 135.411132812 590 166.274414062 590 c 0
 197.408203125 590 216.314453125 563.603515625 212.119140625 533.75 c 0
133.578125 27.3173828125 m 0
 129.380859375 3.6806640625 105.016601562 -10.25 81.244140625 -10.25 c 0
 56.8505859375 -10.25 37.009765625 5.2763671875 39.5146484375 27.607421875 c 2
 95.1884765625 423.75 l 2
 98.384765625 446.489257812 123.428710938 461.75 147.579101562 461.75 c 0
 171.802734375 461.75 192.456054688 446.28125 189.2890625 423.752929688 c 0
 189.23828125 423.391601562 133.928710938 28.794921875 133.578125 27.3173828125 c 0
EndSplineSet
EndChar

StartChar: cent
Encoding: 162 162 98
Width: 573
GlyphClass: 2
Flags: MW
HStem: 67.0518 76.0479<304.641 315.328> 446.607 76.0469<357.983 369.369>
LayerCount: 2
Back
Fore
SplineSet
369.369140625 522.654296875 m 1
 456.416015625 522.51171875 505.415039062 522.173828125 506.540039062 522.166015625 c 0
 525.465820312 522.166015625 534.857421875 503.314453125 532.196289062 484.37890625 c 0
 529.534179688 465.439453125 514.873046875 446.590820312 495.883789062 446.590820312 c 2
 357.983398438 446.607421875 l 1
 315.328125 143.099609375 l 1
 453.234375 143.116210938 l 2
 472.21875 143.116210938 481.584960938 124.263671875 478.923828125 105.328125 c 0
 476.262695312 86.388671875 461.575195312 67.541015625 442.646484375 67.541015625 c 2
 442.646484375 67.541015625 386.0546875 67.18359375 304.640625 67.0517578125 c 1
 299.15234375 28 l 2
 295.956054688 5.2607421875 270.912109375 -10 246.76171875 -10 c 0
 222.538085938 -10 201.884765625 5.470703125 205.051757812 27.99609375 c 2
 210.782226562 68.8759765625 l 1
 99.734375 83.49609375 26.35546875 179.192382812 42.6103515625 294.853515625 c 0
 59.04296875 411.7734375 161.727539062 506.495117188 274.241210938 520.822265625 c 1
 279.932617188 561.168945312 l 2
 284.4765625 586.751953125 308.7421875 600 332.491210938 600 c 0
 356.885742188 600 376.736328125 584.579101562 374.220703125 562.142578125 c 2
 368.334960938 520.263671875 l 2
 368.803710938 521.475585938 369.369140625 522.654296875 369.369140625 522.654296875 c 1
263.333007812 443.3359375 m 1
 194.565429688 428.015625 134.654296875 367.362304688 124.462890625 294.853515625 c 0
 114.119140625 221.250976562 159.453125 161.13671875 221.647460938 146.364257812 c 1
 234.125 235.333007812 251.301757812 357.727539062 263.333007812 443.3359375 c 1
EndSplineSet
EndChar

StartChar: sterling
Encoding: 163 163 99
Width: 696
GlyphClass: 2
Flags: MW
HStem: -10 94.0996<74.3838 621.751> 242.622 94.1777<201.439 321.369> 495.426 94.7959<365.805 466.376>
LayerCount: 2
Back
Fore
SplineSet
278.088867188 336.799804688 m 2
 284.524414062 337.266601562 291.740234375 337.521484375 298.82421875 337.521484375 c 0
 451.580078125 337.521484375 460.803710938 336.959960938 462.435546875 336.782226562 c 2
 462.435546875 336.782226562 496.361328125 312.880859375 493.110351562 289.75 c 0
 489.556640625 264.462890625 471.326171875 244.139648438 448.610351562 242.665039062 c 0
 447.431640625 242.552734375 363.176757812 242.622070312 279.561523438 242.622070312 c 0
 200.365234375 239.889648438 204.215820312 179.377929688 164.811523438 84.099609375 c 1
 621.750976562 84.099609375 l 2
 644.211914062 83.458984375 656.420898438 61.4189453125 652.99609375 37.0498046875 c 0
 649.442382812 11.7626953125 631.221679688 -8.55859375 608.482421875 -10.037109375 c 0
 606.086914062 -10.2626953125 74.4189453125 -10 74.3837890625 -10 c 0
 51.859375 -10.0009765625 39.59375 12.84375 42.99609375 37.0498046875 c 0
 54.080078125 115.916015625 75.5439453125 189.9921875 111.864257812 242.69921875 c 1
 110.864257812 242.700195312 111.498046875 242.69921875 110.498046875 242.700195312 c 0
 87.9736328125 242.69921875 75.7080078125 265.543945312 79.1103515625 289.75 c 0
 102.400390625 455.467773438 256.971679688 590.221679688 423.938476562 590.221679688 c 0
 585.461914062 590.221679688 613.961914062 589.5 613.961914062 589.5 c 2
 636.479492188 589.5 648.619140625 566.6015625 645.224609375 542.450195312 c 0
 641.828125 518.282226562 623.36328125 495.400390625 600.608398438 495.400390625 c 2
 600.608398438 495.400390625 522.13671875 495.42578125 410.616210938 495.42578125 c 0
 320.994140625 495.42578125 246.658203125 427.787109375 201.439453125 336.799804688 c 1
 278.088867188 336.799804688 l 2
EndSplineSet
EndChar

StartChar: currency
Encoding: 164 164 100
Width: 569
GlyphClass: 2
Flags: MW
HStem: 63.1504 41<48.0723 80.519> 118.013 66.4844<274.157 274.157 274.157 276.368> 400.797 66.3896<292.634 325.463 292.634 332.383> 481.049 41
LayerCount: 2
Back
Fore
SplineSet
382.866210938 88.33203125 m 2
 353.373046875 140.977539062 l 1
 323.75390625 125.958984375 292.771484375 118.012695312 259.963867188 118.012695312 c 0
 227.112304688 118.012695312 195.627929688 127.647460938 173.013671875 140.982421875 c 1
 128.717773438 88.33203125 l 2
 116.434570312 74.224609375 91.84765625 63.150390625 69.1904296875 63.150390625 c 0
 59.9990234375 63.150390625 52.16015625 65.033203125 46.4306640625 69.13671875 c 0
 37.0625 75.8466796875 35.478515625 88.91015625 44.4814453125 99.8056640625 c 2
 48.072265625 104.150390625 l 1
 49.025390625 104.150390625 l 1
 59.8037109375 114.576171875 103.822265625 170.568359375 121.553710938 192.194335938 c 1
 104.322265625 221.399414062 97.2568359375 255.219726562 102.509765625 292.599609375 c 0
 107.77734375 330.078125 126.319335938 365.85546875 149.321289062 392.4765625 c 1
 98.6728515625 485.393554688 l 2
 96.7138671875 488.985351562 95.701171875 493.151367188 96.2060546875 497.598632812 c 0
 98.1611328125 514.786132812 117.274414062 522.048828125 133.684570312 522.048828125 c 0
 156.340820312 522.048828125 177.817382812 510.971679688 186.133789062 496.8671875 c 2
 215.62890625 444.221679688 l 1
 245.24609375 459.240234375 276.23046875 467.186523438 309.037109375 467.186523438 c 0
 341.889648438 467.186523438 373.372070312 457.551757812 395.987304688 444.216796875 c 1
 440.282226562 496.8671875 l 2
 452.565429688 510.974609375 477.15234375 522.048828125 499.809570312 522.048828125 c 0
 509.000976562 522.048828125 516.83984375 520.166015625 522.5703125 516.0625 c 0
 531.9375 509.352539062 533.521484375 496.2890625 524.518554688 485.393554688 c 2
 520.928710938 481.048828125 l 1
 519.975585938 481.048828125 l 1
 509.197265625 470.623046875 465.176757812 414.630859375 447.446289062 393.004882812 c 1
 464.678710938 363.799804688 471.744140625 329.979492188 466.490234375 292.599609375 c 0
 461.22265625 255.12109375 442.681640625 219.34375 419.678710938 192.721679688 c 1
 470.327148438 99.8056640625 l 2
 472.287109375 96.2138671875 473.298828125 92.0478515625 472.793945312 87.6005859375 c 0
 470.838867188 70.4130859375 451.725585938 63.150390625 435.315429688 63.150390625 c 0
 412.670898438 63.150390625 391.106445312 74.357421875 382.866210938 88.33203125 c 2
274.157226562 184.497070312 m 1
 317.278320312 186.180664062 357.344726562 210.44921875 380.693359375 241.950195312 c 1
 350.158203125 297.977539062 322.920898438 347.935546875 322.682617188 348.407226562 c 0
 322.176757812 349.407226562 347.51171875 325.109375 387.3828125 251.965820312 c 1
 395.372070312 265.33984375 400.212890625 278.4375 402.203125 292.599609375 c 0
 410.153320312 349.16796875 365.060546875 400.796875 299.706054688 400.796875 c 0
 254.743164062 400.796875 212.56640625 375.9765625 188.30859375 343.250976562 c 1
 225.015625 275.901367188 261.614257812 208.748046875 271.067382812 191.397460938 c 0
 272.54296875 188.688476562 273.2421875 187.419921875 273.380859375 187.140625 c 2
 274.157226562 184.497070312 l 1
262.654296875 184.580078125 m 1
 256.623046875 195.638671875 232.754882812 239.419921875 181.616210938 333.232421875 c 1
 173.626953125 319.858398438 168.787109375 306.76171875 166.796875 292.599609375 c 0
 159.1484375 238.180664062 201.065429688 188.290039062 262.654296875 184.580078125 c 1
EndSplineSet
EndChar

StartChar: yen
Encoding: 165 165 101
Width: 683
GlyphClass: 2
Flags: MW
HStem: 16.5264 56.998 76.5273 56.998 98 102.471<249.547 331.131>
LayerCount: 2
Back
Fore
SplineSet
612.291015625 376.90234375 m 0xa0
 601.166992188 297.602539062 588.009765625 203.8671875 578.12109375 133.525390625 c 1
 599.026367188 133.525390625 l 2
 614.2578125 133.525390625 620.943359375 118.700195312 619.017578125 105 c 0
 617.084960938 91.2470703125 606.12109375 76.47265625 591.015625 76.4755859375 c 2
 591.015625 76.4755859375 581.408203125 76.4697265625 570.094726562 76.4638671875 c 1
 569.681640625 73.5244140625 l 1
 590.59375 73.5244140625 l 2
 605.825195312 73.5244140625 612.510742188 58.69921875 610.584960938 45 c 0
 608.65234375 31.2451171875 597.689453125 16.474609375 582.58203125 16.474609375 c 2
 561.62890625 16.462890625 l 1
 559.924804688 4.4150390625 559.595703125 1.943359375 559.234375 -0.1259765625 c 0
 555.172851562 -22.9970703125 530.74609375 -37.400390625 506.958007812 -37.400390625 c 0
 482.577148438 -37.400390625 462.701171875 -22.0888671875 465.229492188 0.45703125 c 2
 467.473632812 16.427734375 l 1
 438.829101562 16.4189453125 425.893554688 16.34375 421.622070312 16.5263671875 c 0
 407.306640625 17.5986328125 401.211914062 31.6708984375 403.084960938 45 c 0
 405.041015625 58.916015625 415.8515625 73.09765625 430.951171875 73.5244140625 c 2
 475.498046875 73.5244140625 l 1
 475.90625 76.427734375 l 1
 447.260742188 76.419921875 434.325195312 76.3447265625 430.0546875 76.52734375 c 0
 415.739257812 77.599609375 409.64453125 91.6728515625 411.517578125 105 c 0
 413.473632812 118.916992188 424.284179688 133.098632812 439.383789062 133.525390625 c 2
 483.930664062 133.525390625 l 1xc0
 490.375 179.375 l 1
 432.188476562 128.69921875 370.727539062 98 291.534179688 98 c 0
 125.349609375 98 24.216796875 234.299804688 47.5888671875 400.599609375 c 0
 68.76953125 551.309570312 70.75 561.490234375 71.1943359375 563.306640625 c 2
 71.1943359375 563.306640625 100.340820312 600.599609375 123.46875 600.599609375 c 0
 147.63671875 600.599609375 168.375976562 585.352539062 165.177734375 562.59375 c 2
 165.177734375 562.59375 158.05859375 512.120117188 142.385742188 400.599609375 c 0
 127.38671875 293.875976562 193.158203125 200.470703125 305.935546875 200.470703125 c 0
 415.043945312 200.470703125 500.120117188 287.616210938 520.064453125 390.6328125 c 1
 544.233398438 562.599609375 l 2
 547.435546875 585.383789062 572.772460938 600.599609375 597.001953125 600.599609375 c 0
 622.30078125 600.599609375 640.310546875 585.076171875 638.646484375 562.90234375 c 0
 638.609375 561.866210938 637.53515625 550.045898438 616.532226562 400.599609375 c 0
 615.393554688 392.500976562 614.034179688 384.852539062 612.291015625 376.90234375 c 0xa0
EndSplineSet
EndChar

StartChar: brokenbar
Encoding: 166 166 102
Width: 261
GlyphClass: 2
Flags: MW
VStem: 38.5127 184.083
LayerCount: 2
Back
Fore
SplineSet
76.796875 300.434570312 m 0
 80.9931640625 324.064453125 105.358398438 338 129.130859375 338 c 0
 153.524414062 338 173.36328125 322.473632812 170.860351562 300.142578125 c 2
 132.61328125 28 l 2
 129.416992188 5.2607421875 104.373046875 -10 80.22265625 -10 c 0
 55.9990234375 -10 35.345703125 5.4697265625 38.5126953125 27.99609375 c 0
 38.5625 28.3505859375 76.44921875 298.966796875 76.796875 300.434570312 c 0
128.532226562 672.434570312 m 0
 132.728515625 696.064453125 157.09375 710 180.866210938 710 c 0
 205.259765625 710 225.098632812 694.473632812 222.595703125 672.142578125 c 2
 184.348632812 400 l 2
 181.15234375 377.260742188 156.108398438 362 131.958007812 362 c 0
 107.734375 362 87.0810546875 377.469726562 90.248046875 399.99609375 c 0
 90.2978515625 400.350585938 128.184570312 670.966796875 128.532226562 672.434570312 c 0
EndSplineSet
EndChar

StartChar: section
Encoding: 167 167 103
Width: 759
GlyphClass: 2
Flags: MW
HStem: -10 94.7959<299.015 411.275 299.015 421.889> 136.3 76.9951<356.793 383.116 356.793 394.263> 241.48 95.0635 371.904 76.9951<377.139 406.809> 493.573 94.7959<347.724 459.984>
LayerCount: 2
Back
Fore
SplineSet
231.1484375 337.25390625 m 1
 261.279296875 403.149414062 329.75 448.899414062 402.946289062 448.899414062 c 0
 477.141601562 448.899414062 531.7890625 401.384765625 543.359375 337.247070312 c 1
 550.009765625 337.37109375 553.846679688 337.435546875 559.588867188 337.442382812 c 0
 624.936523438 337.522460938 690.723632812 322.08984375 671.3828125 184.471679688 c 0
 648.122070312 18.9609375 502.326171875 -10 341.452148438 -10 c 0
 179.899414062 -10 71.5205078125 -9.2783203125 71.5205078125 -9.2783203125 c 2
 48.83984375 -9.2783203125 36.771484375 13.62109375 40.166015625 37.771484375 c 0
 43.5625 61.939453125 62.02734375 84.8212890625 84.7802734375 84.8212890625 c 2
 84.7802734375 84.8212890625 243.255859375 84.7958984375 354.774414062 84.7958984375 c 0
 467.775390625 84.7958984375 558.357421875 109.369140625 568.912109375 184.471679688 c 0
 569.54296875 188.958007812 570.893554688 190.131835938 572.045898438 194.954101562 c 0
 575.447265625 209.189453125 578.100585938 234.711914062 527.546875 241.124023438 c 1
 495.248046875 178.249023438 429.512695312 136.299804688 359.012695312 136.299804688 c 0
 287.2890625 136.299804688 233.681640625 181.250976562 219.931640625 241.204101562 c 1
 211.356445312 241.0390625 206.581054688 240.932617188 199.1796875 240.926757812 c 0
 133.89453125 240.875 68.30078125 256.456054688 87.6162109375 393.897460938 c 0
 110.877929688 559.408203125 256.672851562 588.369140625 417.546875 588.369140625 c 0
 579.099609375 588.369140625 687.479492188 587.647460938 687.479492188 587.647460938 c 2
 710.16015625 587.647460938 722.227539062 564.748046875 718.833007812 540.59765625 c 0
 715.436523438 516.4296875 696.971679688 493.547851562 674.21875 493.547851562 c 2
 674.21875 493.547851562 515.743164062 493.573242188 404.224609375 493.573242188 c 0
 291.223632812 493.573242188 200.642578125 469 190.086914062 393.897460938 c 0
 189.45703125 389.415039062 188.10546875 388.231445312 186.951171875 383.397460938 c 0
 183.545898438 369.127929688 181.216796875 343.509765625 231.1484375 337.25390625 c 1
458.263671875 336.907226562 m 1
 444.994140625 358.297851562 421.4921875 371.904296875 392.125 371.904296875 c 0
 362.153320312 371.904296875 334.372070312 356.926757812 315.850585938 336.543945312 c 1
 351.217773438 336.686523438 401.913085938 336.83984375 458.263671875 336.907226562 c 1
308.462890625 241.48046875 m 1
 322.291015625 224.096679688 343.752929688 213.294921875 369.833984375 213.294921875 c 0
 396.397460938 213.294921875 421.456054688 225.275390625 439.495117188 241.868164062 c 1
 405.080078125 241.719726562 359.912109375 241.561523438 308.462890625 241.48046875 c 1
EndSplineSet
EndChar

StartChar: dieresis
Encoding: 168 168 104
Width: 388
GlyphClass: 2
Flags: MW
HStem: 601.25 108.75<112.862 127.621 260.362 275.121>
VStem: 63.999 112.5<655 655> 211.499 112.5<655 655>
LayerCount: 2
Back
Fore
SplineSet
112.694335938 601.25 m 0
 82.8408203125 601.25 59.623046875 623.866210938 63.9990234375 655 c 0
 68.3359375 685.86328125 97.7451171875 710 127.978515625 710 c 0
 158.211914062 710 180.8359375 685.86328125 176.499023438 655 c 0
 172.123046875 623.866210938 142.547851562 601.25 112.694335938 601.25 c 0
260.194335938 601.25 m 0
 230.340820312 601.25 207.123046875 623.866210938 211.499023438 655 c 0
 215.8359375 685.86328125 245.245117188 710 275.478515625 710 c 0
 305.711914062 710 328.3359375 685.86328125 323.999023438 655 c 0
 319.623046875 623.866210938 290.047851562 601.25 260.194335938 601.25 c 0
EndSplineSet
EndChar

StartChar: copyright
Encoding: 169 169 105
Width: 724
GlyphClass: 2
Flags: MW
HStem: -10 102.471<273.818 393.929 273.818 406.325> 135.064 57.3975<296.558 321.577 296.558 353.912> 388.138 57.3975<324.058 376.956> 492.729 102.471<330.071 450.182>
LayerCount: 2
Back
Fore
SplineSet
144.97265625 292.599609375 m 0
 130.165039062 187.239257812 213.762695312 92.470703125 333.874023438 92.470703125 c 0
 453.984375 92.470703125 564.219726562 187.239257812 579.02734375 292.599609375 c 0
 593.834960938 397.958984375 510.237304688 492.728515625 390.125976562 492.728515625 c 0
 270.015625 492.728515625 159.780273438 397.958984375 144.97265625 292.599609375 c 0
46.240234375 292.599609375 m 0
 69.767578125 460.005859375 230.822265625 595.19921875 404.52734375 595.19921875 c 0
 578.232421875 595.19921875 701.287109375 460.005859375 677.759765625 292.599609375 c 0
 654.232421875 125.193359375 493.177734375 -10 319.47265625 -10 c 0
 145.767578125 -10 22.712890625 125.193359375 46.240234375 292.599609375 c 0
492.767578125 445.170898438 m 0
 508.106445312 444.346679688 513.963867188 430.024414062 512.084960938 416.650390625 c 0
 510.159179688 402.94921875 499.30859375 388.125 484.07421875 388.125 c 2
 484.07421875 388.125 404.834960938 388.137695312 349.077148438 388.137695312 c 0
 299.038085938 388.137695312 247.846679688 344.259765625 240.262695312 290.299804688 c 0
 232.6796875 236.33984375 271.538085938 192.461914062 321.577148438 192.461914062 c 2
 456.579101562 192.474609375 l 2
 471.810546875 192.474609375 478.495117188 177.650390625 476.5703125 163.94921875 c 0
 474.64453125 150.249023438 463.768554688 135.424804688 448.594726562 135.424804688 c 2
 448.594726562 135.424804688 394.313476562 135.064453125 313.510742188 135.064453125 c 0
 227.293945312 135.064453125 166.989257812 204.6484375 179.026367188 290.299804688 c 0
 191.064453125 375.951171875 270.927734375 445.53515625 357.14453125 445.53515625 c 0
 438.333984375 445.53515625 491.303710938 445.180664062 492.767578125 445.170898438 c 0
EndSplineSet
EndChar

StartChar: ordfeminine
Encoding: 170 170 106
Width: 336
GlyphClass: 2
Flags: MW
HStem: 485.18 48.8652<139.692 165.53> 661.135 48.8652<157.554 196.31>
VStem: 50.9854 234.029<597 597>
LayerCount: 2
Back
Fore
SplineSet
270.959960938 498.834960938 m 2
 268.721679688 482.907226562 248.219726562 484.760742188 246.145507812 484.732421875 c 0
 244.283203125 484.708007812 222.697265625 482.276367188 224.9765625 498.495117188 c 2
 226.34375 508.215820312 l 1
 203.47265625 493.081054688 178.856445312 485.1796875 152.203125 485.1796875 c 0
 88.0615234375 485.1796875 42.2109375 535.15625 50.9853515625 597.58984375 c 0
 59.759765625 660.020507812 119.659179688 710 183.799804688 710 c 0
 247.94140625 710 293.79296875 660.036132812 285.014648438 597.572265625 c 2
 270.959960938 498.834960938 l 2
98.541015625 597.58984375 m 0
 93.921875 564.720703125 120.313476562 534.044921875 159.0703125 534.044921875 c 0
 197.826171875 534.044921875 232.841796875 564.720703125 237.4609375 597.58984375 c 0
 242.081054688 630.458984375 215.688476562 661.134765625 176.931640625 661.134765625 c 0
 138.17578125 661.134765625 103.161132812 630.458984375 98.541015625 597.58984375 c 0
EndSplineSet
EndChar

StartChar: guillemotleft
Encoding: 171 171 107
Width: 623
GlyphClass: 2
Flags: MW
HStem: 142.713 74.2451<264.348 282.105> 469.044 74.2432<317.537 320.646>
LayerCount: 2
Back
Fore
SplineSet
266.158203125 343 m 0
 269.684570312 368.0859375 288.407226562 391.52734375 307.337890625 399.2421875 c 0
 324.47265625 409.8515625 540.479492188 541.911132812 540.568359375 541.96484375 c 2
 542.037109375 542.860351562 l 1
 543.645507812 543.287109375 l 2
 564.543945312 548.841796875 583.338867188 536.399414062 580.133789062 513.58984375 c 0
 577.1171875 492.129882812 556.801757812 474.236328125 540.537109375 469.043945312 c 1
 359.2109375 343 l 1
 505.10546875 216.958007812 l 1
 522.639648438 210.827148438 535.008789062 192.51171875 532.18359375 172.41015625 c 0
 528.98046875 149.619140625 506.692382812 137.15625 487.34765625 142.712890625 c 2
 485.852539062 143.142578125 l 1
 484.63671875 144.0390625 l 1
 484.63671875 144.0390625 302.5390625 278.51171875 291.533203125 286.754882812 c 0
 272.427734375 295.529296875 262.828125 319.3046875 266.158203125 343 c 0
43.158203125 343 m 0
 46.6845703125 368.0859375 65.4072265625 391.52734375 84.337890625 399.2421875 c 0
 101.47265625 409.8515625 317.479492188 541.911132812 317.568359375 541.96484375 c 2
 319.037109375 542.860351562 l 1
 320.645507812 543.287109375 l 2
 341.543945312 548.841796875 360.338867188 536.399414062 357.133789062 513.58984375 c 0
 354.1171875 492.129882812 333.801757812 474.236328125 317.537109375 469.043945312 c 1
 136.2109375 343 l 1
 282.10546875 216.958007812 l 1
 299.639648438 210.827148438 312.008789062 192.51171875 309.18359375 172.41015625 c 0
 305.98046875 149.619140625 283.692382812 137.15625 264.34765625 142.712890625 c 2
 262.852539062 143.142578125 l 1
 261.63671875 144.0390625 l 1
 261.63671875 144.0390625 79.5390625 278.51171875 68.533203125 286.754882812 c 0
 49.427734375 295.529296875 39.828125 319.3046875 43.158203125 343 c 0
EndSplineSet
EndChar

StartChar: logicalnot
Encoding: 172 172 108
Width: 606
GlyphClass: 2
Flags: MW
HStem: 261.904 94.0996<74.0034 98.7876 98.5947 98.7876 98.5947 451.184>
LayerCount: 2
Back
Fore
SplineSet
521.029296875 356.008789062 m 0
 544.543945312 355.1328125 555.326171875 332.7265625 551.985351562 308.954101562 c 2
 533.57421875 177.954101562 l 2
 530.37890625 155.21484375 505.333984375 139.954101562 481.18359375 139.954101562 c 0
 456.959960938 139.954101562 436.30859375 155.432617188 439.47265625 177.938476562 c 2
 439.47265625 177.938476562 446.44921875 228.1328125 451.18359375 261.904296875 c 1
 85.373046875 261.904296875 l 2
 62.6337890625 261.904296875 50.5908203125 284.803710938 53.9853515625 308.954101562 c 0
 57.3896484375 333.177734375 76.06640625 356.004882812 98.5947265625 356.00390625 c 0
 98.98046875 356.00390625 519.544921875 356.153320312 521.029296875 356.008789062 c 0
EndSplineSet
EndChar

StartChar: uni00AD
Encoding: 173 173 109
Width: 530
GlyphClass: 2
Flags: MW
HStem: 261.904 94.0996<74.5034 99.2832 99.0947 99.2832 99.0947 431.016>
LayerCount: 2
Back
Fore
SplineSet
444.530273438 356.008789062 m 0
 468.041015625 355.1328125 478.826171875 332.7265625 475.485351562 308.954101562 c 0
 472.056640625 284.560546875 453.435546875 262.538085938 431.015625 261.904296875 c 2
 85.873046875 261.904296875 l 2
 63.1337890625 261.904296875 51.0908203125 284.803710938 54.4853515625 308.954101562 c 0
 57.8896484375 333.177734375 76.5673828125 356.004882812 99.0947265625 356.00390625 c 0
 99.4716796875 356.00390625 443.055664062 356.151367188 444.530273438 356.008789062 c 0
EndSplineSet
EndChar

StartChar: registered
Encoding: 174 174 110
Width: 724
GlyphClass: 2
Flags: MW
HStem: -10 102.471<309.006 393.929 309.006 406.325> 388.181 57.3975<343.564 396.463> 492.729 102.471<330.071 450.182>
LayerCount: 2
Back
Fore
SplineSet
241.521484375 159.16015625 m 0
 239.337890625 143.979492188 223.354492188 135.193359375 209.627929688 135.193359375 c 0
 209.02734375 135.193359375 208.432617188 135.209960938 207.842773438 135.2421875 c 1
 240.663085938 108.719726562 284.138671875 92.470703125 333.874023438 92.470703125 c 0
 453.984375 92.470703125 564.219726562 187.239257812 579.02734375 292.599609375 c 0
 593.834960938 397.958984375 510.237304688 492.728515625 390.125976562 492.728515625 c 0
 270.015625 492.728515625 159.780273438 397.958984375 144.97265625 292.599609375 c 0
 137.901367188 242.283203125 153.272460938 194.3828125 184.345703125 158.06640625 c 1
 184.346679688 158.073242188 184.345703125 158.081054688 184.346679688 158.087890625 c 2
 184.361328125 158.211914062 l 2
 184.997070312 163.830078125 198.4375 289.508789062 198.491210938 290.004882812 c 2
 198.543945312 290.501953125 l 1
 198.645507812 290.997070312 l 2
 216.045898438 375.40625 290.001953125 445.578125 376.650390625 445.578125 c 0
 457.453125 445.578125 511.6328125 445.217773438 511.6328125 445.217773438 c 2
 526.806640625 445.217773438 533.516601562 430.393554688 531.590820312 416.693359375 c 0
 529.665039062 402.9921875 518.814453125 388.16796875 503.580078125 388.16796875 c 2
 503.580078125 388.16796875 424.341796875 388.180664062 368.583984375 388.180664062 c 0
 318.544921875 388.180664062 267.352539062 344.302734375 259.768554688 290.342773438 c 0
 252.716796875 240.163085938 244.459960938 180.430664062 242.241210938 164.290039062 c 0
 241.969726562 162.408203125 241.771484375 160.934570312 241.521484375 159.16015625 c 0
46.240234375 292.599609375 m 0
 69.767578125 460.005859375 230.822265625 595.19921875 404.52734375 595.19921875 c 0
 578.232421875 595.19921875 701.287109375 460.005859375 677.759765625 292.599609375 c 0
 654.232421875 125.193359375 493.177734375 -10 319.47265625 -10 c 0
 145.767578125 -10 22.712890625 125.193359375 46.240234375 292.599609375 c 0
EndSplineSet
EndChar

StartChar: macron
Encoding: 175 175 111
Width: 879
GlyphClass: 2
Flags: MW
HStem: 615.895 94.1055
LayerCount: 2
Back
Fore
SplineSet
96.4775390625 615.89453125 m 0
 72.958984375 616.771484375 62.173828125 639.177734375 65.5146484375 662.950195312 c 0
 68.9423828125 687.34375 87.564453125 709.366210938 109.984375 710 c 2
 782.126953125 710 l 2
 804.866210938 710 816.908203125 687.100585938 813.514648438 662.950195312 c 0
 810.110351562 638.7265625 791.43359375 615.899414062 768.904296875 615.900390625 c 0
 768.529296875 615.900390625 97.931640625 615.754882812 96.4775390625 615.89453125 c 0
EndSplineSet
EndChar

StartChar: degree
Encoding: 176 176 112
Width: 368
GlyphClass: 2
Flags: MW
HStem: 454.818 53.1953<150.852 196.182 150.852 202.539> 657.166 53.1953<171.817 217.147>
VStem: 50.9316 266.137<582 582>
LayerCount: 2
Back
Fore
SplineSet
102.62109375 582.58984375 m 0
 97.1787109375 543.865234375 128.185546875 508.013671875 173.518554688 508.013671875 c 0
 218.845703125 508.013671875 259.936523438 543.865234375 265.37890625 582.58984375 c 0
 270.821289062 621.314453125 239.813476562 657.166015625 194.48046875 657.166015625 c 0
 149.153320312 657.166015625 108.063476562 621.314453125 102.62109375 582.58984375 c 0
50.931640625 582.58984375 m 0
 60.8974609375 653.499023438 128.965820312 710.361328125 201.95703125 710.361328125 c 0
 274.948242188 710.361328125 327.034179688 653.5 317.068359375 582.58984375 c 0
 307.102539062 511.680664062 239.034179688 454.818359375 166.04296875 454.818359375 c 0
 93.0517578125 454.818359375 40.9658203125 511.6796875 50.931640625 582.58984375 c 0
EndSplineSet
EndChar

StartChar: plusminus
Encoding: 177 177 113
Width: 620
GlyphClass: 2
Flags: MW
HStem: -10 94.0996<57.7524 82.5366 82.3438 82.5366 82.3438 491.265> 320 94.1875
LayerCount: 2
Back
Fore
SplineSet
504.778320312 84.1044921875 m 0
 528.29296875 83.228515625 539.075195312 60.822265625 535.734375 37.0498046875 c 0
 532.305664062 12.65625 513.684570312 -9.3662109375 491.264648438 -10 c 2
 69.1220703125 -10 l 2
 46.3828125 -10 34.33984375 12.8994140625 37.734375 37.0498046875 c 0
 41.138671875 61.2734375 59.8154296875 84.1005859375 82.34375 84.099609375 c 0
 82.7294921875 84.099609375 503.294921875 84.2490234375 504.778320312 84.1044921875 c 0
538.142578125 320 m 2
 374.137695312 320 l 1
 361.059570312 226.830078125 351.631835938 158.578125 350.93359375 155.546875 c 2
 350.93359375 155.546875 321.732421875 118.049804688 298.618164062 118.049804688 c 0
 274.236328125 118.049804688 254.361328125 133.361328125 256.888671875 155.907226562 c 2
 279.950195312 320 l 1
 116 320 l 2
 93.2607421875 320 81.21875 342.899414062 84.61328125 367.049804688 c 0
 88.017578125 391.2734375 106.696289062 414.100585938 129.221679688 414.099609375 c 2
 129.221679688 414.099609375 206.103515625 414.13671875 293.184570312 414.1640625 c 1
 316.216796875 578.049804688 l 2
 319.413085938 600.7890625 344.45703125 616.049804688 368.607421875 616.049804688 c 0
 392.831054688 616.049804688 413.484375 600.579101562 410.317382812 578.053710938 c 2
 410.317382812 578.053710938 399.555664062 501.217773438 387.350585938 414.1875 c 1
 480.571289062 414.203125 548.706054688 414.369140625 551.727539062 414.095703125 c 2
 551.727539062 414.095703125 585.861328125 390.1640625 582.61328125 367.049804688 c 0
 579.184570312 342.65625 560.563476562 320.633789062 538.142578125 320 c 2
EndSplineSet
EndChar

StartChar: uni00B2
Encoding: 178 178 114
Width: 431
GlyphClass: 2
Flags: MW
HStem: 400.475 57.7441 505.895 57.3984<133.037 142.874> 652.607 57.3984<232.526 262.188>
LayerCount: 2
Back
Fore
SplineSet
328.724609375 401.181640625 m 2
 328.724609375 401.181640625 274.443359375 400.821289062 193.640625 400.821289062 c 0
 178.422851562 400.821289062 163.576171875 400.483398438 149.50390625 400.474609375 c 0
 90.8857421875 400.434570312 38.2919921875 407.592773438 48.40625 479.556640625 c 0
 60.703125 567.055664062 115.099609375 563.29296875 150.974609375 563.29296875 c 0
 231.77734375 563.29296875 285.95703125 562.931640625 285.95703125 562.931640625 c 2
 305.185546875 562.931640625 316.955078125 576.92578125 321.21875 607.26953125 c 0
 328.084960938 656.12109375 291.848632812 652.607421875 232.526367188 652.607421875 c 2
 97.5244140625 652.594726562 l 2
 82.29296875 652.594726562 75.6083984375 667.419921875 77.5341796875 681.120117188 c 0
 79.458984375 694.8203125 90.3359375 709.64453125 105.509765625 709.64453125 c 2
 105.509765625 709.64453125 159.791015625 710.005859375 240.59375 710.005859375 c 0
 320.624023438 710.005859375 395.025390625 696.717773438 382.454101562 607.26953125 c 0
 371.52734375 529.517578125 329.899414062 505.534179688 277.856445312 505.534179688 c 0
 197.053710938 505.534179688 142.874023438 505.89453125 142.874023438 505.89453125 c 2
 96.271484375 505.89453125 110.678710938 486.938476562 109.641601562 479.556640625 c 0
 107.223632812 462.35546875 140.380859375 458.21875 201.70703125 458.21875 c 2
 336.708984375 458.231445312 l 2
 351.939453125 458.231445312 358.625 443.407226562 356.700195312 429.70703125 c 0
 354.775390625 416.012695312 343.959960938 401.181640625 328.724609375 401.181640625 c 2
EndSplineSet
EndChar

StartChar: uni00B3
Encoding: 179 179 115
Width: 455
GlyphClass: 2
Flags: MW
HStem: 399.529 57.3975<207.792 260.69 207.792 270.713> 526.09 57.0498<264.619 272.445> 652.603 57.3975<263.172 288.191>
LayerCount: 2
Back
Fore
SplineSet
75.939453125 583.139648438 m 2
 273.08203125 583.139648438 l 2
 288.653320312 583.139648438 294.888671875 567.53125 293.002929688 554.115234375 c 0
 291.028320312 540.068359375 279.823242188 526.08984375 265.067382812 526.08984375 c 0
 264.170898438 526.08984375 70.078125 525.977539062 66.3466796875 526.161132812 c 0
 52.4658203125 527.200195312 46.1982421875 541.276367188 48.0732421875 554.615234375 c 0
 50.0322265625 568.5546875 61.0654296875 582.71875 75.939453125 583.139648438 c 2
136.154296875 709.639648438 m 2
 136.154296875 709.639648438 190.435546875 710 271.23828125 710 c 0
 357.455078125 710 417.758789062 640.416015625 405.720703125 554.764648438 c 0
 393.68359375 469.114257812 313.821289062 399.529296875 227.604492188 399.529296875 c 0
 146.801757812 399.529296875 92.6220703125 399.889648438 92.6220703125 399.889648438 c 2
 77.4482421875 399.889648438 70.73828125 414.713867188 72.6640625 428.4140625 c 0
 74.5888671875 442.115234375 85.4404296875 456.939453125 100.674804688 456.939453125 c 2
 100.674804688 456.939453125 179.913085938 456.926757812 235.670898438 456.926757812 c 0
 285.709960938 456.926757812 336.90234375 500.8046875 344.485351562 554.764648438 c 0
 352.069335938 608.724609375 313.2109375 652.602539062 263.171875 652.602539062 c 2
 128.169921875 652.58984375 l 2
 112.938476562 652.58984375 106.252929688 667.4140625 108.178710938 681.115234375 c 0
 110.103515625 694.80859375 120.919921875 709.639648438 136.154296875 709.639648438 c 2
EndSplineSet
EndChar

StartChar: acute
Encoding: 180 180 116
Width: 263
GlyphClass: 2
Flags: MW
HStem: 597.5 112.5<122.014 186.458>
LayerCount: 2
Back
Fore
SplineSet
47.7841796875 584.81640625 m 0
 52.5625 606.318359375 85.1708984375 640.513671875 100.862304688 658.827148438 c 0
 119.583007812 688.078125 153.788085938 710 183.282226562 710 c 0
 189.6328125 710 195.385742188 708.879882812 200.2890625 706.552734375 c 0
 220.50390625 696.958984375 219.4765625 671.68359375 206.028320312 649.5234375 c 0
 189.00390625 621.469726562 154.4375 597.5 124.337890625 597.5 c 0
 119.689453125 597.5 113.686523438 598.786132812 111.265625 599.48828125 c 0
 102.623046875 579.748046875 112.787109375 579.752929688 133.102539062 566.0078125 c 2
 170.010742188 541.03125 l 1
 123.876953125 547.595703125 l 2
 97.7529296875 551.313476562 40.5361328125 558.317382812 47.7841796875 584.81640625 c 0
EndSplineSet
EndChar

StartChar: mu
Encoding: 181 181 117
Width: 762
GlyphClass: 2
Flags: MW
HStem: -10 102.471<302.899 414.141 300.73 425.892>
LayerCount: 2
Back
Fore
SplineSet
113.850585938 497.4765625 m 0
 119.663085938 538.487304688 123.486328125 560.98828125 123.775390625 562.7265625 c 0
 126.939453125 585.240234375 151.997070312 600.599609375 176.1484375 600.599609375 c 0
 200.315429688 600.599609375 221.0546875 585.350585938 217.857421875 562.59765625 c 2
 217.857421875 562.59765625 195.55859375 404.118164062 179.885742188 292.599609375 c 0
 165.016601562 186.798828125 244.024414062 92.470703125 357.435546875 92.470703125 c 0
 470.845703125 92.470703125 576.368164062 186.798828125 591.237304688 292.599609375 c 2
 629.158203125 562.599609375 l 2
 632.353515625 585.338867188 657.397460938 600.599609375 681.548828125 600.599609375 c 0
 705.715820312 600.599609375 726.452148438 585.326171875 723.262695312 562.6328125 c 2
 723.262695312 562.6328125 708.73828125 454.15234375 686.033203125 292.599609375 c 0
 662.567382812 125.6328125 508.75 -10 343.034179688 -10 c 0
 262.763671875 -10 194.23046875 22.6376953125 148.275390625 72.8662109375 c 1
 132.834960938 -37 l 2
 129.639648438 -59.7392578125 104.594726562 -75 80.4443359375 -75 c 0
 56.2197265625 -75 35.56640625 -59.53125 38.7353515625 -37.001953125 c 0
 38.802734375 -36.5244140625 113.419921875 495.651367188 113.850585938 497.4765625 c 0
EndSplineSet
EndChar

StartChar: paragraph
Encoding: 182 182 118
Width: 510
GlyphClass: 2
Flags: W
LayerCount: 2
Back
Fore
SplineSet
467.338867188 562.142578125 m 2
 392.270507812 28 l 2
 389.07421875 5.2607421875 364.029296875 -10 339.879882812 -10 c 0
 315.655273438 -10 295.001953125 5.470703125 298.169921875 27.99609375 c 2
 298.169921875 27.99609375 346.245117188 371.006835938 365.25390625 505.900390625 c 1
 340.434570312 505.900390625 l 1
 273.270507812 28 l 2
 270.07421875 5.2607421875 245.029296875 -10 220.879882812 -10 c 0
 196.655273438 -10 176.001953125 5.470703125 179.169921875 27.99609375 c 2
 179.169921875 27.99609375 196.48828125 151.573242188 214.270507812 278.283203125 c 1
 57.2216796875 284.36328125 40.7607421875 404.059570312 42.7099609375 419.922851562 c 0
 42.9248046875 421.6171875 43.2177734375 427.705078125 44.5908203125 437.560546875 c 0
 50.716796875 481.506835938 80.5546875 599.998046875 221.603515625 600 c 0
 222.006835938 600 424.658203125 600.13671875 426.227539062 599.98828125 c 2
 426.227539062 599.98828125 469.689453125 583.1015625 467.338867188 562.142578125 c 2
EndSplineSet
EndChar

StartChar: periodcentered
Encoding: 183 183 119
Width: 215
GlyphClass: 2
Flags: MW
HStem: 208.75 112.5<99.2251 114.413>
VStem: 53.1367 108.75<265 265>
LayerCount: 2
Back
Fore
SplineSet
53.13671875 265 m 0
 57.33203125 294.853515625 83.658203125 321.25 114.791992188 321.25 c 0
 145.655273438 321.25 166.135742188 295.233398438 161.88671875 265 c 0
 157.637695312 234.766601562 129.844726562 208.75 98.9814453125 208.75 c 0
 67.84765625 208.75 48.94140625 235.146484375 53.13671875 265 c 0
EndSplineSet
EndChar

StartChar: cedilla
Encoding: 184 184 120
Width: 253
GlyphClass: 2
Flags: MW
HStem: -60.25 112.5<119.572 134.4>
VStem: 73.4834 108.556
LayerCount: 2
Back
Fore
SplineSet
200.7109375 69.376953125 m 0
 205.913085938 48.0654296875 188.829101562 12.0888671875 182.0390625 -5.2763671875 c 0
 176.581054688 -36.0947265625 149.471679688 -60.25 119.328125 -60.25 c 0
 88.1943359375 -60.25 69.2880859375 -33.853515625 73.4833984375 -4 c 0
 77.6796875 25.853515625 104.004882812 52.25 135.138671875 52.25 c 0
 138.170898438 52.25 141.87109375 51.744140625 144.3359375 51.328125 c 1
 141.31640625 67.005859375 126.849609375 71.439453125 103.918945312 83.234375 c 2
 51.318359375 110.2890625 l 1
 112.203125 102.166015625 l 2
 144.094726562 97.91015625 196.522460938 91.1044921875 200.7109375 69.376953125 c 0
EndSplineSet
EndChar

StartChar: uni00B9
Encoding: 185 185 121
Width: 216
GlyphClass: 2
Flags: MW
HStem: 395 23.9961<77.7158 109.719>
LayerCount: 2
Back
Fore
SplineSet
147.530273438 710 m 0
 161.127929688 710 173.991210938 701.126953125 172.310546875 686.142578125 c 2
 134.766601562 419 l 2
 132.625976562 403.768554688 116.568359375 395 102.869140625 395 c 0
 89.115234375 395 75.591796875 403.883789062 77.7158203125 418.99609375 c 2
 77.7158203125 418.99609375 93.763671875 533.440429688 104.99609375 613.41796875 c 1
 86.9296875 597.577148438 l 2
 74.64453125 586.8046875 58.5634765625 591.08984375 50.2373046875 600.776367188 c 0
 41.8798828125 610.501953125 40.0654296875 627.2265625 52.255859375 637.915039062 c 0
 52.2978515625 637.952148438 114.947265625 692.88671875 115.313476562 693.202148438 c 0
 119.0625 696.669921875 129.249023438 711.447265625 147.530273438 710 c 0
EndSplineSet
EndChar

StartChar: ordmasculine
Encoding: 186 186 122
Width: 335
GlyphClass: 2
Flags: MW
HStem: 485.18 48.8652<139.191 177.947 139.191 183.772> 661.135 48.8652<157.053 195.809>
VStem: 50.4844 234.031<597 597>
LayerCount: 2
Back
Fore
SplineSet
98.0400390625 597.58984375 m 0
 93.4208984375 564.720703125 119.8125 534.044921875 158.569335938 534.044921875 c 0
 197.325195312 534.044921875 232.340820312 564.720703125 236.959960938 597.58984375 c 0
 241.580078125 630.458984375 215.1875 661.134765625 176.430664062 661.134765625 c 0
 137.674804688 661.134765625 102.66015625 630.458984375 98.0400390625 597.58984375 c 0
50.484375 597.58984375 m 0
 59.2587890625 660.020507812 119.158203125 710 183.298828125 710 c 0
 247.440429688 710 293.290039062 660.0234375 284.515625 597.58984375 c 0
 275.7421875 535.159179688 215.842773438 485.1796875 151.702148438 485.1796875 c 0
 87.560546875 485.1796875 41.7099609375 535.15625 50.484375 597.58984375 c 0
EndSplineSet
EndChar

StartChar: guillemotright
Encoding: 187 187 123
Width: 618
GlyphClass: 2
Flags: MW
HStem: 142.713 74.2432<76.8545 79.9629> 469.042 74.2451<115.395 133.152>
LayerCount: 2
Back
Fore
SplineSet
354.340820312 343 m 0
 350.815429688 317.9140625 332.092773438 294.47265625 313.161132812 286.7578125 c 0
 296.02734375 276.1484375 80.01953125 144.088867188 79.931640625 144.03515625 c 2
 78.462890625 143.139648438 l 1
 76.8544921875 142.712890625 l 2
 55.9560546875 137.158203125 37.1611328125 149.600585938 40.3662109375 172.41015625 c 0
 43.3828125 193.870117188 63.6982421875 211.763671875 79.962890625 216.956054688 c 1
 261.288085938 343 l 1
 115.39453125 469.041992188 l 1
 97.8603515625 475.172851562 85.4912109375 493.48828125 88.31640625 513.58984375 c 0
 91.51953125 536.380859375 113.807617188 548.84375 133.15234375 543.287109375 c 2
 134.647460938 542.857421875 l 1
 135.86328125 541.9609375 l 1
 135.86328125 541.9609375 317.9609375 407.48828125 328.966796875 399.245117188 c 0
 348.072265625 390.470703125 357.671875 366.6953125 354.340820312 343 c 0
577.340820312 343 m 0
 573.815429688 317.9140625 555.092773438 294.47265625 536.161132812 286.7578125 c 0
 519.02734375 276.1484375 303.01953125 144.088867188 302.931640625 144.03515625 c 2
 301.462890625 143.139648438 l 1
 299.854492188 142.712890625 l 2
 278.956054688 137.158203125 260.161132812 149.600585938 263.366210938 172.41015625 c 0
 266.3828125 193.870117188 286.698242188 211.763671875 302.962890625 216.956054688 c 1
 484.288085938 343 l 1
 338.39453125 469.041992188 l 1
 320.860351562 475.172851562 308.491210938 493.48828125 311.31640625 513.58984375 c 0
 314.51953125 536.380859375 336.807617188 548.84375 356.15234375 543.287109375 c 2
 357.647460938 542.857421875 l 1
 358.86328125 541.9609375 l 1
 358.86328125 541.9609375 540.9609375 407.48828125 551.966796875 399.245117188 c 0
 571.072265625 390.470703125 580.671875 366.6953125 577.340820312 343 c 0
EndSplineSet
EndChar

StartChar: onequarter
Encoding: 188 188 124
Width: 626
GlyphClass: 2
Flags: MW
HStem: 109.614 57.3975 247.688 57.3887 313.5 23.9961<159.385 191.387>
LayerCount: 2
Back
Fore
SplineSet
577.534179688 584.662109375 m 2
 135.66796875 22.576171875 l 2
 121.08984375 4.033203125 91.916015625 -10 67.5634765625 -10 c 0
 59.5302734375 -10 52.52734375 -8.41015625 47.1455078125 -4.8125 c 0
 34.46875 3.6640625 35.962890625 20.287109375 46.2998046875 33.4365234375 c 0
 46.4814453125 33.6640625 487.41015625 594.709960938 488.404296875 595.813476562 c 2
 488.404296875 595.813476562 542.513671875 628 556.194335938 628 c 0
 564.203125 628 571.181640625 626.443359375 576.55078125 622.858398438 c 0
 589.241210938 614.384765625 587.471679688 597.77734375 577.534179688 584.662109375 c 2
551.25390625 278.078125 m 2
 535.595703125 166.6640625 l 1
 567.595703125 166.6640625 l 2
 582.827148438 166.6640625 589.512695312 151.838867188 587.586914062 138.138671875 c 0
 585.654296875 124.385742188 574.686523438 109.611328125 559.58984375 109.614257812 c 2
 559.58984375 109.614257812 545.966796875 109.598632812 527.561523438 109.5859375 c 1
 514.127929688 14 l 2
 511.987304688 -1.2314453125 495.928710938 -10 482.229492188 -10 c 0
 468.475585938 -10 454.951171875 -1.11328125 457.077148438 13.99609375 c 2
 457.077148438 13.99609375 463.1640625 57.4521484375 470.4765625 109.5703125 c 1
 457.693359375 109.577148438 449.865234375 109.594726562 449.345703125 109.614257812 c 0
 402.588867188 109.608398438 381.268554688 109.19921875 305.984375 109.5078125 c 2
 304.90234375 109.512695312 l 1
 303.883789062 109.747070312 l 2
 299.612304688 110.729492188 295.8515625 112.133789062 292.755859375 114.466796875 c 0
 274.40234375 128.302734375 298.3515625 151.89453125 307.53515625 163.005859375 c 0
 368.624023438 236.924804688 423.75 302.7265625 476.6015625 305.076171875 c 0
 492.3046875 305.7734375 504.556640625 305.453125 514.236328125 304.447265625 c 0
 548.240234375 300.915039062 553.08203125 286.576171875 551.25390625 278.078125 c 2
489.924804688 247.916015625 m 1
 482.0078125 247.856445312 477.720703125 247.802734375 469.114257812 247.6875 c 0
 456.1171875 247.516601562 431.700195312 230.036132812 379.408203125 167.645507812 c 1
 393.53515625 166.649414062 418.451171875 167.01171875 457.629882812 167.01171875 c 2
 457.629882812 167.01171875 462.037109375 167.016601562 478.540039062 167.01953125 c 1
 483.458984375 202.03125 487.0625 227.583984375 489.924804688 247.916015625 c 1
229.19921875 628.5 m 0
 242.796875 628.5 255.661132812 619.627929688 253.98046875 604.642578125 c 2
 216.436523438 337.5 l 2
 214.295898438 322.267578125 198.236328125 313.5 184.538085938 313.5 c 0
 170.783203125 313.5 157.260742188 322.383789062 159.384765625 337.49609375 c 2
 159.384765625 337.49609375 175.43359375 451.942382812 186.666015625 531.91796875 c 1
 168.598632812 516.077148438 l 2
 156.313476562 505.305664062 140.232421875 509.58984375 131.908203125 519.275390625 c 0
 123.548828125 529.001953125 121.735351562 545.727539062 133.92578125 556.415039062 c 0
 133.967773438 556.453125 196.614257812 611.385742188 196.986328125 611.704101562 c 0
 200.729492188 615.16796875 210.918945312 629.947265625 229.19921875 628.5 c 0
EndSplineSet
EndChar

StartChar: onehalf
Encoding: 189 189 125
Width: 709
GlyphClass: 2
Flags: MW
HStem: -10.3467 57.7451 95.0742 57.3984<418.862 428.698> 241.787 57.3984<518.352 548.012> 313.5 23.9961<160.62 192.623>
LayerCount: 2
Back
Fore
SplineSet
578.76953125 584.662109375 m 2
 136.903320312 22.576171875 l 2
 122.325195312 4.033203125 93.1513671875 -10 68.798828125 -10 c 0
 60.765625 -10 53.7626953125 -8.41015625 48.380859375 -4.8125 c 0
 35.7041015625 3.6640625 37.1982421875 20.287109375 47.53515625 33.4365234375 c 0
 47.716796875 33.6640625 488.645507812 594.709960938 489.639648438 595.813476562 c 2
 489.639648438 595.813476562 543.749023438 628 557.4296875 628 c 0
 565.438476562 628 572.416992188 626.443359375 577.786132812 622.858398438 c 0
 590.4765625 614.384765625 588.70703125 597.77734375 578.76953125 584.662109375 c 2
614.548828125 -9.638671875 m 2
 614.548828125 -9.638671875 560.267578125 -10 479.46484375 -10 c 0
 464.247070312 -10 449.400390625 -10.337890625 435.329101562 -10.3466796875 c 0
 376.709960938 -10.38671875 324.116210938 -3.228515625 334.23046875 68.736328125 c 0
 346.52734375 156.235351562 400.924804688 152.47265625 436.798828125 152.47265625 c 0
 517.6015625 152.47265625 571.78125 152.111328125 571.78125 152.111328125 c 2
 591.008789062 152.111328125 602.779296875 166.104492188 607.043945312 196.44921875 c 0
 613.909179688 245.30078125 577.672851562 241.787109375 518.3515625 241.787109375 c 2
 383.349609375 241.774414062 l 2
 368.1171875 241.774414062 361.432617188 256.599609375 363.358398438 270.298828125 c 0
 365.284179688 284 376.159179688 298.82421875 391.333984375 298.82421875 c 2
 391.333984375 298.82421875 445.614257812 299.185546875 526.41796875 299.185546875 c 0
 606.448242188 299.185546875 680.850585938 285.897460938 668.279296875 196.44921875 c 0
 657.3515625 118.696289062 615.72265625 94.712890625 563.680664062 94.712890625 c 0
 482.876953125 94.712890625 428.698242188 95.07421875 428.698242188 95.07421875 c 2
 382.095703125 95.07421875 396.502929688 76.1181640625 395.465820312 68.736328125 c 0
 393.047851562 51.5341796875 426.205078125 47.3984375 487.53125 47.3984375 c 2
 622.533203125 47.4111328125 l 2
 637.764648438 47.4111328125 644.450195312 32.5859375 642.524414062 18.88671875 c 0
 640.599609375 5.1923828125 629.784179688 -9.638671875 614.548828125 -9.638671875 c 2
230.434570312 628.5 m 0
 244.032226562 628.5 256.896484375 619.627929688 255.215820312 604.642578125 c 2
 217.671875 337.5 l 2
 215.53125 322.267578125 199.471679688 313.5 185.7734375 313.5 c 0
 172.018554688 313.5 158.49609375 322.383789062 160.620117188 337.49609375 c 2
 160.620117188 337.49609375 176.668945312 451.942382812 187.901367188 531.91796875 c 1
 169.833984375 516.077148438 l 2
 157.548828125 505.305664062 141.467773438 509.58984375 133.143554688 519.275390625 c 0
 124.784179688 529.001953125 122.970703125 545.727539062 135.161132812 556.415039062 c 0
 135.203125 556.453125 197.849609375 611.385742188 198.221679688 611.704101562 c 0
 201.96484375 615.16796875 212.154296875 629.947265625 230.434570312 628.5 c 0
EndSplineSet
EndChar

StartChar: threequarters
Encoding: 190 190 126
Width: 653
GlyphClass: 2
Flags: MW
HStem: 109.614 57.3975 247.688 57.3887 317.529 57.3975<161.291 214.189 161.291 224.212> 444.09 57.0498<218.178 225.944> 570.603 57.3975<188.791 241.69>
LayerCount: 2
Back
Fore
SplineSet
603.377929688 584.662109375 m 2
 161.51171875 22.576171875 l 2
 146.93359375 4.033203125 117.758789062 -10 93.40625 -10 c 0
 85.373046875 -10 78.3701171875 -8.41015625 72.98828125 -4.8125 c 0
 60.3115234375 3.6640625 61.806640625 20.287109375 72.1435546875 33.4365234375 c 0
 72.3212890625 33.6611328125 513.26171875 594.716796875 514.241210938 595.807617188 c 2
 514.241210938 595.807617188 568.362304688 628 582.037109375 628 c 0
 590.045898438 628 597.0234375 626.443359375 602.39453125 622.858398438 c 0
 615.083984375 614.383789062 613.315429688 597.77734375 603.377929688 584.662109375 c 2
577.096679688 278.078125 m 2
 561.438476562 166.6640625 l 1
 593.438476562 166.6640625 l 2
 608.669921875 166.6640625 615.35546875 151.838867188 613.4296875 138.138671875 c 0
 611.497070312 124.385742188 600.529296875 109.611328125 585.432617188 109.614257812 c 2
 585.432617188 109.614257812 571.810546875 109.598632812 553.404296875 109.5859375 c 1
 539.970703125 14 l 2
 537.830078125 -1.2314453125 521.772460938 -10 508.072265625 -10 c 0
 494.318359375 -10 480.793945312 -1.11328125 482.919921875 13.99609375 c 2
 482.919921875 13.99609375 489.0078125 57.4521484375 496.319335938 109.5703125 c 1
 483.537109375 109.577148438 475.708984375 109.594726562 475.189453125 109.614257812 c 0
 428.431640625 109.608398438 407.112304688 109.19921875 331.827148438 109.5078125 c 2
 330.745117188 109.512695312 l 1
 329.7265625 109.747070312 l 2
 325.455078125 110.729492188 321.6953125 112.1328125 318.598632812 114.466796875 c 0
 300.245117188 128.302734375 324.1953125 151.89453125 333.37890625 163.005859375 c 0
 394.467773438 236.924804688 449.59375 302.7265625 502.444335938 305.076171875 c 0
 518.147460938 305.7734375 530.400390625 305.453125 540.078125 304.447265625 c 0
 574.083007812 300.915039062 578.924804688 286.576171875 577.096679688 278.078125 c 2
515.768554688 247.916015625 m 1
 507.8515625 247.856445312 503.563476562 247.802734375 494.958007812 247.6875 c 0
 481.959960938 247.516601562 457.543945312 230.037109375 405.251953125 167.645507812 c 1
 419.377929688 166.649414062 444.293945312 167.01171875 483.473632812 167.01171875 c 2
 483.473632812 167.01171875 487.880859375 167.016601562 504.3828125 167.01953125 c 1
 509.301757812 202.03125 512.90625 227.583984375 515.768554688 247.916015625 c 1
67.4384765625 501.139648438 m 2
 226.581054688 501.139648438 l 2
 242.15234375 501.139648438 248.387695312 485.53125 246.501953125 472.115234375 c 0
 244.52734375 458.068359375 233.321289062 444.08984375 218.56640625 444.08984375 c 0
 217.7890625 444.08984375 61.400390625 443.986328125 57.861328125 444.16015625 c 0
 43.9560546875 445.201171875 37.697265625 459.27734375 39.572265625 472.615234375 c 0
 41.53125 486.5546875 52.564453125 500.71875 67.4384765625 501.139648438 c 2
127.579101562 627.639648438 m 2
 127.579101562 627.639648438 143.952148438 628 224.737304688 628 c 0
 310.954101562 628 371.2578125 558.416015625 359.219726562 472.764648438 c 0
 347.182617188 387.114257812 267.3203125 317.529296875 181.103515625 317.529296875 c 0
 100.318359375 317.529296875 84.046875 317.889648438 84.046875 317.889648438 c 2
 69.0029296875 317.889648438 62.2373046875 332.711914062 64.1630859375 346.4140625 c 0
 66.0888671875 360.115234375 76.939453125 374.939453125 92.17578125 374.939453125 c 2
 92.17578125 374.939453125 133.412109375 374.926757812 189.169921875 374.926757812 c 0
 239.208984375 374.926757812 290.401367188 418.8046875 297.984375 472.764648438 c 0
 305.568359375 526.724609375 266.709960938 570.602539062 216.670898438 570.602539062 c 0
 160.911132812 570.602539062 119.674804688 570.58984375 119.668945312 570.58984375 c 0
 104.4375 570.58984375 97.751953125 585.4140625 99.677734375 599.115234375 c 0
 101.600585938 612.795898438 112.333984375 627.639648438 127.579101562 627.639648438 c 2
EndSplineSet
EndChar

StartChar: questiondown
Encoding: 191 191 127
Width: 582
GlyphClass: 2
Flags: MW
HStem: -10 84.3242<242.826 280.317 242.826 337.938> 207.942 83.8027<317.473 317.473 317.473 355.483> 491.041 99.5498<387.09 400.622>
LayerCount: 2
Back
Fore
SplineSet
395.267578125 249.479492188 m 0
 391.478515625 226.583984375 375.560546875 208.510742188 355.483398438 207.942382812 c 2
 140.362304688 207.942382812 l 1
 158.16015625 128.456054688 205.334960938 74.32421875 280.317382812 74.32421875 c 2
 512.520507812 74.345703125 l 2
 533.158203125 74.345703125 543.701171875 53.7119140625 540.717773438 32.4833984375 c 0
 537.732421875 11.244140625 521.375976562 -9.3798828125 500.787109375 -9.3798828125 c 2
 500.787109375 -9.3798828125 407.409179688 -10 268.466796875 -10 c 0
 124.110351562 -10 23.205078125 106.505859375 43.34375 249.805664062 c 0
 46.3369140625 271.099609375 62.85546875 291.668945312 83.3017578125 291.66796875 c 2
 83.3017578125 291.66796875 238.170898438 291.762695312 317.47265625 291.745117188 c 1
 339.377929688 447.60546875 l 2
 342.278320312 468.2421875 364.801757812 481.685546875 386.030273438 481.685546875 c 0
 407.32421875 481.685546875 425.978515625 468.059570312 423.103515625 447.610351562 c 0
 423.068359375 447.357421875 395.524414062 250.629882812 395.267578125 249.479492188 c 0
441.40625 540.81640625 m 0
 437.702148438 514.463867188 414.458007812 491.041015625 386.786132812 491.041015625 c 0
 359.421875 491.041015625 341.326171875 514.1015625 345.081054688 540.81640625 c 0
 348.837890625 567.548828125 373.403320312 590.590820312 400.776367188 590.590820312 c 0
 428.41015625 590.590820312 445.107421875 567.149414062 441.40625 540.81640625 c 0
EndSplineSet
EndChar

StartChar: Agrave
Encoding: 192 192 128
Width: 750
GlyphClass: 2
Flags: MW
HStem: 0 102.471<284.979 379.063> 482.729 102.471<338.422 465.024> 646 112.5<417.783 419.949 392.151 436.095>
VStem: 359.911 115.864 447.999 62.2666
LayerCount: 2
Back
Fore
SplineSet
416.124023438 585.19921875 m 0xe0
 598.614257812 585.19921875 723.52734375 454.583007812 700.756835938 292.565429688 c 2
 661.916015625 19.8251953125 l 2
 658.961914062 -1.1962890625 624.794921875 -1.2861328125 610.110351562 -1.2919921875 c 0
 596.501953125 -1.2978515625 564.82421875 -1.4677734375 567.766601562 19.470703125 c 2
 577.244140625 86.86328125 l 1
 509.864257812 32.283203125 424.24609375 0 333.879882812 0 c 0
 151.389648438 0 26.4765625 130.610351562 49.2421875 292.599609375 c 0
 72.0087890625 454.588867188 233.633789062 585.19921875 416.124023438 585.19921875 c 0xe0
602.029296875 292.599609375 m 0
 616.069335938 392.497070312 528.326171875 482.728515625 401.72265625 482.728515625 c 0
 275.12109375 482.728515625 162.014648438 392.497070312 147.974609375 292.599609375 c 0
 133.934570312 192.701171875 221.677734375 102.470703125 348.28125 102.470703125 c 0
 474.8828125 102.470703125 587.989257812 192.701171875 602.029296875 292.599609375 c 0
475.775390625 707.377929688 m 1xf0
 489.025390625 685.751953125 511.4765625 655.466796875 510.265625 633.330078125 c 0
 510.248046875 606.734375 448.129882812 599.80859375 419.59765625 596.09375 c 2
 369.314453125 589.546875 l 1
 415.366210938 614.537109375 l 2
 441.537109375 628.740234375 451.15234375 629.662109375 447.999023438 647.915039062 c 1xe8
 442.686523438 646.427734375 438.650390625 646 433.540039062 646 c 0
 402.025390625 646 372.584960938 669.893554688 362.760742188 697.977539062 c 0
 359.8203125 706.375 358.795898438 714.7734375 359.911132812 722.784179688 c 0
 362.752929688 743.23046875 380.31640625 758.5 403.985351562 758.5 c 0
 435.913085938 758.5 465.552734375 733.930664062 475.775390625 707.377929688 c 1xf0
EndSplineSet
EndChar

StartChar: Aacute
Encoding: 193 193 129
Width: 750
GlyphClass: 2
Flags: MW
HStem: 0 102.471<284.979 379.063> 482.729 102.471<338.422 465.024> 646 112.5<410.559 477.541>
LayerCount: 2
Back
Fore
SplineSet
416.124023438 585.19921875 m 0
 598.614257812 585.19921875 723.52734375 454.583007812 700.756835938 292.565429688 c 2
 661.916015625 19.8251953125 l 2
 658.961914062 -1.1962890625 624.794921875 -1.2861328125 610.110351562 -1.2919921875 c 0
 596.501953125 -1.2978515625 564.82421875 -1.4677734375 567.766601562 19.470703125 c 2
 577.244140625 86.86328125 l 1
 509.864257812 32.283203125 424.24609375 0 333.879882812 0 c 0
 151.389648438 0 26.4765625 130.610351562 49.2421875 292.599609375 c 0
 72.0087890625 454.588867188 233.633789062 585.19921875 416.124023438 585.19921875 c 0
602.029296875 292.599609375 m 0
 616.069335938 392.497070312 528.326171875 482.728515625 401.72265625 482.728515625 c 0
 275.12109375 482.728515625 162.014648438 392.497070312 147.974609375 292.599609375 c 0
 133.934570312 192.701171875 221.677734375 102.470703125 348.28125 102.470703125 c 0
 474.8828125 102.470703125 587.989257812 192.701171875 602.029296875 292.599609375 c 0
412.954101562 596.09375 m 2
 385.451171875 599.810546875 325.301757812 606.756835938 332.752929688 633.330078125 c 0
 337.6953125 655.15625 371.653320312 689.028320312 388.0546875 707.376953125 c 0
 407.53515625 736.63671875 443.331054688 758.5 474.216796875 758.5 c 0
 480.865234375 758.5 486.885742188 757.38671875 492.033203125 755.072265625 c 0
 513.2734375 745.518554688 512.448242188 720.19140625 498.430664062 697.978515625 c 0
 480.709960938 669.893554688 444.5546875 646 413.0390625 646 c 0
 408.078125 646 402.100585938 647.220703125 399.165039062 648.028320312 c 0
 390.196289062 628.302734375 400.861328125 628.310546875 422.370117188 614.537109375 c 2
 461.395507812 589.546875 l 1
 412.954101562 596.09375 l 2
EndSplineSet
EndChar

StartChar: Acircumflex
Encoding: 194 194 130
Width: 750
GlyphClass: 2
Flags: MW
HStem: 0 102.471<284.979 379.063> 482.729 102.471<338.422 465.024>
LayerCount: 2
Back
Fore
SplineSet
416.124023438 585.19921875 m 0
 598.614257812 585.19921875 723.52734375 454.583007812 700.756835938 292.565429688 c 2
 661.916015625 19.8251953125 l 2
 658.961914062 -1.1962890625 624.794921875 -1.2861328125 610.110351562 -1.2919921875 c 0
 596.501953125 -1.2978515625 564.82421875 -1.4677734375 567.766601562 19.470703125 c 2
 577.244140625 86.86328125 l 1
 509.864257812 32.283203125 424.24609375 0 333.879882812 0 c 0
 151.389648438 0 26.4765625 130.610351562 49.2421875 292.599609375 c 0
 72.0087890625 454.588867188 233.633789062 585.19921875 416.124023438 585.19921875 c 0
602.029296875 292.599609375 m 0
 616.069335938 392.497070312 528.326171875 482.728515625 401.72265625 482.728515625 c 0
 275.12109375 482.728515625 162.014648438 392.497070312 147.974609375 292.599609375 c 0
 133.934570312 192.701171875 221.677734375 102.470703125 348.28125 102.470703125 c 0
 474.8828125 102.470703125 587.989257812 192.701171875 602.029296875 292.599609375 c 0
299.817382812 632.375976562 m 1
 299.817382812 632.375976562 381.018554688 728.55859375 388.822265625 737.752929688 c 0
 402.217773438 756.768554688 420.368164062 763.31640625 438.000976562 763.31640625 c 0
 457.553710938 763.31640625 473.469726562 753.071289062 479.985351562 737.76953125 c 0
 487.6796875 724.22265625 539.375976562 632.385742188 539.379882812 632.377929688 c 2
 541.084960938 629.3515625 l 1
 541.612304688 625.833984375 l 2
 543.185546875 615.325195312 539.614257812 602.840820312 529.3671875 593.653320312 c 0
 521.661132812 586.748046875 511.763671875 583.31640625 502.415039062 583.31640625 c 0
 482.458007812 583.31640625 470.411132812 597.4140625 466.537109375 608.711914062 c 2
 424.990234375 670.745117188 l 1
 366.021484375 608.724609375 l 2
 356.504882812 593.385742188 340.98828125 583.31640625 322.993164062 583.31640625 c 0
 314.111328125 583.31640625 305.564453125 586.400390625 299.767578125 592.716796875 c 0
 291.321289062 601.919921875 291.056640625 614.947265625 295.748046875 625.8359375 c 2
 297.26171875 629.350585938 l 1
 299.817382812 632.375976562 l 1
EndSplineSet
EndChar

